<?xml version="1.0" encoding="utf-8"?>
<!-- Generator: Adobe Illustrator 24.0.1, SVG Export Plug-In . SVG Version: 6.00 Build 0)  -->
<svg version="1.1" id="Calque_1" xmlns="http://www.w3.org/2000/svg" xmlns:xlink="http://www.w3.org/1999/xlink" x="0px" y="0px"
	 viewBox="0 0 80 80" style="enable-background:new 0 0 80 80;" xml:space="preserve">
<g>
	<path d="M64,23H16c-1.6,0-3-1.3-3-3v0c0-1.6,1.3-3,3-3h48c1.7,0,3,1.3,3,3v0C67,21.7,65.7,23,64,23z"/>
</g>
<g>
	<path d="M61,43H19c-1.6,0-3-1.3-3-3v0c0-1.6,1.3-3,3-3h42c1.6,0,3,1.3,3,3v0C64,41.7,62.7,43,61,43z"/>
</g>
<g>
	<path d="M64,63H16c-1.6,0-3-1.3-3-3v0c0-1.6,1.3-3,3-3h48c1.7,0,3,1.3,3,3v0C67,61.7,65.7,63,64,63z"/>
</g>
</svg>
