<?xml version="1.0" encoding="utf-8"?>
<!-- Generator: Adobe Illustrator 24.0.0, SVG Export Plug-In . SVG Version: 6.00 Build 0)  -->
<svg version="1.1" id="Calque_1" xmlns="http://www.w3.org/2000/svg" xmlns:xlink="http://www.w3.org/1999/xlink" x="0px" y="0px"
	 viewBox="0 0 100 100" style="enable-background:new 0 0 100 100;" xml:space="preserve">
<style type="text/css">
	.st0{fill:#CE4500;}
</style>
<g>
	<g>
		<g>
			<path class="st0" d="M88,62.2l-6.8-3.1L79.3,56c7.5-4.8,12.1-13.1,12.1-22V21.2c0-0.7-0.4-1.4-1.1-1.7L73,10.2
				c-0.6-0.3-1.3-0.3-1.9,0l-16.8,9.2c-0.6,0.4-1,1-1,1.7v13.1c0,3.7,0.7,7.4,2.3,10.8H41.5c-3,0-5.9,1.4-7.8,3.8L26.1,59l-12.9,3.5
				c-3.4,0.9-5.7,4-5.8,7.5v4.9c0,4.3,3.5,7.8,7.9,7.9h0.9c1.4,5.2,6.9,8.3,12.1,6.8c3.3-0.9,5.9-3.5,6.8-6.8h28.7
				c1.4,5.2,6.9,8.3,12.1,6.8c3.3-0.9,5.9-3.5,6.8-6.8h1.9c4.3,0,7.8-3.5,7.9-7.9v-5.6C92.6,66.2,90.8,63.5,88,62.2z M57.2,22.3
				l14.9-8.2l15.4,8.2V34c0,8.9-5.4,17-13.6,20.4c0,0,0,0,0,0L72,55.2l-1.5-0.7c-8-3.5-13.2-11.5-13.2-20.3L57.2,22.3L57.2,22.3z
				 M25.7,86c-3.3,0-5.9-2.7-5.9-5.9c0-3.3,2.7-5.9,5.9-5.9c3.3,0,5.9,2.7,5.9,5.9S28.9,86,25.7,86z M73.3,86
				c-3.3,0-5.9-2.7-5.9-5.9s2.7-5.9,5.9-5.9c3.3,0,5.9,2.7,5.9,5.9C79.3,83.4,76.6,86,73.3,86z M88.7,74.9L88.7,74.9
				c0,2.2-1.8,3.9-4,3.9h-1.6c-0.7-5.4-5.6-9.2-11-8.5c-4.4,0.6-7.9,4.1-8.5,8.5H35.4c-0.7-5.4-5.6-9.2-11-8.5
				c-4.4,0.6-7.9,4.1-8.5,8.5h-0.7c-2.2,0-3.9-1.8-3.9-3.9V70c0-1.8,1.2-3.3,2.9-3.8l13.5-3.7c0.4-0.1,0.8-0.4,1.1-0.7l8.1-10.6
				c1.1-1.4,2.8-2.3,4.7-2.3h16.3c2.8,4,6.6,7.2,11.1,9.2l2.3,1c0.5,0.2,1.1,0.2,1.6,0l2.6-1.1c0.1-0.1,0.3-0.1,0.4-0.2l2.4,3.8
				c0.2,0.3,0.5,0.6,0.8,0.7l7.3,3.3c1.4,0.6,2.3,2,2.3,3.5L88.7,74.9L88.7,74.9z"/>
		</g>
	</g>
</g>
<path class="st0" d="M68.6,40.9l-4.9-4.9c-0.8-0.8-0.8-2.1,0-2.8l0,0c0.8-0.8,2.1-0.8,2.8,0l4.9,4.9c0.8,0.8,0.8,2.1,0,2.8h0
	C70.6,41.7,69.3,41.7,68.6,40.9z"/>
<path class="st0" d="M80.3,32.1l-8.8,8.8c-0.8,0.8-2.1,0.8-2.8,0h0c-0.8-0.8-0.8-2.1,0-2.8l8.8-8.8c0.8-0.8,2.1-0.8,2.8,0v0
	C81,30,81,31.3,80.3,32.1z"/>
</svg>
