<?xml version="1.0" encoding="utf-8"?>
<!-- Generator: Adobe Illustrator 24.0.1, SVG Export Plug-In . SVG Version: 6.00 Build 0)  -->
<svg version="1.1" id="Calque_1" xmlns="http://www.w3.org/2000/svg" xmlns:xlink="http://www.w3.org/1999/xlink" x="0px" y="0px"
	 viewBox="0 0 60 60" style="enable-background:new 0 0 60 60;" xml:space="preserve">
<g>
	<path d="M23.1,44.6L7.7,29.1c-1-1-1-2.7,0-3.7l0,0c1-1,2.7-1,3.7,0l15.4,15.4c1,1,1,2.7,0,3.7l0,0C25.8,45.6,24.2,45.6,23.1,44.6z"
		/>
	<path d="M23.1,40.9l25.4-25.4c1-1,2.7-1,3.7,0l0,0c1,1,1,2.7,0,3.7L26.9,44.6c-1,1-2.7,1-3.7,0l0,0C22.1,43.6,22.1,41.9,23.1,40.9z
		"/>
</g>
</svg>
