<?xml version="1.0" encoding="utf-8"?>
<!-- Generator: Adobe Illustrator 24.0.1, SVG Export Plug-In . SVG Version: 6.00 Build 0)  -->
<svg version="1.1" id="Calque_1" xmlns="http://www.w3.org/2000/svg" xmlns:xlink="http://www.w3.org/1999/xlink" x="0px" y="0px"
	 viewBox="0 0 80 80" style="enable-background:new 0 0 80 80;" xml:space="preserve">
<g>
	<g>
		<path d="M54.8,59.1L20.9,25.2c-1.2-1.2-1.2-3.1,0-4.2l0,0c1.2-1.2,3.1-1.2,4.2,0l33.9,33.9c1.2,1.2,1.2,3.1,0,4.2l0,0
			C57.9,60.3,56,60.3,54.8,59.1z"/>
	</g>
	<g>
		<path d="M20.9,54.8l33.9-33.9c1.2-1.2,3.1-1.2,4.2,0l0,0c1.2,1.2,1.2,3.1,0,4.2L25.2,59.1c-1.2,1.2-3.1,1.2-4.2,0l0,0
			C19.7,57.9,19.7,56,20.9,54.8z"/>
	</g>
</g>
</svg>
