<?xml version="1.0" encoding="utf-8"?>
<!-- Generator: Adobe Illustrator 24.0.1, SVG Export Plug-In . SVG Version: 6.00 Build 0)  -->
<svg version="1.1" id="Calque_1" xmlns="http://www.w3.org/2000/svg" xmlns:xlink="http://www.w3.org/1999/xlink" x="0px" y="0px"
	 viewBox="0 0 60 60" style="enable-background:new 0 0 60 60;" xml:space="preserve">
<g>
	<g>
		<g>
			<path d="M9.8,46.6L46.6,9.8c1-1,2.7-1,3.7,0l0,0c1,1,1,2.7,0,3.7L13.4,50.2c-1,1-2.7,1-3.7,0l0,0C8.7,49.2,8.7,47.6,9.8,46.6z"/>
		</g>
	</g>
	<g>
		<g>
			<path d="M13.4,9.8l36.8,36.8c1,1,1,2.7,0,3.7l0,0c-1,1-2.7,1-3.7,0L9.8,13.4c-1-1-1-2.7,0-3.7l0,0C10.8,8.7,12.4,8.7,13.4,9.8z"
				/>
		</g>
	</g>
</g>
</svg>
