<?xml version="1.0" encoding="utf-8"?>
<!-- Generator: Adobe Illustrator 24.0.0, SVG Export Plug-In . SVG Version: 6.00 Build 0)  -->
<svg version="1.1" id="Calque_1" xmlns="http://www.w3.org/2000/svg" xmlns:xlink="http://www.w3.org/1999/xlink" x="0px" y="0px"
	 viewBox="0 0 100 100" style="enable-background:new 0 0 100 100;" xml:space="preserve">
<style type="text/css">
	.st0{fill:#CE4500;}
</style>
<g>
	<path class="st0" d="M47.2,76.8V64c0-5.5-4.4-8.5-4.6-8.6l-6.2-3.9l-6.8-3.8c-0.2-0.1-0.5-0.2-0.7-0.3l-4.6-15.7
		c-0.7-2.4-2.9-4.1-5.4-4.1c-0.5,0-1.1,0.1-1.6,0.2c-2.6,0.8-4.3,3.2-4,5.9c-0.9,0.5-1.6,1.3-2.2,2.2c-0.7,1.3-0.9,2.9-0.5,4.3
		L14.9,58l0.1,0.6c0.2,0.8,0.4,1.5,0.7,2.2l0.1,0.4l0,0c0.9,1.9,1.9,2.8,2,2.9l8.5,6.3c2.1,1.6,2,3.1,2,3.2l0,3.2
		c-1.3,0.1-2.4,1.1-2.4,2.5v8.9c0,1.4,1.1,2.5,2.5,2.5h18.5c1.4,0,2.5-1.1,2.5-2.5v-8.9C49.5,77.9,48.5,76.9,47.2,76.8z M46.6,79.7
		v8H29v-8H46.6z M27.4,49.4l0,0.5c0.3,0.1,0.5,0.1,0.7,0.3l6.8,3.8l6.1,3.8c0,0,2.5,1.7,3.1,4.7c0.1,0.5,0.2,1,0.2,1.4v12.8H31.3
		l0-3c0-0.5,0.1-3.3-3.2-5.7l-8.3-6.1c-0.1-0.1-0.8-0.9-1.3-2.1l-0.8-2.7l-4.4-17.8c-0.2-0.7-0.1-1.4,0.2-2.1
		c0.4-0.6,0.9-1.1,1.7-1.3c0.1,0,0.1,0,0.2,0c0.2,0,0.4-0.1,0.6-0.1c1.2,0,2.3,0.8,2.6,2L22,49.5c0,0-0.1,0.1-0.1,0.1
		c0,0.1-0.1,0.2-0.1,0.2c-1.2,2.2-0.8,5,1,6.8c0.4,0.4,0.8,0.7,1.2,0.9l6.1,3.4l0.3,0.1c0.9,0.2,1.8-0.5,1.8-1.4c0-0.1,0-0.2,0-0.3
		l-0.5-0.8L25.4,55c-0.2-0.1-0.4-0.3-0.6-0.5c-0.9-0.9-1.1-2.2-0.5-3.3c0.1-0.1,0.1-0.2,0.2-0.3c0.1-0.1,0.1-0.2,0.2-0.2
		c0.5-0.6,1.3-0.9,2.1-0.9c0.1,0,0.2,0,0.3,0c0,0,0.1,0,0.1,0L27.4,49.4L27.4,49.4z M25.6,47.1c-0.2,0-0.4,0.1-0.6,0.2l-0.2,0.1
		c-0.1,0-0.2,0.1-0.3,0.1c0,0,0,0,0,0L21.4,37c-0.7-2.4-2.9-4-5.3-4.1c0.1-1.1,0.9-2,2-2.3c0.2-0.1,0.5-0.1,0.8-0.1
		c1.2,0,2.3,0.8,2.6,2l4.3,14.6C25.7,47.1,25.6,47.1,25.6,47.1z"/>
	<path class="st0" d="M88.6,35.9c-0.5-0.9-1.2-1.7-2.2-2.2c0.2-2.7-1.4-5.1-4-5.9c-0.5-0.2-1.1-0.2-1.6-0.2c-2.5,0-4.7,1.7-5.4,4.1
		l-4.6,15.7c-0.2,0.1-0.5,0.2-0.7,0.3l-6.9,3.8L57,55.4c-0.2,0.1-4.6,3-4.6,8.6v12.8c-1.3,0.1-2.3,1.1-2.3,2.5v8.9
		c0,1.4,1.1,2.5,2.5,2.5H71c1.4,0,2.5-1.1,2.5-2.5v-8.9c0-1.3-1-2.4-2.4-2.5l0-3.2c0-0.1-0.1-1.6,2.1-3.2l8.5-6.3c0,0,1-1,1.9-2.8
		l0.1-0.1l0.1-0.3c0.3-0.7,0.6-1.5,0.8-2.3l0.1-0.5L89,40.2C89.4,38.8,89.3,37.3,88.6,35.9z M72.1,49.4L72.1,49.4l0.2,0.5
		c0,0,0.1,0,0.2,0c0.1,0,0.2,0,0.3,0c0.8,0,1.5,0.3,2.1,0.9c0.1,0.1,0.1,0.1,0.2,0.2c0.1,0.1,0.1,0.2,0.2,0.3
		c0.6,1.1,0.4,2.4-0.5,3.3c-0.2,0.2-0.4,0.3-0.6,0.4l-6.5,3.6l-0.3,0.7c0,0.1,0,0.2,0,0.3c0,0.8,0.7,1.5,1.5,1.5
		c0.1,0,0.3,0,0.4-0.1l6.3-3.5c0.5-0.3,0.9-0.6,1.2-0.9c1.8-1.8,2.2-4.6,1-6.8c0-0.1-0.1-0.2-0.1-0.2c0-0.1-0.1-0.1-0.1-0.1
		c0,0,0,0,0,0l3.4-11.7c0.4-1.3,1.8-2.2,3.2-1.9c0.1,0,0.1,0,0.2,0c0.7,0.2,1.3,0.7,1.6,1.3c0.4,0.6,0.4,1.4,0.2,2.1l-4.4,17.7
		l-0.8,2.6c-0.6,1.3-1.2,2-1.3,2.1l-8.4,6.2c-3.2,2.4-3.2,5.1-3.2,5.7v3H55.3V64c0-0.5,0-1,0.1-1.4c0.6-3,3.1-4.7,3.1-4.7l6.1-3.8
		l6.8-3.8c0.2-0.1,0.5-0.2,0.7-0.3L72.1,49.4L72.1,49.4z M78.2,37l-3.1,10.4c0,0,0,0,0,0c-0.1,0-0.2-0.1-0.3-0.1
		c-0.1,0-0.1-0.1-0.2-0.1c-0.2-0.1-0.4-0.1-0.6-0.2c0,0-0.1,0-0.1,0l4.3-14.6c0.4-1.4,2-2.3,3.4-1.9c1.1,0.3,1.8,1.3,2,2.3
		C81,33,78.8,34.7,78.2,37z M72.2,49.4L72.2,49.4L72.2,49.4L72.2,49.4z M70.6,79.7v8H52.9v-8H70.6z"/>
	<path class="st0" d="M31,32.8l17.7,17.7l17.6-17.6l0,0c2.9-2.5,4.6-6.2,4.6-10c0-7.3-5.9-13.2-13.2-13.2c-3.3,0-6.6,1.3-9,3.6
		c-2.4-2.3-5.7-3.6-9-3.6c-7.3,0-13.2,5.9-13.2,13.2C26.5,26.6,28.1,30.3,31,32.8z M63.2,31.8L48.7,46.3L34.2,31.8l0.1-0.1l-1.2-1
		c-2.4-2-3.7-4.8-3.7-7.9c0-5.7,4.6-10.3,10.3-10.3c3.1,0,5.9,1.4,7.9,3.7l0.7,0.8l0.4,0.3l0,0l0.1,0.1l1-1.2c2-2.4,4.8-3.7,7.9-3.7
		c5.7,0,10.3,4.6,10.3,10.3c0,3.1-1.4,5.9-3.7,7.9l-0.8,0.7L63.2,31.8L63.2,31.8z"/>
</g>
<g>
	<path class="st0" d="M46.4,33.9L41.5,29c-0.8-0.8-0.8-2.1,0-2.8l0,0c0.8-0.8,2.1-0.8,2.8,0l4.9,4.9c0.8,0.8,0.8,2.1,0,2.8l0,0
		C48.4,34.7,47.1,34.7,46.4,33.9z"/>
	<path class="st0" d="M58.1,25.1l-8.8,8.8c-0.8,0.8-2.1,0.8-2.8,0l0,0c-0.8-0.8-0.8-2.1,0-2.8l8.8-8.8c0.8-0.8,2.1-0.8,2.8,0l0,0
		C58.8,23,58.8,24.3,58.1,25.1z"/>
</g>
</svg>
