<?xml version="1.0" encoding="utf-8"?>
<!-- Generator: Adobe Illustrator 24.0.0, SVG Export Plug-In . SVG Version: 6.00 Build 0)  -->
<svg version="1.1" id="Calque_1" xmlns="http://www.w3.org/2000/svg" xmlns:xlink="http://www.w3.org/1999/xlink" x="0px" y="0px"
	 viewBox="0 0 60 60" style="enable-background:new 0 0 60 60;" xml:space="preserve">
<style type="text/css">
	.st0{fill:#CE4500;}
</style>
<path class="st0" d="M29.6,7.5c-8.3,0-15,6.7-15,15c0,2.5,0.6,4.9,1.8,7.1L28.8,52c0.2,0.3,0.5,0.5,0.8,0.5c0.3,0,0.7-0.2,0.8-0.5
	l12.4-22.4c1.2-2.2,1.8-4.7,1.8-7.1C44.7,14.2,37.9,7.5,29.6,7.5z M29.6,30c-4.2,0-7.5-3.3-7.6-7.5c0-4.2,3.3-7.5,7.5-7.6
	c4.2,0,7.5,3.3,7.6,7.5c0,0,0,0,0,0C37.1,26.6,33.8,30,29.6,30z"/>
</svg>
