<?xml version="1.0" encoding="utf-8"?>
<!-- Generator: Adobe Illustrator 24.0.0, SVG Export Plug-In . SVG Version: 6.00 Build 0)  -->
<svg version="1.1" id="Calque_1" xmlns="http://www.w3.org/2000/svg" xmlns:xlink="http://www.w3.org/1999/xlink" x="0px" y="0px"
	 viewBox="0 0 60 60" style="enable-background:new 0 0 60 60;" xml:space="preserve">
<style type="text/css">
	.st0{fill:#CE4500;}
</style>
<g>
	<g>
		<path class="st0" d="M42.9,13.4c-8.9,0-16.1,7.2-16.1,16.1s7.2,16.1,16.1,16.1S59,38.3,59,29.5S51.8,13.4,42.9,13.4z M42.9,43.5
			c-7.7,0-14-6.3-14-14c0-7.7,6.3-14,14-14s14,6.3,14,14C57,37.2,50.7,43.5,42.9,43.5z"/>
		<path class="st0" d="M50.1,34.7L50.1,34.7l-6.2-5.2v-10h0c0-0.5-0.4-1-1-1c-0.5,0-1,0.4-1,1l0,11l6.8,5.8c0,0,0.1,0,0.1,0.1l0,0
			l0,0c0.2,0.1,0.4,0.2,0.7,0.2c0.6,0,1-0.5,1-1.1C50.6,35.2,50.4,34.9,50.1,34.7z"/>
	</g>
	<path class="st0" d="M23.7,26.7h-9.3c-0.7,0-1.2-0.5-1.2-1.2v0c0-0.7,0.5-1.2,1.2-1.2h9.3c0.7,0,1.2,0.5,1.2,1.2v0
		C24.9,26.2,24.4,26.7,23.7,26.7z"/>
	<path class="st0" d="M23.7,32.5H9.6c-0.7,0-1.2-0.5-1.2-1.2v0c0-0.7,0.5-1.2,1.2-1.2h14.2c0.7,0,1.2,0.5,1.2,1.2v0
		C24.9,31.9,24.4,32.5,23.7,32.5z"/>
	<path class="st0" d="M23.7,38.3H2.8c-0.7,0-1.2-0.5-1.2-1.2v0c0-0.7,0.5-1.2,1.2-1.2h20.9c0.7,0,1.2,0.5,1.2,1.2v0
		C24.9,37.7,24.4,38.3,23.7,38.3z"/>
</g>
</svg>
