<?xml version="1.0" encoding="utf-8"?>
<!-- Generator: Adobe Illustrator 24.0.0, SVG Export Plug-In . SVG Version: 6.00 Build 0)  -->
<svg version="1.1" id="Calque_1" xmlns="http://www.w3.org/2000/svg" xmlns:xlink="http://www.w3.org/1999/xlink" x="0px" y="0px"
	 viewBox="0 0 60 60" style="enable-background:new 0 0 60 60;" xml:space="preserve">
<style type="text/css">
	.st0{fill:#CE4500;}
</style>
<path class="st0" d="M45,35.7c-1.2-1.4-3.4-1.6-4.9-0.4c-0.1,0.1-0.3,0.2-0.4,0.4l-3.7,3.7c-0.3,0.3-0.7,0.3-1,0
	c-0.8-0.4-1.6-0.8-2.4-1.2c-3.5-2.3-6.6-5.1-9.2-8.4c-1.4-1.6-2.5-3.4-3.3-5.3c-0.2-0.3-0.2-0.7,0-1l3.6-3.6
	c1.5-1.2,1.7-3.4,0.5-4.9c-0.1-0.2-0.3-0.3-0.5-0.5l-2.9-2.9l-3-3c-1.3-1.5-3.6-1.6-5.1-0.2c-0.1,0.1-0.2,0.2-0.2,0.2
	c-1.2,1.2-2.4,2.5-3.7,3.7c-1.1,1-1.8,2.4-1.9,3.9c-0.1,2.5,0.4,5,1.3,7.4c1.8,4.8,4.5,9.3,7.8,13.2c4.6,5.4,10.2,9.8,16.6,12.9
	c2.8,1.5,5.9,2.4,9,2.6c2.1,0.2,4.2-0.6,5.6-2.2c1-1.2,2.3-2.3,3.4-3.4c1.5-1.3,1.6-3.5,0.4-4.9c-0.1-0.1-0.3-0.3-0.4-0.4
	C48.9,39.7,46.9,37.7,45,35.7z"/>
</svg>
