<?xml version="1.0" encoding="utf-8"?>
<!-- Generator: Adobe Illustrator 24.0.0, SVG Export Plug-In . SVG Version: 6.00 Build 0)  -->
<svg version="1.1" id="Calque_1" xmlns="http://www.w3.org/2000/svg" xmlns:xlink="http://www.w3.org/1999/xlink" x="0px" y="0px"
	 viewBox="0 0 60 60" style="enable-background:new 0 0 60 60;" xml:space="preserve">
<style type="text/css">
	.st0{fill:#CE4500;}
</style>
<g>
	<g>
		<path class="st0" d="M55.9,25.8l2.1,2c-1,1.2-2.3,2-3.7,2.6c-1.5,0.6-3.1,0.9-4.9,0.9c-1.9,0-3.6-0.3-5.2-1
			c-1.6-0.7-2.9-1.7-4-2.9s-1.9-2.7-2.3-4.4h-3.7v-1.8h3.3c0-0.6-0.1-1-0.1-1.3s0-0.8,0.1-1.3h-3.3v-1.8h3.7
			c0.5-1.7,1.2-3.1,2.3-4.4s2.4-2.2,4-2.9c1.6-0.7,3.3-1,5.2-1c1.8,0,3.4,0.3,4.9,0.9c1.5,0.6,2.7,1.5,3.7,2.6l-2.1,2
			c-1.7-1.8-3.8-2.7-6.4-2.7c-2,0-3.7,0.5-5.2,1.5c-1.5,1-2.5,2.4-3.1,4h10.2v1.8H40.8c-0.1,0.4-0.1,0.8-0.1,1.3
			c0,0.5,0,0.9,0.1,1.3h10.7v1.8H41.3c0.6,1.7,1.6,3,3.1,4c1.5,1,3.2,1.5,5.2,1.5C52.1,28.5,54.2,27.6,55.9,25.8z"/>
	</g>
	<path class="st0" d="M46,49.9c0.8-0.4,1.4-1,1.7-1.8c2,0.3,4-0.9,4.6-2.9c0.1-0.4,0.2-0.8,0.2-1.2c0-1.8-1.2-3.5-3-4l-12.8-3.8
		c-0.1-0.2-0.2-0.5-0.3-0.7L33.3,30l-3.1-4.9c-0.1-0.1-2.3-3.5-6.6-3.5H12.9v-0.3c0-0.9-0.7-1.6-1.6-1.6H4.2c-0.9,0-1.6,0.7-1.6,1.6
		v14.9c0,0.9,0.7,1.6,1.6,1.6h7.2c0.9,0,1.6-0.7,1.6-1.6v-0.3l2.9,0l0,0c0,0,1.5-0.1,2.9,1.8l5.1,6.8l0,0c0,0,0.8,0.8,2.2,1.5l0,0
		l0.2,0c0.6,0.2,1.1,0.4,1.7,0.6l0.5,0.1l14.4,3.6C43.9,50.6,45.1,50.5,46,49.9z M15.7,34.3h-2.8V23.1h10.7c0.4,0,0.8,0,1.2,0.1
		c2.6,0.6,4,2.7,4,2.7l3.1,4.9l3,5.5c0.1,0.2,0.2,0.5,0.3,0.7l0,0c0,0,0,0,0,0.1c0,0,0,0.1,0,0.2c0,0.1,0,0.2,0,0.3
		c0,0.8-0.3,1.5-0.9,2c-0.1,0.1-0.1,0.1-0.2,0.2c-0.1,0.1-0.2,0.1-0.2,0.2c-1,0.6-2.3,0.4-3.1-0.4c-0.2-0.2-0.3-0.4-0.4-0.6
		l-2.8-5.1l-0.4-0.2c-0.1,0-0.1,0-0.2,0c-0.4,0-0.8,0.3-0.8,0.8c0,0.1,0,0.1,0,0.2l0.1,0.3l2.7,4.8c0.2,0.3,0.4,0.6,0.7,0.9
		c1.3,1.3,3.4,1.6,5,0.7c0.1,0,0.1-0.1,0.1-0.1c0,0,0.1,0,0.1-0.1c0.1,0,0.1-0.1,0.1-0.1l9.6,2.8c1.1,0.3,1.9,1.4,1.9,2.5
		c0,0.2,0,0.4-0.1,0.5c0,0.1,0,0.1,0,0.2c-0.2,0.7-0.6,1.2-1.3,1.6c-0.6,0.3-1.3,0.4-2,0.2L29,45.3l-2.2-0.6
		c-1.1-0.5-1.7-1.1-1.8-1.2l-5-6.7C18.2,34.2,16.2,34.2,15.7,34.3z M48.2,46.6c0-0.1,0-0.2,0-0.3c0-1.8-1.2-3.5-3-4l-8.9-2.6
		c0,0,0,0,0,0c0-0.1,0.1-0.1,0.1-0.2c0-0.1,0.1-0.1,0.1-0.2c0-0.1,0.1-0.1,0.1-0.2c0-0.1,0-0.1,0.1-0.2c0.1-0.2,0.1-0.3,0.1-0.5
		c0-0.1,0.1-0.3,0.1-0.4c0,0,0-0.1,0-0.1l12.2,3.6c1.1,0.3,1.9,1.4,1.9,2.5c0,0.2,0,0.5-0.1,0.7C50.5,45.9,49.4,46.7,48.2,46.6z
		 M11.3,21.2v14.9c0,0,0,0,0,0H4.2c0,0,0,0,0,0V21.2c0,0,0,0,0,0L11.3,21.2C11.3,21.2,11.3,21.2,11.3,21.2z"/>
</g>
</svg>
