<?xml version="1.0" encoding="utf-8"?>
<!-- Generator: Adobe Illustrator 24.0.0, SVG Export Plug-In . SVG Version: 6.00 Build 0)  -->
<svg version="1.1" id="Calque_1" xmlns="http://www.w3.org/2000/svg" xmlns:xlink="http://www.w3.org/1999/xlink" x="0px" y="0px"
	 viewBox="0 0 60 60" style="enable-background:new 0 0 60 60;" xml:space="preserve">
<style type="text/css">
	.st0{fill:#CE4500;}
</style>
<g>
	<path class="st0" d="M36.9,21.4H11.5c-0.6,0-1.1-0.5-1.1-1.1v0c0-0.6,0.5-1.1,1.1-1.1h25.4c0.6,0,1.1,0.5,1.1,1.1v0
		C38,20.9,37.5,21.4,36.9,21.4z"/>
	<path class="st0" d="M39.6,29H11.5c-0.6,0-1.1-0.5-1.1-1.1v0c0-0.6,0.5-1.1,1.1-1.1h28.1c0.6,0,1.1,0.5,1.1,1.1v0
		C40.7,28.5,40.2,29,39.6,29z"/>
	<g>
		<path class="st0" d="M51.9,12H8.1C6.4,12,5,13.4,5,15.2v25.6C5,42.5,6.4,44,8.1,44H43l-0.6,8l5-3.4l5,3.4l-0.6-8h0
			c1.7,0,3.1-1.4,3.1-3.1V15.2C55,13.4,53.6,12,51.9,12z M47.4,46.5l-3,2l0.3-4.5l0.1-1.8l0.1-1.5c0.7,0.4,1.5,0.6,2.4,0.6
			c0.9,0,1.7-0.2,2.4-0.6l0.1,1.5l0.1,1.8l0.3,4.5L47.4,46.5z M50.2,37.7c-0.2,0.3-0.4,0.6-0.6,0.9c-0.6,0.6-1.3,0.9-2.2,0.9
			s-1.6-0.3-2.2-0.9c-0.3-0.3-0.5-0.6-0.6-0.9c-0.2-0.4-0.3-0.9-0.3-1.3c0-1.7,1.4-3.1,3.1-3.1c1.7,0,3.1,1.4,3.1,3.1
			C50.5,36.9,50.4,37.3,50.2,37.7z M53.2,40.8c0,0.8-0.6,1.4-1.4,1.4h-0.2l-0.2-3.1c0.5-0.8,0.8-1.7,0.8-2.7c0-2.7-2.2-4.9-4.9-4.9
			s-4.9,2.2-4.9,4.9c0,1,0.3,2,0.8,2.7l-0.2,3.1h-35c-0.8,0-1.4-0.6-1.4-1.4V15.2c0-0.7,0.6-1.4,1.4-1.4h43.7c0.8,0,1.4,0.6,1.4,1.4
			V40.8z"/>
	</g>
</g>
</svg>
