<?xml version="1.0" encoding="utf-8"?>
<!-- Generator: Adobe Illustrator 24.0.0, SVG Export Plug-In . SVG Version: 6.00 Build 0)  -->
<svg version="1.1" id="Calque_1" xmlns="http://www.w3.org/2000/svg" xmlns:xlink="http://www.w3.org/1999/xlink" x="0px" y="0px"
	 viewBox="0 0 60 60" style="enable-background:new 0 0 60 60;" xml:space="preserve">
<style type="text/css">
	.st0{fill:#CE4500;}
</style>
<path class="st0" d="M39.9,41.7c-0.9,0-1.8-0.1-2.6-0.4c-0.8-0.2-1.4-0.7-2-1.3c-0.7,0.5-1.6,0.9-2.5,1.1c-0.9,0.3-1.9,0.4-2.9,0.4
	c-1.4,0-2.9-0.2-4.2-0.7c-1.2-0.5-2.3-1.2-3.2-2.1c-1-1-1.7-2.2-2.1-3.5c-0.5-1.6-0.8-3.2-0.8-4.9c0-1.5,0.3-3,0.8-4.4
	c0.5-1.3,1.2-2.5,2.2-3.6c1-1,2.2-1.9,3.5-2.4c1.5-0.6,3.2-0.9,4.8-0.9c1.6,0,3.1,0.1,4.7,0.4c1.1,0.2,2.2,0.5,3.2,0.9V35
	c-0.1,0.7,0.1,1.3,0.5,1.8c0.4,0.3,0.9,0.5,1.4,0.5c1.5-0.1,2.8-1.1,3.2-2.5c0.9-2.3,1.3-4.8,1.2-7.3c0-1.9-0.3-3.7-1-5.5
	c-0.7-1.7-1.7-3.1-2.9-4.4c-1.4-1.3-3-2.3-4.7-2.9c-4-1.5-8.4-1.5-12.5,0c-1.8,0.7-3.5,1.8-4.9,3.2c-1.4,1.5-2.5,3.3-3.2,5.2
	c-0.8,2.2-1.2,4.6-1.1,7c0,2.4,0.3,4.8,1.2,7.1c0.7,1.9,1.8,3.7,3.2,5.1c1.5,1.4,3.3,2.4,5.2,3.1c2.2,0.7,4.4,1.1,6.7,1
	c1.5,0,3-0.1,4.5-0.3c1.3-0.2,2.3-0.4,3-0.5l0.5,4L37.6,50l-1.9,0.4l-2.3,0.3c-0.8,0-1.7,0-2.5,0c-2.8,0-5.6-0.4-8.3-1.2
	c-2.5-0.7-4.8-2-6.7-3.7c-2-1.8-3.5-4-4.6-6.5c-1.2-2.9-1.7-6.1-1.7-9.3c-0.1-3.1,0.5-6.2,1.7-9.1c1-2.4,2.6-4.7,4.5-6.5
	c1.9-1.7,4.1-3,6.5-3.9c2.4-0.9,5-1.3,7.6-1.3c2.6,0,5.2,0.4,7.7,1.3c2.3,0.8,4.4,2,6.2,3.6c1.8,1.6,3.2,3.6,4.2,5.8
	c1.1,2.4,1.6,5.1,1.5,7.8c0,2-0.2,4-0.7,5.9c-0.4,1.6-1.1,3-2.1,4.3c-0.9,1.1-2,2-3.2,2.7C42.5,41.1,41.2,41.6,39.9,41.7z
	 M33.8,36.5c-0.1-0.4-0.1-0.8-0.2-1.2c0-0.4,0-0.8,0-1.3V23.7c-0.8-0.2-1.6-0.2-2.5-0.2c-1,0-1.9,0.1-2.8,0.5
	c-0.7,0.3-1.4,0.8-1.9,1.4c-0.5,0.6-0.9,1.4-1.1,2.2c-0.2,0.9-0.4,1.8-0.4,2.7c-0.1,1.7,0.4,3.4,1.3,4.9c0.9,1.3,2.4,2.1,4,1.9
	c0.6,0,1.2,0,1.8,0C32.6,37,33.2,36.8,33.8,36.5z"/>
</svg>
