<?xml version="1.0" encoding="utf-8"?>
<!-- Generator: Adobe Illustrator 24.0.0, SVG Export Plug-In . SVG Version: 6.00 Build 0)  -->
<svg version="1.1" id="Calque_1" xmlns="http://www.w3.org/2000/svg" xmlns:xlink="http://www.w3.org/1999/xlink" x="0px" y="0px"
	 viewBox="0 0 60 60" style="enable-background:new 0 0 60 60;" xml:space="preserve">
<style type="text/css">
	.st0{fill:#CE4500;}
</style>
<path class="st0" d="M47.7,25.7c-0.1-0.4-0.4-0.6-0.8-0.7L36,23.4l-4.9-9.8c-0.2-0.5-0.8-0.7-1.3-0.5c-0.2,0.1-0.4,0.3-0.5,0.5
	l-4.9,9.8l-10.8,1.6c-0.4,0.1-0.7,0.3-0.9,0.7c-0.1,0.4,0,0.8,0.3,1.1l7.8,7.7L19,45.4c-0.1,0.4,0.1,0.8,0.4,1
	c0.2,0.1,0.4,0.2,0.6,0.2c0.2,0,0.3,0,0.5,0l9.7-5.1l9.7,5.1c0.3,0.2,0.7,0.2,1.1,0c0.3-0.2,0.5-0.6,0.4-1l-1.9-11l7.9-7.7
	C47.8,26.6,47.9,26.1,47.7,25.7z"/>
</svg>
