<?xml version="1.0" encoding="utf-8"?>
<!-- Generator: Adobe Illustrator 24.0.1, SVG Export Plug-In . SVG Version: 6.00 Build 0)  -->
<svg version="1.1" id="Calque_1" xmlns="http://www.w3.org/2000/svg" xmlns:xlink="http://www.w3.org/1999/xlink" x="0px" y="0px"
	 viewBox="0 0 800 800" style="enable-background:new 0 0 800 800;" xml:space="preserve">
<style type="text/css">
	.st0{opacity:5.000000e-02;enable-background:new    ;}
	.st1{opacity:0.1;fill:#CE4500;enable-background:new    ;}
	.st2{fill:#CE4500;}
	.st3{fill:#111111;}
	.st4{fill:#9B9B9B;}
	.st5{fill:#8B8E8E;}
	.st6{fill:#4F5151;}
	.st7{fill:#434444;}
	.st8{fill:#B6B7B7;}
	.st9{opacity:0.59;}
	.st10{fill:#FFFFFF;}
	.st11{fill:#6AB3BF;}
	.st12{fill:#80DBE5;}
	.st13{fill:#3E3F3F;}
	.st14{opacity:0.56;}
	.st15{fill:#C9C9C9;}
	.st16{fill:#767777;}
	.st17{opacity:0.28;}
	.st18{opacity:0.47;}
</style>
<g>
	<ellipse class="st0" cx="400.5" cy="552.2" rx="388.5" ry="174.8"/>
	<g>
		<g>
			<path class="st1" d="M733.2,123.6l-75.9,4.1c-3.6,0-6.6-2.8-6.6-6.4c0-3.6,2.6-6.4,5.9-6.6l13-0.8c-3.6,0.3-6.6-2.6-6.9-6.1
				c-0.3-3.6,2.6-6.6,6.1-6.9l-9.5,0.5c-3.6,0-6.6-2.8-6.6-6.4c0-3.6,2.6-6.4,5.9-6.6l39.6-2c-9-3.6-19.4-5.9-31.5-6.9
				C558.1,71.1,520,82.4,506.9,92.6c-16.1,12.5-34.5,22-54.2,27.4c-66,17.1-189.5,40.4-304.3,10.7c-57-14.8-97.2,17.4-119.4,68.5
				l718.8-37.8c-1.8-14.6-5.1-27.6-11-39.1C736.3,122.8,734.8,123.6,733.2,123.6z"/>
			<path class="st1" d="M8.8,294.4c-1.3,29.4,1.3,59.1,7.7,88l667.2-10.7c17.4-22.2,31.7-46.8,42.4-72.9L8.8,294.4z M275.5,343.2
				l-13,0.8c3.6-0.3,6.9,2.3,7.2,5.9c0.3,3.6-2.3,6.9-5.9,7.2c-0.3,0-0.3,0-0.5,0l-75.9,4.1c-3.6,0-6.6-2.8-6.6-6.4
				c0-3.6,2.6-6.4,5.9-6.6l13-0.8c-3.6,0.3-6.6-2.6-6.9-6.1c-0.3-3.6,2.6-6.6,6.1-6.9l-9.5,0.5c-3.6,0-6.6-2.8-6.6-6.4
				c0-3.6,2.6-6.4,5.9-6.6l75.9-4.1c3.6,0,6.6,2.8,6.6,6.4c0,3.6-2.6,6.4-5.9,6.6l9.5-0.5c3.6-0.3,6.6,2.6,6.9,6.1
				C281.9,340.2,279.1,343.2,275.5,343.2L275.5,343.2z"/>
			<path class="st1" d="M748.3,161.4l-726,56c-7.7,23.3-12,49.1-13.6,75.9l731.6-38.6c3.8-15.9,6.6-32,7.9-48.3
				C749.8,190.6,750.1,175.5,748.3,161.4z M154.5,250.9l-13,0.8c3.6-0.3,6.9,2.3,7.2,5.9c0.3,3.6-2.3,6.9-5.9,7.2
				c-0.3,0-0.3,0-0.5,0l-75.9,4.1c-3.6,0-6.6-2.8-6.6-6.4s2.6-6.4,5.9-6.6l13-0.8c-3.6,0.3-6.6-2.6-6.9-6.1s2.6-6.6,6.1-6.9
				l-9.5,0.5c-3.6,0-6.6-2.8-6.6-6.4s2.6-6.4,5.9-6.6l75.9-4.1c3.6,0,6.6,2.8,6.6,6.4s-2.6,6.4-5.9,6.6l9.5-0.5
				c3.6-0.3,6.6,2.6,6.9,6.1C160.9,247.6,158.4,250.6,154.5,250.9z"/>
		</g>
	</g>
	<path class="st2" d="M717.5,261.3c0,41.1-33.3,74.5-74.4,74.5s-74.6-33.3-74.6-74.5l0,0c0-41.1,33.3-138.7,74.5-138.7"/>
	<path class="st2" d="M643,122.6c41.1,0,74.5,97.6,74.5,138.7"/>
	<path class="st3" d="M642.2,440.7V173.2c0-0.5,0.4-0.9,0.9-0.9s0.9,0.4,0.9,0.9v267.4"/>
	<path class="st3" d="M643.1,291.5c-0.5,0-0.9-0.4-0.9-0.9c0-0.2,0.1-0.5,0.2-0.6l37.8-39.7c0.3-0.4,0.9-0.4,1.3,0
		c0.4,0.3,0.4,0.9,0,1.3l0,0l-37.8,39.6C643.5,291.4,643.3,291.5,643.1,291.5z"/>
	<path class="st3" d="M643.1,224.4c-0.2,0-0.4-0.1-0.6-0.2l-32.7-29.9c-0.4-0.3-0.4-0.9-0.1-1.3c0.3-0.4,0.9-0.4,1.3-0.1l32.7,29.9
		c0.4,0.3,0.4,0.9,0.1,1.3C643.5,224.3,643.3,224.4,643.1,224.4L643.1,224.4z"/>
	<g>
		<path class="st2" d="M216.5,294.7c0,63.2-37.6,85.3-83.9,85.3s-83.9-22-83.9-85.3s83.9-143.6,83.9-143.6S216.5,231.4,216.5,294.7z
			"/>
		<polygon class="st3" points="129.5,370.3 130.4,317.4 166.1,251.9 130.5,309.1 130.9,285.3 155.5,237.9 131,279 131,279 
			131.7,236.2 158.1,198.5 131.8,229.5 132.2,151.1 129.5,254.9 129.7,250.6 102.9,209.5 129.3,258.8 126.8,306.6 126.7,305.3 
			95.8,262.1 126.6,309.8 126.3,315.8 126.2,315.9 126.3,316.4 120,437.6 128.4,437.6 129.4,374.9 160.2,327.4 		"/>
	</g>
	<ellipse class="st4" cx="276.5" cy="438.1" rx="117.9" ry="6.6"/>
	<ellipse class="st4" cx="565.7" cy="528.2" rx="157.3" ry="8.8"/>
	<ellipse class="st4" cx="275.2" cy="652.5" rx="173.5" ry="9.7"/>
	<g>
		<g>
			<g>
				<path class="st5" d="M673.8,471.3l-6.1-11.7l1.6-0.8l5.3,10.2l4.1-11.1l1.7,0.6l-4.7,12.6l5.7,11l-12.6,2.3L673.8,471.3z
					 M674.9,473.4l-3.3,8.7l7.1-1.3L674.9,473.4z"/>
			</g>
			<g>
				<path class="st5" d="M675,509.3l-5.2,10.6l-1.6-0.8l5.9-12.1l-4.6-11.5l12.7-1l-6.2,12.6l4.9,12.2l-1.7,0.7L675,509.3z
					 M672,497.1l3.1,7.8l4.1-8.4L672,497.1z"/>
			</g>
			<g>
				<path class="st5" d="M680,482.9l13.2,4.9l11.7-6.1l0.8,1.6l-10.2,5.3l11.1,4.1l-0.6,1.7l-12.6-4.7l-11,5.7L680,482.9z
					 M682.3,485.7l1.3,7.1l7.5-3.9L682.3,485.7z"/>
			</g>
			<g>
				<path class="st5" d="M657.3,489.5l-12.6,3.9l-0.5-1.7l11-3.4l-10.2-6l0.9-1.5l11.6,6.9l11.9-3.7v12.8L657.3,489.5z M659.6,488.8
					l8,4.8v-7.2L659.6,488.8z"/>
			</g>
			<g>
				<path class="st5" d="M674.5,481l12.9-5.6l4.2-12.4l1.7,0.6l-3.7,10.9l10.9-4.7l0.7,1.6l-12.3,5.3l-4,11.8L674.5,481z
					 M678.1,481.4l5.9,4.2l2.7-7.9L678.1,481.4z"/>
			</g>
			<g>
				<path class="st5" d="M654.7,512.1l5.6-10.1l-11.5,2.7l-0.4-1.7l13.1-3l6-10.9l8.8,9.2l-13.7,3.2l-6.4,11.5L654.7,512.1z
					 M667.9,492.1l-4.1,7.3l9.1-2.1L667.9,492.1z"/>
			</g>
			<g>
				<path class="st5" d="M687.8,502.5l-11.8-4l7.5-10.3l5.6,12.9l12.4,4.2L701,507l-10.9-3.7l4.7,10.9l-1.6,0.7L687.8,502.5z
					 M678.9,497.6l7.9,2.7l-3.7-8.6L678.9,497.6z"/>
			</g>
			<g>
				<path class="st5" d="M663,476.3l-11.5-6.4l0.9-1.6l10.1,5.6l-2.7-11.5l1.7-0.4l3,13.1l10.9,6l-9.2,8.8L663,476.3z M665.2,477.5
					l2.1,9.1l5.2-5L665.2,477.5z"/>
			</g>
			<g>
				<path class="st5" d="M641.7,489.2c0-18.6,15.1-33.7,33.7-33.7c18.6,0,33.7,15.1,33.7,33.7c0,18.6-15.1,33.7-33.7,33.7
					C656.8,522.9,641.7,507.7,641.7,489.2z M645.5,489.2c0,16.4,13.4,29.8,29.8,29.8c16.4,0,29.8-13.4,29.8-29.8
					c0-16.4-13.4-29.8-29.8-29.8C658.9,459.4,645.5,472.7,645.5,489.2z"/>
			</g>
			<g>
				<path class="st5" d="M663.3,489.2c0,6.6,5.4,12,12,12c6.6,0,12-5.4,12-12s-5.4-12-12-12C668.7,477.2,663.3,482.6,663.3,489.2z"
					/>
			</g>
			<g>
				<path class="st6" d="M633.8,489.2c0,22.9,18.6,41.5,41.5,41.5c22.9,0,41.5-18.6,41.5-41.5c0-22.9-18.6-41.5-41.5-41.5
					C652.4,447.6,633.8,466.2,633.8,489.2z M643.6,489.2c0-17.5,14.2-31.7,31.7-31.7c17.5,0,31.7,14.2,31.7,31.7
					s-14.2,31.7-31.7,31.7C657.8,520.9,643.6,506.7,643.6,489.2z"/>
			</g>
			<g>
				<g>
					<path class="st7" d="M707.1,489.2c0-17.5-14.2-31.7-31.7-31.7c-9.9,0-18.7,4.5-24.5,11.5c5.7-8.2,15.3-13.6,26.1-13.6
						c17.5,0,31.7,14.2,31.7,31.7c0,7.7-2.7,14.7-7.3,20.2C705,502.2,707.1,495.9,707.1,489.2z"/>
				</g>
				<g>
					<path class="st7" d="M643,463.1c-4.8,6.8-7.6,15.1-7.6,24c0,22.9,18.6,41.5,41.5,41.5c13.1,0,24.7-6,32.3-15.5
						c-7.5,10.6-19.9,17.6-33.9,17.6c-22.9,0-41.5-18.6-41.5-41.5C633.8,479.3,637.2,470.2,643,463.1z"/>
				</g>
			</g>
			<g>
				<path class="st8" d="M667.1,489.2c0,4.5,3.7,8.2,8.2,8.2c4.5,0,8.2-3.7,8.2-8.2c0-4.5-3.7-8.2-8.2-8.2
					C670.8,481,667.1,484.7,667.1,489.2z"/>
			</g>
		</g>
		<g>
			<path class="st5" d="M676.9,483.3c0,0-88.1-28.1-88.1-28s-4.7,11.9-4.7,11.9l89.8,25.2c0,0,1.8,0.4,6.1-2.5
				C684.4,487.1,676.9,483.3,676.9,483.3z"/>
		</g>
		<g>
			<path class="st8" d="M567.8,436.5c-1-0.3-2.5-0.2-2.6,0.9c0,0.5,0.3,0.9,0.7,1.2c1.1,1,2.6,1.4,4,1.8c3.4,1.1,6.8,2.5,9.9,4.2
				c0.6,0.3,1.3,0.8,1.5,1.4c0.2,0.8-0.3,1.6-1.1,2c-0.7,0.4-1.6,0.3-2.4,0.2c-4.4-0.5-8.3-2.7-12.5-4.2c-0.9-0.3-1.9-0.6-2.6,0.1
				c-0.6,0.6-0.4,1.6,0.1,2.2c0.5,0.6,1.3,0.9,2.1,1.2c3.3,1.3,6.5,2.5,9.8,3.8c3,1.2,6.4,2.3,9.3,0.9c4.6-2.3,3.8-8.8-0.5-10.8
				C578.7,439.3,572.9,437.8,567.8,436.5z"/>
		</g>
		<g>
			<path class="st8" d="M568.9,432c0.7,2,0.1,4.2-0.5,6.3c-1.6,5.3-3.5,10.5-5.6,15.6c2.8,0.7,6.1,2,6.5,4.9
				c0.1,0.9-0.1,1.8-0.3,2.7c-1,4.1-2.1,8.2-3.1,12.3c-0.1,0.5-0.3,1.1-0.7,1.4c-0.4,0.4-1,0.4-1.6,0.5c-7.4,0.4-14.9-0.5-22.1-2.5
				c-1.8-0.5-3.9-1.4-4.3-3.2c-0.4-1.9,1-4.1-0.3-5.5c-1-1.1-3.1-0.6-4.1-1.8c-0.4-0.5-0.6-1.2-0.6-1.9c-0.7-5.2-1.1-10.5-1.2-15.7
				c0-2.1,0-4.3,0.6-6.4c1-3.5,3.8-6.3,7-8.1c3.2-1.7,6.9-2.5,10.5-2.8C553.2,427.5,566.9,426.6,568.9,432z"/>
		</g>
		<g>
			<path class="st8" d="M618.1,453.3c-0.6,2.1-1.9,3.9-3.1,5.7c-4.3,6.2-8.5,12.3-12.8,18.5c-1,1.4-2.1,2.9-3.6,3.7
				c-1.3,0.6-2.8,0.7-4.2,0.6c-6.9-0.1-13.7-1.4-20.1-3.8c-0.5-0.2-0.9-0.4-1.2-0.8c-0.3-0.4-0.2-0.9-0.2-1.4
				c0.5-13.6,2.9-27.1,7.2-40.1c0.4-1.2,0.8-2.4,1.7-3.4c1.2-1.2,2.9-1.7,4.6-1.7c3.5,0,6.8,1.7,9.9,3.3c5.5,2.9,11.6,5.5,16.8,9
				C616.4,445.1,619.5,449,618.1,453.3z"/>
		</g>
		<g>
			<path class="st5" d="M676.7,411.3c0.2,0.9,0.4,1.9,1.2,2.3c0.4,0.2,0.9,0.2,1.3,0.2c2.3-0.1,4.6,0,6.9,0.3
				c0.9,0.1,4.5,9.3,4.2,9.6c-17,14.7-59.9,34.5-60.5,34.4c-9.5-2.6-14.2-6.2-23.2-10.4c-2.1-1-1.5-1.2-3.2-2.9
				c-1.6-1.6-2.2-4.1-2-6.4c0.3-2.3,1.3-4.4,2.5-6.4c3.5-5.7,8.6-10.3,14.2-13.8c5.7-3.5,11.9-6.1,18.1-8.3c7.7-2.8,15.8-5.2,24-5.7
				C666.2,403.8,674.9,404.3,676.7,411.3z"/>
		</g>
		<g>
			<path class="st3" d="M531.7,447.6c0,0-18.3-25.9-44.4-33.9c-26.1-8-61.3,9.8-61.3,9.8l-3.4-3.3c0,0,22.9-27.6,58.4-22.3
				c46.5,7,59.5,38.3,59.5,38.3L531.7,447.6z"/>
		</g>
		<g>
			<g>
				<path class="st5" d="M447.8,471.3l-6.1-11.7l1.6-0.8l5.3,10.2l4.1-11.1l1.7,0.6l-4.7,12.6l5.7,11l-12.6,2.3L447.8,471.3z
					 M448.9,473.4l-3.3,8.7l7.1-1.3L448.9,473.4z"/>
			</g>
			<g>
				<path class="st5" d="M449,509.3l-5.2,10.6l-1.6-0.8l5.9-12.1l-4.6-11.5l12.7-1l-6.2,12.6l4.9,12.2l-1.7,0.7L449,509.3z
					 M446.1,497.1l3.1,7.8l4.1-8.4L446.1,497.1z"/>
			</g>
			<g>
				<path class="st5" d="M454,482.9l13.2,4.9l11.7-6.1l0.8,1.6l-10.2,5.3l11.1,4.1l-0.6,1.7l-12.6-4.7l-11,5.7L454,482.9z
					 M456.4,485.7l1.3,7.1l7.5-3.9L456.4,485.7z"/>
			</g>
			<g>
				<path class="st5" d="M431.3,489.5l-12.6,3.9l-0.5-1.7l11-3.4l-10.2-6l0.9-1.5l11.6,6.9l11.9-3.7v12.8L431.3,489.5z M433.6,488.8
					l8,4.8v-7.2L433.6,488.8z"/>
			</g>
			<g>
				<path class="st5" d="M448.6,481l12.9-5.6l4.2-12.4l1.7,0.6l-3.7,10.9l10.9-4.7l0.7,1.6l-12.3,5.3l-4,11.8L448.6,481z
					 M452.1,481.4l5.9,4.2l2.7-7.9L452.1,481.4z"/>
			</g>
			<g>
				<path class="st5" d="M428.8,512.1l5.6-10.1l-11.5,2.7l-0.4-1.7l13.1-3l6-10.9l8.8,9.2l-13.7,3.2l-6.4,11.5L428.8,512.1z
					 M442,492.1l-4.1,7.3l9.1-2.1L442,492.1z"/>
			</g>
			<g>
				<path class="st5" d="M461.9,502.5l-11.8-4l7.5-10.3l5.6,12.9l12.4,4.2l-0.6,1.7l-10.9-3.7l4.7,10.9l-1.6,0.7L461.9,502.5z
					 M453,497.6l7.9,2.7l-3.7-8.6L453,497.6z"/>
			</g>
			<g>
				<path class="st5" d="M437.1,476.3l-11.5-6.4l0.9-1.6l10.1,5.6l-2.7-11.5l1.7-0.4l3,13.1l10.9,6l-9.2,8.8L437.1,476.3z
					 M439.2,477.5l2.1,9.1l5.2-5L439.2,477.5z"/>
			</g>
			<g>
				<path class="st5" d="M415.7,489.2c0-18.6,15.1-33.7,33.7-33.7c18.6,0,33.7,15.1,33.7,33.7c0,18.6-15.1,33.7-33.7,33.7
					C430.8,522.9,415.7,507.7,415.7,489.2z M419.6,489.2c0,16.4,13.4,29.8,29.8,29.8c16.4,0,29.8-13.4,29.8-29.8
					c0-16.4-13.4-29.8-29.8-29.8C432.9,459.4,419.6,472.7,419.6,489.2z"/>
			</g>
			<g>
				<path class="st5" d="M437.4,489.2c0,6.6,5.4,12,12,12c6.6,0,12-5.4,12-12s-5.4-12-12-12C442.8,477.2,437.4,482.6,437.4,489.2z"
					/>
			</g>
			<g>
				<path class="st6" d="M407.8,489.2c0,22.9,18.6,41.5,41.5,41.5c22.9,0,41.5-18.6,41.5-41.5c0-22.9-18.6-41.5-41.5-41.5
					C426.4,447.6,407.8,466.2,407.8,489.2z M417.6,489.2c0-17.5,14.2-31.7,31.7-31.7c17.5,0,31.7,14.2,31.7,31.7
					s-14.2,31.7-31.7,31.7C431.9,520.9,417.6,506.7,417.6,489.2z"/>
			</g>
			<g>
				<g>
					<path class="st7" d="M481.1,489.2c0-17.5-14.2-31.7-31.7-31.7c-9.9,0-18.7,4.5-24.5,11.5c5.7-8.2,15.3-13.6,26.1-13.6
						c17.5,0,31.7,14.2,31.7,31.7c0,7.7-2.7,14.7-7.3,20.2C479,502.2,481.1,495.9,481.1,489.2z"/>
				</g>
				<g>
					<path class="st7" d="M417,463.1c-4.8,6.8-7.6,15.1-7.6,24c0,22.9,18.6,41.5,41.5,41.5c13.1,0,24.7-6,32.3-15.5
						c-7.5,10.6-19.9,17.6-33.9,17.6c-22.9,0-41.5-18.6-41.5-41.5C407.8,479.3,411.3,470.2,417,463.1z"/>
				</g>
			</g>
			<g>
				<path class="st8" d="M441.2,489.2c0,4.5,3.7,8.2,8.2,8.2c4.5,0,8.2-3.7,8.2-8.2c0-4.5-3.7-8.2-8.2-8.2
					C444.9,481,441.2,484.7,441.2,489.2z"/>
			</g>
		</g>
		<g>
			<path class="st7" d="M478.3,443.8l-25.5,47.2c0,0-1.9,2.1-4.7,1.4c-2.8-0.7-2.5-4.9-2.5-4.9l23.8-49L478.3,443.8z"/>
		</g>
		<g>
			<path class="st8" d="M478.3,443.8c0.9-0.6,31.7-61.4,31.7-61.4l-9.1-3.4l-32.5,61.4L478.3,443.8z"/>
		</g>
		<g>
			<path class="st3" d="M502.8,396.6l2.9-5.7l94.4,28.9c0,0,37.8-13.5,61.5-18.5c23.7-5,52.8,1.1,52.8,1.1s0.1,4.1-13.6,3.8
				c-17.3-0.5-22.9,1.8-44.3,12c-32.8,15.6-44.9,31.8-44.9,31.8L502.8,396.6z"/>
		</g>
		<g>
			<path class="st7" d="M661.6,401.4c0,0-58.9,29.8-66,29.2c-7.1-0.6-90.5-38.1-90.5-38.1l1.3-2.9c0,0,50.7,19.9,82.8,21.8
				C624.1,413.4,661.6,401.4,661.6,401.4z"/>
		</g>
		<g>
			<path class="st7" d="M580.9,435c0,0-14.2-7.3-30.9,0c-14.5,6.3-18.9,18.9-18.9,18.9s-2.5-10.1-18.9-24.2
				c-13.6-11.6-19.2-13.9-19.2-13.9l9.8-19.2L580.9,435z"/>
		</g>
		<g>
			<path class="st8" d="M680.7,422.3c-4,1-7.7,3-11.2,5.1c-10.1,5.7-20.1,11.5-30,17.6c-1.5,0.9-3.9,1.6-4.7,0
				c-0.2-0.5-0.2-1.1-0.1-1.6c0.5-1.7,2-2.9,3.4-4c11.8-8.7,24.4-16.3,37.7-22.6c2.3-1.1,7.1-3.1,9.3-0.7
				C688.1,419.3,683.3,421.6,680.7,422.3z"/>
		</g>
		<g>
			<path class="st5" d="M597.6,482c-2.3,1.1-5,0.8-7.6,0.6c-15.9-1.7-31.7-4.4-47.3-8c-1.9-0.4-4.1-1.1-5-2.8
				c-0.8-1.6-0.3-3.4,0.2-5.1c0.6-1.9,1.2-3.9,1.7-5.8c0.4-1.3,0.8-2.6,1.9-3.4c1.1-0.8,3-0.5,3.3,0.8c0.1,0.5,0,1.1-0.2,1.6
				c-0.6,2-1.2,4.1-1.7,6.1c-0.1,0.4-0.2,0.8,0,1.1c0.2,0.4,0.7,0.5,1.1,0.6c15.6,3.1,31.2,5.6,47,7.6c1,0.1,2,0.2,3,0
				c2.7-0.7,3.8-4.1,6.3-5.3c1.6-0.8,3.8-0.4,4.8,1.1c1.6,2.4-0.8,3.4-2,4.8C601.2,478,600.6,480.6,597.6,482z"/>
		</g>
		<g>
			<path class="st5" d="M537.3,458.3c0,3.2,2.6,5.7,5.7,5.7s5.7-2.6,5.7-5.7c0-3.2-2.6-5.7-5.7-5.7S537.3,455.1,537.3,458.3z"/>
		</g>
		<g>
			<path class="st5" d="M595.6,469.4c0,3.2,2.6,5.7,5.7,5.7c3.2,0,5.7-2.6,5.7-5.7c0-3.2-2.6-5.7-5.7-5.7
				C598.2,463.7,595.6,466.2,595.6,469.4z"/>
		</g>
		<g>
			<polygon class="st7" points="514.8,385.5 493.7,376.8 496.6,364.6 520.1,372.4 			"/>
		</g>
		<g>
			<path class="st7" d="M511.9,344.6c3-0.9,5.9-2,9-2.5c8.4-1.5,16.8-2.4,25.3-2.9c2.1-0.1,4.5-0.1,6,1.3c1.6,1.5,1.6,4,1.5,6.1
				c0,1.3-0.2,2.9-1.3,3.7c-0.7,0.5-1.5,0.5-2.3,0.6c-7.4,0.3-14.7-1.4-22-1.5s-15.3,1.4-20.3,6.8c-3.8,4-5.3,9.7-6,15.2
				c-0.2,1.7-0.6,3.7-2.3,4.2c-1.3,0.4-2.8-0.7-3.2-2.1c-0.8-2.5-0.6-5.8,0.1-8.2C497.5,361.8,499.6,348.4,511.9,344.6z"/>
		</g>
		<g>
			<path class="st7" d="M536.6,336.9c-0.9-0.7-2.3-0.6-3.2,0.1c-0.9,0.7-1.5,1.8-1.9,2.9c-0.5,1.6-0.6,3.3-0.7,4.9
				c-0.1,2.5-0.1,5.2,1.2,7.2c0.5,0.8,1.2,1.4,2.1,1.6c0.9,0.2,1.9-0.3,2.5-1c0.6-0.7,1-1.6,1.2-2.6c0.6-2.4,0.7-4.8,0.2-7.2
				C537.7,341,538.2,338.1,536.6,336.9z"/>
		</g>
		<g class="st9">
			<path class="st10" d="M485.8,403.3c-0.3,1.2-1.5,2.1-2.8,2.4c-1.2,0.3-2.5,0.2-3.8,0.1c-9.6-0.8-19.3,0.1-28.6,2.6
				c-0.4-0.5-0.3-1.3,0.1-1.8c0.4-0.5,1-0.8,1.6-1.1c5.8-2.6,11.9-4.3,18.2-4.9C473,400.3,487.2,398.5,485.8,403.3z"/>
		</g>
		<g class="st9">
			<path class="st10" d="M446.7,408.5c0.1,0.2,0.2,0.4,0.2,0.7c-0.1,0.7-0.9,1-1.6,1.2c-3.3,1-6.1,3.7-9.6,3.7
				c-0.5-0.6,0.1-1.4,0.6-1.9C437.9,410.6,444.7,405.5,446.7,408.5z"/>
		</g>
		<g class="st9">
			<path class="st10" d="M684.4,404.3c-0.7,0.3-1.5,0.3-2.3,0.3c-3.1-0.1-6.2-0.2-9.3,0.4c-4.7,1-9,3.7-13.6,5
				c-0.8,0.2-2,0.2-2.2-0.7c-0.1-0.4,0.2-0.8,0.5-1.1c3.2-3.8,8.1-5.9,13-6.7c3.2-0.5,6.5-0.5,9.7-0.1
				C681.2,401.6,688.4,402.4,684.4,404.3z"/>
		</g>
		<g>
			<path class="st3" d="M594.4,415.7c0.4,3,1.1,6,1.9,8.9c0.2,0.7,0.4,1.4,0,2c-0.4,0.7-1.4,0.9-2.2,0.9c-1.3,0-2.6-0.3-3.9-0.9
				c-0.3-0.1-0.7-0.3-0.9-0.6c-0.3-0.4-0.2-0.9-0.1-1.4c0.4-3,1-6.1,1.8-9C591.8,412.8,594,412.7,594.4,415.7z"/>
		</g>
	</g>
	<g>
		<g>
			<path class="st5" d="M303.5,270c0.5,2,1.1,4.1,2.5,5.7c1.4,1.6,3.7,2.5,5.6,1.7c1.3-0.5,2.3-1.7,2.8-3.1c0.5-1.3,0.6-2.8,0.7-4.2
				c0.1-3,0-6-1-8.8c-0.9-2.8-2.6-5.5-5.1-7.1c-1.2-0.8-2.7-1.3-4.1-1C299.7,254.3,302.7,266.6,303.5,270z"/>
		</g>
		<g>
			<path class="st5" d="M312,266.3c0.8-0.5,1.5-1,2.3-1.5c3.5,6.6,7,13.3,10.5,19.9c1.2,2.3,10.6,16.3,4.3,16
				C325.3,300.5,311.7,266.5,312,266.3z"/>
		</g>
		<g>
			<path class="st8" d="M349.7,302.8c0.9,3.7,1.2,7.6,0.7,11.3c-0.3,2.3-1,4.7-2.7,6.2c-0.8,0.7-1.9,1.2-2.9,0.9
				c-1.1-0.3-1.7-1.5-2.1-2.6c-1.3-3.3-1.8-6.9-2.1-10.4c-0.3-2.6-0.5-5.2-0.3-7.7c0.1-1.8,0-4.7,1.8-5.8
				C345.9,292.3,349,300.2,349.7,302.8z"/>
		</g>
		<g>
			<path class="st11" d="M324.5,297.5c5.2-2.9,11.2-4.2,17.1-4.6c0.4,0,0.8,0,1.1,0.2c0.3,0.2,0.4,0.5,0.6,0.8
				c3.7,8.3,3.6,17.8,3.2,26.9c0,0.4,0,0.8-0.2,1.1c-0.3,0.4-0.9,0.5-1.4,0.6c-3.5,0.6-7,1.1-10.5,0.8c-3.5-0.3-7.1-1.6-9.4-4.3
				c-2.8-3.2-3.3-7.6-3.9-11.6C320.5,302.9,320,300,324.5,297.5z"/>
		</g>
		<g>
			<g>
				<circle class="st5" cx="364.8" cy="411.4" r="9.5"/>
			</g>
			<g>
				<path class="st5" d="M358.2,392.1c0.1,0.2,3.4,12.6,3.4,12.6l8.5,1.2l6.1-11.3l-8.6-3.5L358.2,392.1z"/>
			</g>
			<g>
				<path class="st5" d="M385.1,415.6c-0.2-0.1-12.6-3.5-12.6-3.5l-5.3,6.7l6.7,11l7.4-5.6L385.1,415.6z"/>
			</g>
			<g>
				<path class="st5" d="M354.2,429.4c0.1-0.2,7.3-10.8,7.3-10.8l-4.6-7.2l-12.6,2.8l2.9,8.8L354.2,429.4z"/>
			</g>
			<g>
				<path class="st8" d="M371.2,411.4c0,3.6-2.9,6.5-6.5,6.5c-3.6,0-6.5-2.9-6.5-6.5c0-3.6,2.9-6.5,6.5-6.5
					C368.3,404.9,371.2,407.8,371.2,411.4z"/>
			</g>
			<g>
				<g>
					<path class="st8" d="M364.8,434.4c-12.7,0-23-10.3-23-23c0-12.7,10.3-23,23-23s23,10.3,23,23
						C387.8,424.1,377.5,434.4,364.8,434.4z M364.8,392.5c-10.4,0-18.9,8.5-18.9,18.9s8.5,18.9,18.9,18.9c10.4,0,18.9-8.5,18.9-18.9
						S375.2,392.5,364.8,392.5z"/>
				</g>
			</g>
			<g>
				<path class="st6" d="M364.8,383.9c-15.2,0-27.4,12.3-27.4,27.4c0,15.2,12.3,27.4,27.4,27.4c15.2,0,27.4-12.3,27.4-27.4
					C392.2,396.2,379.9,383.9,364.8,383.9z M364.8,432.3c-11.6,0-21-9.4-21-21c0-11.6,9.4-21,21-21c11.6,0,21,9.4,21,21
					C385.7,423,376.4,432.3,364.8,432.3z"/>
			</g>
			<g>
				<g>
					<path class="st7" d="M343.8,411.4c0-11.6,9.4-21,21-21c6.5,0,12.3,3,16.2,7.6c-3.8-5.4-10.1-9-17.2-9c-11.6,0-21,9.4-21,21
						c0,5.1,1.8,9.7,4.8,13.3C345.2,420,343.8,415.8,343.8,411.4z"/>
				</g>
				<g>
					<path class="st7" d="M386.1,394.2c3.2,4.5,5,9.9,5,15.8c0,15.2-12.3,27.4-27.4,27.4c-8.6,0-16.3-4-21.4-10.2
						c5,7,13.2,11.6,22.4,11.6c15.2,0,27.4-12.3,27.4-27.4C392.2,404.9,389.9,398.9,386.1,394.2z"/>
				</g>
			</g>
		</g>
		<g>
			<g>
				<path class="st5" d="M202.6,411.4c0,5.2-4.2,9.5-9.5,9.5c-5.2,0-9.5-4.2-9.5-9.5c0-5.2,4.2-9.5,9.5-9.5
					C198.4,401.9,202.6,406.1,202.6,411.4z"/>
			</g>
			<g>
				<path class="st5" d="M186.6,392.1c0.1,0.2,3.4,12.6,3.4,12.6l8.5,1.2l6.1-11.3L196,391L186.6,392.1z"/>
			</g>
			<g>
				<path class="st5" d="M213.5,415.6c-0.2-0.1-12.6-3.5-12.6-3.5l-5.3,6.7l6.7,11l7.4-5.6L213.5,415.6z"/>
			</g>
			<g>
				<path class="st5" d="M182.5,429.4c0.1-0.2,7.3-10.8,7.3-10.8l-4.6-7.2l-12.6,2.8l2.9,8.8L182.5,429.4z"/>
			</g>
			<g>
				<path class="st8" d="M199.6,411.4c0,3.6-2.9,6.5-6.5,6.5c-3.6,0-6.5-2.9-6.5-6.5c0-3.6,2.9-6.5,6.5-6.5
					C196.7,404.9,199.6,407.8,199.6,411.4z"/>
			</g>
			<g>
				<g>
					<path class="st8" d="M193.1,434.4c-12.7,0-23-10.3-23-23c0-12.7,10.3-23,23-23c12.7,0,23,10.3,23,23
						C216.2,424.1,205.8,434.4,193.1,434.4z M193.1,392.5c-10.4,0-18.9,8.5-18.9,18.9s8.5,18.9,18.9,18.9c10.4,0,18.9-8.5,18.9-18.9
						S203.6,392.5,193.1,392.5z"/>
				</g>
			</g>
			<g>
				<path class="st6" d="M193.1,383.9c-15.2,0-27.4,12.3-27.4,27.4c0,15.2,12.3,27.4,27.4,27.4c15.2,0,27.4-12.3,27.4-27.4
					C220.6,396.2,208.3,383.9,193.1,383.9z M193.1,432.3c-11.6,0-21-9.4-21-21c0-11.6,9.4-21,21-21c11.6,0,21,9.4,21,21
					C214.1,423,204.7,432.3,193.1,432.3z"/>
			</g>
			<g>
				<g>
					<path class="st7" d="M172.2,411.4c0-11.6,9.4-21,21-21c6.5,0,12.3,3,16.2,7.6c-3.8-5.4-10.1-9-17.2-9c-11.6,0-21,9.4-21,21
						c0,5.1,1.8,9.7,4.8,13.3C173.6,420,172.2,415.8,172.2,411.4z"/>
				</g>
				<g>
					<path class="st7" d="M214.5,394.2c3.2,4.5,5,9.9,5,15.8c0,15.2-12.3,27.4-27.4,27.4c-8.6,0-16.3-4-21.4-10.2
						c5,7,13.2,11.6,22.4,11.6c15.2,0,27.4-12.3,27.4-27.4C220.6,404.9,218.3,398.9,214.5,394.2z"/>
				</g>
			</g>
		</g>
		<g>
			<path class="st11" d="M314,413.7c0,0,16.2,1.3,18.7-1c2.4-2.3,3-18.6,14.3-25.3c12.2-7.2,21-5.5,28.5-3.7
				c7.4,1.8,14.9,10.3,14.9,10.3l1.9-1c0,0-3.6-12.9-11.3-19.9c-5-4.6-17.8-9.8-30-7.6c-12.2,2.1-18,4.9-18,4.9L314,413.7z"/>
		</g>
		<g>
			<path class="st11" d="M157.8,393.5l78.6,19.9c0.6,0.2,1.3,0.2,2,0.2H319c3,0,5.7-1.7,7.1-4.3l25-47.2c1.1-2.1,1.2-4.5,0.4-6.7
				l-20.7-54.5c-1.7-4.5-6.9-6.5-11.2-4.3l0,0c-3.6,1.8-5.3,6-4,9.9c4,11.5,13.6,35.4,10.6,49.7c-4.7,22.4-9.1,26.9-21.4,35.1
				c-12.3,8.2-52.2,10.1-57.1-3.2c-3.2-8.6,4-19.4,9.4-25.9c2.9-3.5,2.4-8.7-1.2-11.5c-8.7-6.9-24.6-17.3-39.8-15.2
				c-22.4,3.1-39.2,6.1-50.5,21.5c-6.5,8.8-10.9,18.8-13.5,25.7C150.5,387.3,153.1,392.3,157.8,393.5z"/>
		</g>
		<g>
			<path class="st12" d="M331.3,301.1c-0.7-1.7-1.8-3.1-3.2-4c-3.8,2.3-2.4,6.1-0.7,10.3c3.1,7.7,5.9,15.6,8.2,23.5
				c3.4,11.6,6,23.8,4.8,35.8c-1.3,12.1-6.9,24.2-17.1,30.8c-6.4,4.2-14,5.9-21.5,7.2c-18.5,3.1-37.3,3.8-56.1,3.8
				c-1.9,0-3.8,0-5.5,0.9c-1.5,0.8-2.7,2.5-2.5,4.2c0.3,0,0.7,0.1,1,0.1h80.6c3,0,5.7-1.7,7.1-4.3l25-47.2c1.1-2.1,1.2-4.5,0.4-6.7
				L331.3,301.1z"/>
		</g>
		<g>
			<path class="st6" d="M183.7,343c0,0,33.6-2.3,47.5,2.5c13.9,4.9,27,15.2,27,15.2s6.5,0.4,10.4-2.8c4-3.2,11.7-10.4,6.1-20.3
				c-6.8-12-15.9-10.2-36.1-9.8c-18,0.4-34-5.1-47.5-3.1c-13.5,1.9-16.8,6.7-16.8,11.7C174.2,345.8,183.7,343,183.7,343L183.7,343z"
				/>
		</g>
		<g>
			<path class="st13" d="M275.1,338.6c0.3,6.6-5,11.4-8,13.9c-3.9,3.1-10.4,2.8-10.4,2.8s-13.2-10.4-27-15.2
				c-13.9-4.9-47.5-2.5-47.5-2.5s-5.2,1.5-7.9-1.5c0,0.2,0,0.4,0,0.6c0,9.2,9.4,6.5,9.4,6.5s33.6-2.3,47.5,2.5
				c13.9,4.9,27,15.2,27,15.2s6.5,0.4,10.4-2.8C272.5,354.9,279.8,348,275.1,338.6z"/>
		</g>
		<g>
			<path class="st12" d="M183.7,362.5c20.9-13.1,44.5-9.7,49.7-7.4c6.5,2.9,8.8,7.5,7.6,15.2c-1.2,7.6-6.2,14.1-11.2,20
				c2.7-4.5,5.3-9.7,4.1-14.8c-1.7-7-9.7-12.2-16.9-12.6c-11.8-0.7-21.2,2.4-30.2,7.3c-9,4.9-18,11.8-26,18.2
				c-2.2,1.7-4.2,2.8-4.8-0.5C155.2,384.7,173.9,368.6,183.7,362.5z"/>
		</g>
		<g>
			<path class="st6" d="M301.8,296c-0.6,0.2-1.1,0.6-1.5,1.1c-0.5,0.8-0.3,1.8-0.1,2.8c0.3,1.3,0.7,2.8,1.6,3.7c1,1,2.5,1.4,4,1.6
				c4.2,0.5,8.5-0.1,12.4-1.9c0.7-0.3,1.4-0.7,2-1.2c0.6-0.6,0.9-1.3,1.2-2c0.6-1.5,1-3.3,0.3-4.7c-1.6-3.4-5.7-3.1-8.4-1.8
				C309.7,295.3,305.5,294.4,301.8,296z"/>
		</g>
		<g>
			<path class="st6" d="M313.6,291.6c0.7-0.9,1.8-1.4,2.9-1.7c2.6-0.7,5.5-0.3,7.7,1.2c2.2,1.5,3.6,4.2,3.5,6.8
				c0,0.7-0.2,1.4-0.5,2.1c-0.3,0.6-0.7,1.2-1.2,1.7c-2.2,2.2-5.9,2.9-8.8,1.7C313.3,301.7,310.7,295.4,313.6,291.6z"/>
		</g>
		<g class="st14">
			<path class="st10" d="M304.2,263.6c0.1,0.3,0.2,0.7,0.6,0.8c0.4,0.2,0.8-0.1,1.1-0.5c0.2-0.4,0.2-0.8,0.3-1.2
				c0.1-0.8,0.3-1.6,0.8-2.2c0.5-0.6,1.5-0.9,2.1-0.4c0.3,0.2,0.5,0.5,0.7,0.7c0.3,0.2,0.7,0.4,1,0.2c0.3-0.2,0.3-0.5,0.3-0.8
				c0.1-1.4-0.4-2.8-1.3-3.9c-0.8-0.9-2-1.6-3.3-1.5C302.4,255.2,303.5,261.1,304.2,263.6z"/>
		</g>
		<g class="st14">
			<path class="st10" d="M334.5,299.4c0.9-0.1,1.8-0.6,2.7-0.3c1.6,0.5,2,3,3.7,3.4c0.3,0.1,0.5,0.1,0.7-0.1
				c0.2-0.2,0.3-0.4,0.4-0.7c0.5-2,0.3-4.4-1.1-5.9c-0.3-0.4-0.8-0.7-1.3-0.9c-0.7-0.2-1.4-0.1-2.1,0c-1.3,0.3-4.3,0.7-5,2.1
				C331.9,298.4,333,299.6,334.5,299.4z"/>
		</g>
		<g class="st14">
			<path class="st10" d="M202.7,359.2c1.7,0.1,3.3-0.3,5-0.7c6.3-1.4,12.9-1.5,19.2-0.4c0.7,0.1,1.5,0.2,1.8-0.5
				c0.3-0.6-0.4-1.3-1.1-1.6c-1.8-0.8-3.7-0.9-5.7-1c-4.5-0.1-9.1,0.1-13.5,0.8c-1.5,0.2-4.2,0.2-5.6,1
				C201.9,357.5,200.7,359.1,202.7,359.2z"/>
		</g>
		<g class="st14">
			<path class="st10" d="M349.6,373.7c0.8,1.1,2.4,1.3,3.8,0.9s2.5-1.2,3.7-1.8c4.2-1.9,9-1,13.6-0.5c0.6,0.1,1.3,0,1.6-0.5
				c0.3-0.6-0.4-1.2-1.1-1.5c-4.5-2.2-9.6-3.3-14.6-3C354,367.4,346.3,369.2,349.6,373.7z"/>
		</g>
		<g class="st14">
			<path class="st10" d="M373.8,374.2c0.2,0.7,1.1,1,1.8,1.4c1.7,0.8,2.9,2.4,4.2,3.7c0.2,0.2,0.5,0.4,0.8,0.5
				c0.4,0,0.7-0.3,0.9-0.7c0.4-1-0.2-2-0.8-2.9c-0.9-1.3-1.8-2.7-3.2-3.3C376.4,372.4,373.2,372.1,373.8,374.2z"/>
		</g>
	</g>
	<g>
		<g>
			<path class="st6" d="M179.3,521.5c0,0-39.3-1.7-66.9,7.5c-25.4,8.5-35.6,26.5-35.6,26.5l1.5,13c0,0,10.9-23.2,35.9-30.3
				c33.8-9.5,65.1,3.9,65.1,3.9V521.5z"/>
		</g>
		<g>
			<g>
				<path class="st5" d="M147.5,598.3l-15.8-2.9l7.2-13.9l-5.9-15.8l2.1-0.8l5.2,13.9L147,566l2,1l-7.6,14.7L147.5,598.3z
					 M135.1,593.8l9,1.6l-4.1-11L135.1,593.8z"/>
			</g>
			<g>
				<path class="st5" d="M134.5,643l-2.1-0.8l6.1-15.4l-7.8-15.9l16,1.3l-5.8,14.5l7.4,15.2l-2,1l-6.5-13.4L134.5,643z M134.5,613.4
					l5.2,10.5l3.9-9.8L134.5,613.4z"/>
			</g>
			<g>
				<path class="st5" d="M130.6,612.1l-13.9-7.2l-15.8,5.9l-0.8-2.1l13.9-5.2l-12.9-6.7l1-2l14.7,7.6l16.6-6.2L130.6,612.1z
					 M119.6,603.9l9.4,4.9l1.6-9L119.6,603.9z"/>
			</g>
			<g>
				<path class="st5" d="M146.9,613.7v-16.1l14.9,4.6l14.5-8.6l1.1,1.9l-12.8,7.6l13.9,4.3l-0.7,2.1l-15.8-4.9L146.9,613.7z
					 M149.1,600.7v9.1l10.1-6L149.1,600.7z"/>
			</g>
			<g>
				<path class="st5" d="M127.4,603.3l-5-14.8l-15.5-6.7l0.9-2.1l13.7,5.9l-4.7-13.7l2.1-0.7l5.3,15.6l16.3,7L127.4,603.3z
					 M125.1,589.8l3.4,10l7.4-5.3L125.1,589.8z"/>
			</g>
			<g>
				<path class="st5" d="M163.3,634.2l-8-14.4l-17.2-4l11.1-11.6l7.6,13.7l16.5,3.8l-0.5,2.2l-14.5-3.4l7.1,12.7L163.3,634.2z
					 M142.4,614.4l11.4,2.7l-5.1-9.2L142.4,614.4z"/>
			</g>
			<g>
				<path class="st5" d="M116.9,636.5l-2.1-0.9l5.9-13.7l-13.7,4.7l-0.7-2.1l15.6-5.3l7-16.3l9.4,13l-14.8,5L116.9,636.5z
					 M129.5,607.4l-4.7,10.8l10-3.4L129.5,607.4z"/>
			</g>
			<g>
				<path class="st5" d="M150.8,605.3l-11.6-11.1l13.7-7.6l3.8-16.5l2.2,0.5l-3.4,14.5l12.7-7.1l1.1,2l-14.4,8L150.8,605.3z
					 M142.9,594.7l6.6,6.3l2.7-11.4L142.9,594.7z"/>
			</g>
			<g>
				<path class="st5" d="M139.4,646.6c-23.3,0-42.3-19-42.3-42.3c0-23.3,19-42.3,42.3-42.3s42.3,19,42.3,42.3
					C181.7,627.6,162.7,646.6,139.4,646.6z M139.4,566.7c-20.7,0-37.5,16.8-37.5,37.5c0,20.7,16.8,37.5,37.5,37.5
					c20.7,0,37.5-16.8,37.5-37.5C176.9,583.5,160,566.7,139.4,566.7z"/>
			</g>
			<g>
				
					<ellipse transform="matrix(0.9993 -3.826766e-02 3.826766e-02 0.9993 -23.0198 5.7762)" class="st5" cx="139.4" cy="604.2" rx="15.1" ry="15.1"/>
			</g>
			<g>
				<path class="st6" d="M139.4,552c-28.9,0-52.2,23.4-52.2,52.2c0,28.9,23.4,52.2,52.2,52.2s52.2-23.4,52.2-52.2
					C191.6,575.4,168.2,552,139.4,552z M139.4,644.1c-22,0-39.9-17.9-39.9-39.9c0-22,17.9-39.9,39.9-39.9c22,0,39.9,17.9,39.9,39.9
					C179.3,626.3,161.4,644.1,139.4,644.1z"/>
			</g>
			<g>
				<g>
					<path class="st7" d="M99.5,604.2c0-22,17.9-39.9,39.9-39.9c12.4,0,23.5,5.7,30.8,14.5c-7.2-10.4-19.2-17.1-32.8-17.1
						c-22,0-39.9,17.9-39.9,39.9c0,9.6,3.4,18.5,9.1,25.4C102.1,620.5,99.5,612.7,99.5,604.2z"/>
				</g>
				<g>
					<path class="st7" d="M180.1,571.4c6,8.5,9.6,18.9,9.6,30.2c0,28.9-23.4,52.2-52.2,52.2c-16.4,0-31.1-7.6-40.7-19.5
						c9.5,13.4,25,22.1,42.7,22.1c28.9,0,52.2-23.4,52.2-52.2C191.6,591.8,187.3,580.4,180.1,571.4z"/>
				</g>
			</g>
			<g>
				<path class="st8" d="M149.7,604.2c0,5.7-4.6,10.3-10.3,10.3c-5.7,0-10.3-4.6-10.3-10.3c0-5.7,4.6-10.3,10.3-10.3
					C145.1,593.9,149.7,598.5,149.7,604.2z"/>
			</g>
		</g>
		<g>
			<path class="st15" d="M326.5,444.4c4.4,2,8,5.5,11.4,9.1c12.7,13.5,23.1,29,30.8,45.9c-10.2-6.6-20.4-13.1-30.6-19.7
				c-3.6-2.3-7.2-4.6-10.6-7.1c-2.5-1.9-7.7-4.7-8.6-8C318.2,461.9,327.8,444.9,326.5,444.4z"/>
		</g>
		<g>
			<path class="st7" d="M170.6,542.1l-35.2,57.6c0,0-1.1,3.3,1.5,5.9c2.5,2.6,6.9-0.4,6.9-0.4l38.3-56.8L170.6,542.1z"/>
		</g>
		<g>
			<path class="st5" d="M169.5,546.3c-0.7,2.3-1.4,4.8-0.2,6.8c0.8,1.4,2.3,2.2,3.8,2.9c7.3,3.5,14.9,6.3,22.8,8.3
				c0.9,0.2,1.9,0.4,2.7,0c1.8-1,1.6-4.5,3.6-4.5c1.8,0,1.9,2.6,1.4,4.4c-2.6,8.7-5.2,17.4-7.8,26.1c-0.5,1.7-1,3.8,0.1,5.2
				c0.8,1,2.1,1.4,3.4,1.7c21.9,5.2,44.3,8.6,66.8,10c2,0.1,4.2,0.2,5.8-0.9c1.1-0.8,1.8-2,2.4-3.3c1.3-3,1.9-6.4,2.5-9.7
				c1.7-10.5,2.9-21.1,3.5-31.7c0.4-6.8,0.5-14.2-3.6-19.6c-4.1-5.5-11.1-7.6-17.7-9.3c-21.4-5.5-43-10.3-64.9-12.5
				c-4.2-0.4-8.5-0.7-12.5,0.5c-4.6,1.4-7.6,4.1-7.9,8.8C173.3,535.3,171.3,540.7,169.5,546.3z"/>
		</g>
		<g>
			<g>
				<path class="st5" d="M408.8,598.3l-15.8-2.9l7.2-13.9l-5.9-15.8l2.1-0.8l5.2,13.9l6.7-12.9l2,1l-7.6,14.7L408.8,598.3z
					 M396.3,593.8l9,1.6l-4.1-11L396.3,593.8z"/>
			</g>
			<g>
				<path class="st5" d="M395.7,643l-2.1-0.8l6.1-15.4l-7.8-15.9l16,1.3l-5.8,14.5l7.4,15.2l-2,1l-6.5-13.4L395.7,643z M395.7,613.4
					l5.2,10.5l3.9-9.8L395.7,613.4z"/>
			</g>
			<g>
				<path class="st5" d="M391.9,612.1l-13.9-7.2l-15.8,5.9l-0.8-2.1l13.9-5.2l-12.9-6.7l1-2l14.7,7.6l16.6-6.2L391.9,612.1z
					 M380.9,603.9l9.4,4.9l1.6-9L380.9,603.9z"/>
			</g>
			<g>
				<path class="st5" d="M408.1,613.7v-16.1l14.9,4.6l14.5-8.6l1.1,1.9l-12.8,7.6l13.9,4.3l-0.7,2.1l-15.8-4.9L408.1,613.7z
					 M410.4,600.7v9.1l10.1-6L410.4,600.7z"/>
			</g>
			<g>
				<path class="st5" d="M388.6,603.3l-5-14.8l-15.5-6.7l0.9-2.1l13.7,5.9l-4.7-13.7l2.1-0.7l5.3,15.6l16.3,7L388.6,603.3z
					 M386.4,589.8l3.4,10l7.4-5.3L386.4,589.8z"/>
			</g>
			<g>
				<path class="st5" d="M424.6,634.2l-8-14.4l-17.2-4l11.1-11.6l7.6,13.7l16.5,3.8l-0.5,2.2l-14.5-3.4l7.1,12.7L424.6,634.2z
					 M403.6,614.4l11.4,2.7l-5.1-9.2L403.6,614.4z"/>
			</g>
			<g>
				<path class="st5" d="M378.2,636.5l-2.1-0.9l5.9-13.7l-13.7,4.7l-0.7-2.1l15.6-5.3l7-16.3l9.4,13l-14.8,5L378.2,636.5z
					 M390.8,607.4l-4.7,10.8l10-3.4L390.8,607.4z"/>
			</g>
			<g>
				<path class="st5" d="M412.1,605.3l-11.6-11.1l13.7-7.6l3.8-16.5l2.2,0.5l-3.4,14.5l12.7-7.1l1.1,2l-14.4,8L412.1,605.3z
					 M404.2,594.7l6.6,6.3l2.7-11.4L404.2,594.7z"/>
			</g>
			<g>
				<path class="st5" d="M400.6,646.6c-23.3,0-42.3-19-42.3-42.3c0-23.3,19-42.3,42.3-42.3c23.3,0,42.3,19,42.3,42.3
					C443,627.6,424,646.6,400.6,646.6z M400.6,566.7c-20.7,0-37.5,16.8-37.5,37.5c0,20.7,16.8,37.5,37.5,37.5
					c20.7,0,37.5-16.8,37.5-37.5C438.1,583.5,421.3,566.7,400.6,566.7z"/>
			</g>
			<g>
				<path class="st5" d="M415.7,604.2c0,8.3-6.8,15.1-15.1,15.1c-8.3,0-15.1-6.8-15.1-15.1c0-8.3,6.8-15.1,15.1-15.1
					C409,589.1,415.7,595.9,415.7,604.2z"/>
			</g>
			<g>
				<path class="st6" d="M400.6,552c-28.9,0-52.2,23.4-52.2,52.2c0,28.9,23.4,52.2,52.2,52.2s52.2-23.4,52.2-52.2
					C452.9,575.4,429.5,552,400.6,552z M400.6,644.1c-22,0-39.9-17.9-39.9-39.9c0-22,17.9-39.9,39.9-39.9c22,0,39.9,17.9,39.9,39.9
					C440.5,626.3,422.7,644.1,400.6,644.1z"/>
			</g>
			<g>
				<g>
					<path class="st7" d="M360.7,604.2c0-22,17.9-39.9,39.9-39.9c12.4,0,23.5,5.7,30.8,14.5c-7.2-10.4-19.2-17.1-32.8-17.1
						c-22,0-39.9,17.9-39.9,39.9c0,9.6,3.4,18.5,9.1,25.4C363.4,620.5,360.7,612.7,360.7,604.2z"/>
				</g>
				<g>
					<path class="st7" d="M441.3,571.4c6,8.5,9.6,18.9,9.6,30.2c0,28.9-23.4,52.2-52.2,52.2c-16.4,0-31.1-7.6-40.7-19.5
						c9.5,13.4,25,22.1,42.7,22.1c28.9,0,52.2-23.4,52.2-52.2C452.9,591.8,448.5,580.4,441.3,571.4z"/>
				</g>
			</g>
			<g>
				<path class="st8" d="M410.9,604.2c0,5.7-4.6,10.3-10.3,10.3c-5.7,0-10.3-4.6-10.3-10.3c0-5.7,4.6-10.3,10.3-10.3
					C406.3,593.9,410.9,598.5,410.9,604.2z"/>
			</g>
		</g>
		<g>
			<path class="st7" d="M364.3,546.7l32.1,59.3c0,0,2.3,2.6,5.9,1.7c3.5-0.9,3.1-6.1,3.1-6.1l-29.9-61.6L364.3,546.7z"/>
		</g>
		<g>
			<path class="st7" d="M268.5,582.5c-0.3,1-0.5,2.1-0.1,3c0.5,1.1,1.9,1.5,3.1,1.8c12.6,2.7,26.1,0.8,37.5-5.1
				c19.6-10.2,32.2-31.3,52.4-40.1c1.8-0.8,4-1.7,4.4-3.7c0.6-2.4,14,0.8,12.8-1.5c-3.4-6.3-27.6-19.2-35.6-21.1
				c-14.1-3.3-32.5,7.3-44.2,15.8C282.3,543.9,273.8,563.3,268.5,582.5z"/>
		</g>
		<g>
			<path class="st15" d="M199.4,612.1c0,0-6.6,11.2-4.7,15.2c2.9,6.3,13.8,5.2,13.8,5.2s82.8,0.9,86.3-1.7
				c3.5-2.6,5.9-11.5,5.9-11.5l-79.7-7.6L199.4,612.1z"/>
		</g>
		<g>
			<path class="st5" d="M291.4,618.5c-1.1,2.7-2.7,6.2-4.7,7.7c-3.5,2.6-86.3,1.7-86.3,1.7s-2.7,0.3-5.8-0.2
				c3.1,6,13.6,4.9,13.6,4.9s82.8,0.9,86.3-1.7s5.9-11.5,5.9-11.5L291.4,618.5z"/>
		</g>
		<g>
			<path class="st2" d="M112.5,498.6c0.3,1.5,21.1,0,31.7,8.2c10.6,8.2,12.4,20.6,18.9,24c6.5,3.4,85.8,8.8,98.3,16.7
				c12.5,7.8,10.6,24.2,10.6,24.2l26.9-1.2c0,0,11.3-20.9,22.8-30.2c14-11.4,24.4-8.4,26.7-17.1c2.3-8.6-32.7-19.9-69.2-24.6
				c-36.5-4.7-29.5,7.9-38.2,11.3c-8.6,3.4-36.9-8.2-70.8-12.3C137.7,493.5,110.6,490.4,112.5,498.6z"/>
		</g>
		<g>
			<path class="st15" d="M197.3,625.7c0,0-20.8-5.4-40.7-15.2c-20-9.8-30.3-23.8-30.3-23.8l11.8-12.2c0,0,4.6,5.6,25,16.2
				c20.4,10.6,45.1,17.4,45.1,17.4L197.3,625.7z"/>
		</g>
		<g>
			<path class="st7" d="M239,510.2c-10.4,1.4-37.2-8.9-68.9-12.8c-5.9-0.7-11.5-1.4-16.9-2c3.8,2.9,6.8,6.8,8.6,11.2
				c1.7,4.2,2.6,9.1,6.2,11.9c1.6,1.2,3.5,1.8,5.4,2.4c5.7,1.6,11.6,2.4,17.5,3.1c19.4,2.6,38.8,5.2,58.2,7.8
				c0.6,0.1,1.3,0.1,1.8-0.2c0.4-0.3,0.5-0.8,0.6-1.3c0.4-3.1-1.3-6-3.1-8.6C245.6,517.7,242.4,513.8,239,510.2z"/>
		</g>
		<g>
			<path class="st7" d="M304.7,515.3c3.5,1,6.4-6.2,10.5-13.5c2.2-3.8,11.8-8.4,18.2-6.4c4.2,1.3,14.3,5,18.5,6.4
				c3,1,0.4,1.8,3.4,2.8c1.1-1.8-0.1-4-1.4-5.6c-5.5-6.7-14.1-10.3-22.8-10.7c-8.6-0.3-11.9,1.4-18.3,7.1
				C310.6,497.6,294.7,512.5,304.7,515.3z"/>
		</g>
		<g>
			<path class="st16" d="M219.4,544.6c-1.3,1.1-2,2.8-2.6,4.4c-2.8,7.6-5.2,15.3-7.1,23.1c-0.5,2.1-1,4.3-0.3,6.3
				c0.3,0.8,0.8,1.5,1.7,1.7c1.4,0.3,2.4-1.4,2.8-2.8c3-9.1,6.3-18,9.9-26.8c0.5-1.2,1-2.4,0.8-3.7
				C224.3,544.7,221.1,543.2,219.4,544.6z"/>
		</g>
		<g>
			<path class="st16" d="M233,546.8c-1.3,1.1-2,2.8-2.6,4.4c-2.8,7.6-5.2,15.3-7.1,23.1c-0.5,2.1-1,4.3-0.3,6.3
				c0.3,0.8,0.8,1.5,1.7,1.7c1.4,0.3,2.4-1.4,2.8-2.8c3-9.1,6.3-18,9.9-26.8c0.5-1.2,1-2.4,0.8-3.7
				C237.9,546.9,234.7,545.4,233,546.8z"/>
		</g>
		<g>
			<path class="st16" d="M246.3,549.1c-1.3,1.1-2,2.8-2.6,4.4c-2.8,7.6-5.2,15.3-7.1,23.1c-0.5,2.1-1,4.3-0.3,6.3
				c0.3,0.8,0.8,1.5,1.7,1.7c1.4,0.3,2.4-1.4,2.8-2.8c3-9.1,6.3-18,9.9-26.8c0.5-1.2,1-2.4,0.8-3.7
				C251.2,549.2,248,547.7,246.3,549.1z"/>
		</g>
		<g>
			<path class="st2" d="M315.2,619.3h25.9c0,0-6.1-26.6,7.3-45.8c13.4-19.2,46.7-30.3,46.7-30.3s-4-31.2-24.2-51.4
				c-25-25-55.7-36-55.7-36l-13,25.5c0,0,29.7,7.9,43.9,18c18.3,13,21.9,22.8,21.9,22.8s-12.9,3.8-34.1,21.6
				c-21.1,17.8-31.7,32.2-31.7,32.2l-85.7,5.4l-16.1,39.4l100.4-1.3c0,0,10.1-33.3,15.4-30.2C321.4,592.2,309.4,611.8,315.2,619.3z"
				/>
		</g>
		<g class="st17">
			<path class="st10" d="M258.3,509.5c2,0.2,4-0.3,6-0.7c11-2.2,22.9-0.9,33,3.6c0.7-0.6,0.6-1.7,0-2.4c-0.5-0.7-1.4-1.2-2.2-1.6
				c-8.9-4.7-19.1-7.3-29.5-7.5c-3.3-0.1-7.8-0.1-10.3,2.1C252.2,505.6,254.3,509.1,258.3,509.5z"/>
		</g>
		<g class="st17">
			<path class="st10" d="M223.5,584.2c-2,0.5-4,1.2-5.4,2.7c-1.2,1.2-1.9,2.9-2.4,4.5c-1.4,4.1-2.3,8.4-2.7,12.7
				c-0.2,2,0.1,4.6,2.1,5.2c2,0.6,3.8-1.3,4.5-3.3c1.8-4.7,1-10.4,4-14.5c2.5-3.4,6.9-4.8,11.1-5.2c4.2-0.4,8.5-0.2,12.5-1.3
				c0.5-0.1,1-0.3,1.3-0.8c0.4-0.7-0.1-1.6-0.7-2c-0.7-0.4-1.5-0.4-2.3-0.3C238.1,582.3,230.7,582.4,223.5,584.2z"/>
		</g>
		<g class="st17">
			<path class="st10" d="M271.6,584.8c0.8,0.1,1.6,0.1,2.3-0.1c0.7-0.2,1.4-0.9,1.4-1.7c0-0.7-0.6-1.3-1.2-1.6
				c-0.6-0.3-1.3-0.3-2-0.4c-2.9-0.2-16.8-2.6-17.8,2.2c-0.6,2.9,5.1,1.7,6.5,1.6C264.5,584.5,268.1,584.5,271.6,584.8z"/>
		</g>
		<g class="st17">
			<path class="st10" d="M316.9,466.7c1.4,1.9,3.9,2.6,6.1,3.4c14.6,5.1,26.9,14.8,39.7,23.5c1.8,1.2,3.7,2.4,5.8,2.7
				c0.1-1.6-1.2-3-2.4-4.1c-12-11-25.3-20.7-39.4-28.8c-2.1-1.2-5.9-3.6-8.5-2.6C315.9,461.6,315.5,464.9,316.9,466.7z"/>
		</g>
		<g class="st18">
			<path class="st10" d="M135.7,584.2c0.5,2.1,2.4,3.5,4.1,4.8c14.6,10.9,30.5,21.8,48.6,22.8c0.7,0,1.5,0,2.1-0.4
				c0.9-0.7,0.9-2.2,0.2-3.1c-0.7-0.9-1.8-1.4-2.9-1.8c-12.8-5.2-26.2-9.8-36.6-18.9c-2.9-2.5-5.5-5.2-9-6.8
				C139.4,579.6,134.5,579.6,135.7,584.2z"/>
		</g>
	</g>
</g>
</svg>
