<?xml version="1.0" encoding="utf-8"?>
<!-- Generator: Adobe Illustrator 24.0.0, SVG Export Plug-In . SVG Version: 6.00 Build 0)  -->
<svg version="1.1" id="e0e40e46-7c57-45b6-aaf6-e711af8ad00c"
	 xmlns="http://www.w3.org/2000/svg" xmlns:xlink="http://www.w3.org/1999/xlink" x="0px" y="0px" viewBox="0 0 509 507.6"
	 style="enable-background:new 0 0 509 507.6;" xml:space="preserve">
<style type="text/css">
	.st0{opacity:0.5;fill:#606060;}
	.st1{fill:#FFFFFF;}
	.st2{fill:#FFB8B8;}
	.st3{fill:#CE4500;}
	.st4{fill:#CCCCCC;}
	.st5{fill:#2F2E41;}
	.st6{fill:#3F3D56;}
	.st7{fill:#B3B3B3;}
</style>
<path class="st0" d="M458.3,417.4c-5.1,10.7-14.6,18.6-24.6,25.1c-10.9,7.1-22.6,12.7-34.8,16.9c-1.7,0.6-3.4,1.1-5.1,1.6h-29.3
	c0.2-0.5,0.5-1.1,0.7-1.6c16.5-37.9,41.8-71.4,73.9-97.5c0.4-0.3,0.6-0.7,0.5-1.1c5.1,2.9,9.5,6.7,13.2,11.2
	C462.9,384.6,465.3,402.9,458.3,417.4z"/>
<path class="st1" d="M439.7,360.7c-0.8-0.4-1.5-0.8-2.3-1.2c0.8-0.4,1.8,0,2.2,0.9C439.7,360.5,439.7,360.6,439.7,360.7z"/>
<path class="st2" d="M183.3,286.3c3-3,3.1-7.9,0.1-11c-0.3-0.3-0.7-0.6-1-0.9l-3.9-25.8l-16.1,5.1l8.8,23c-2.2,3.7-1.1,8.5,2.6,10.7
	C176.7,289.3,180.7,288.8,183.3,286.3L183.3,286.3z"/>
<path class="st3" d="M166.7,274.1l-9.9-46.3c-2-9,0.9-18.4,7.6-24.8c12.7-12.2,29-27.7,34.7-31.7c5.3-3.8,11.7-5.7,18.2-5.4l0.1,0
	l8.5,8.1l-18.6,30.6L179,222.3l3.1,45.4L166.7,274.1z"/>
<path class="st4" d="M159.8,211.2h41.6c1.8,0,3.3,1.5,3.3,3.3l0,0c0,1.8-1.5,3.3-3.3,3.3h-41.6c-1.8,0-3.3-1.5-3.3-3.3l0,0
	C156.5,212.6,158,211.2,159.8,211.2z"/>
<path class="st4" d="M159.8,282.2h41.6c1.8,0,3.3,1.5,3.3,3.3l0,0c0,1.8-1.5,3.3-3.3,3.3h-41.6c-1.8,0-3.3-1.5-3.3-3.3l0,0
	C156.5,283.7,158,282.2,159.8,282.2z"/>
<path class="st4" d="M181,460.2c-0.8,0-1.6-0.6-1.6-1.5l-20.8-244.1c-0.1-0.9,0.6-1.7,1.5-1.8c0.9-0.1,1.7,0.6,1.8,1.5L181,439.8
	l18.6-225.5c0.1-0.9,0.9-1.6,1.8-1.5c0.9,0.1,1.6,0.9,1.5,1.8l-20.2,244.1C182.6,459.5,181.9,460.2,181,460.2L181,460.2z"/>
<circle class="st2" cx="227.7" cy="134.8" r="21.4"/>
<polygon class="st2" points="163.9,450.4 153.7,447.1 161.4,406.3 176.4,411.1 "/>
<path class="st5" d="M163.3,459.4l-32.8-10.5l0.3-0.9c2.2-6.8,9.4-10.5,16.2-8.4l20.5,6.5L163.3,459.4z"/>
<polygon class="st2" points="238,450.2 227.3,450.2 222.2,408.9 238,408.9 "/>
<path class="st5" d="M207.1,459.7h32.8v-12.2h-20.7C212.5,447.5,207.1,452.9,207.1,459.7L207.1,459.7z"/>
<path class="st5" d="M237.7,436.8l-3.6-0.5c-10.9-1.6-11.6-1.7-13.3-2.5c-0.9-0.4-0.9-6.3-0.4-39.4c0.4-24.3,0.9-54.6-0.1-70.8
	c-0.1-1.6-1.4-2.8-3-2.7c-1.1,0.1-2,0.7-2.4,1.7c-8.1,18.8-21.8,60.9-30.8,88.7c-3.1,9.7-5.6,17.3-7.2,21.9
	c-0.6,1.8-2.5,2.8-4.4,2.4c-7.4-1.9-6.9-2.7-17.5-5.4c-1.9-0.5-3.1-2.4-2.7-4.3c1.9-9,37-155.6,39.7-169.5c0.4-2,2.3-3.3,4.3-2.9
	c0,0,0,0,0,0c7.9,1.6,12.7,3.3,20.5,4.9c8.4,1.8,17.1,3.6,25.6,5.3l0,0c0.8,0.2,1.6,0.6,2.1,1.3c2.1,2.7,5.2,4.1,8.5,5.7
	c2.2,1.1-2.8,1-0.9,2.5c7.8,6.2-3.4,132.3-10.3,160.8C241.4,435.8,239.6,437,237.7,436.8L237.7,436.8z"/>
<path class="st5" d="M236.9,153.5c-1.3-5.3,5.1-16.7,3.8-22c-0.8-3.6-9.3-1.2-11.3-4.3c-2-3.1-5.3-5.6-9-5.7
	c-4.2,0-8.4,3.1-12.4,1.7c-4.1-1.4-5.4-6.9-3.6-10.8c1.8-3.9,5.7-6.4,9.5-8.3c6.5-3.3,14.1-5.7,21.1-3.5c4.2,1.3,7.7,4.2,11.1,7
	c3.1,2.6,6.3,5.2,8.4,8.6c4.3,6.6,4,15.6,0.4,22.6s-10.3,12.1-17.6,15.1"/>
<path class="st3" d="M184.3,277c2.3-3.9,5.8-22,10.2-52.3c2.9-20.7,5.5-41.8,6.8-52.6c0.2-1.8,1.3-3.3,2.9-4.1
	c0.8-0.4,1.6-0.8,2.5-1.1c10.5-4.6,21.2-6.1,31.8-4.5c10.5,1.6,20.4,6.1,28.5,13l0.1,0.1l0,0.1c0,0.2,4.5,24.1-4.6,40.2
	c-8.9,15.9-9,58-9,58.4v0.5l-0.5-0.1c-13.9-4-67.6,3-68.2,3l-0.8,0.1L184.3,277z"/>
<path class="st4" d="M223.5,221.8h41.6c1.8,0,3.3,1.5,3.3,3.3l0,0c0,1.8-1.5,3.3-3.3,3.3h-41.6c-1.8,0-3.3-1.5-3.3-3.3l0,0
	C220.2,223.2,221.7,221.8,223.5,221.8z"/>
<path class="st4" d="M223.5,292.8h41.6c1.8,0,3.3,1.5,3.3,3.3l0,0c0,1.8-1.5,3.3-3.3,3.3h-41.6c-1.8,0-3.3-1.5-3.3-3.3l0,0
	C220.2,294.3,221.7,292.8,223.5,292.8z"/>
<path class="st4" d="M244.7,461c-0.8,0-1.6-0.6-1.6-1.5l-20.8-234.3c-0.1-0.9,0.6-1.7,1.5-1.8c0.9-0.1,1.7,0.6,1.8,1.5l19.2,215.7
	l18.6-215.7c0.1-0.9,0.9-1.6,1.8-1.5c0.9,0.1,1.6,0.9,1.5,1.8l-20.2,234.3C246.2,460.3,245.5,461,244.7,461L244.7,461z"/>
<path class="st2" d="M231.2,293.8c-0.9-4.2,1.7-8.3,5.9-9.2c0.4-0.1,0.9-0.2,1.4-0.2l17.3-19.5l10.8,13l-19.9,14.5
	c-0.1,4.3-3.7,7.7-8,7.6C235.1,299.9,232,297.4,231.2,293.8L231.2,293.8z"/>
<path class="st3" d="M241.3,280.2l27.3-36.4l-14.1-30.2l1-35.8l11.5-2.1l0.1,0.1c5.6,3.3,10,8.3,12.3,14.4
	c2.6,6.4,7.9,28.2,11.9,45.4c2.1,9-0.6,18.4-7.1,24.9L250.9,294L241.3,280.2z"/>
<path class="st4" d="M126.8,450.8l37.4,9c1.5,0.4,3.1-0.3,3.7-1.7l32.1-85.3c0.3-0.7,0.3-1.4,0-2.1c-0.3-0.7-0.9-1.3-1.7-1.6
	l-28.1-10.7c-0.9-0.3-1.9-0.3-2.8,0.2c-0.7,0.4-1.3,1-1.5,1.8l0,0l-19.8,75.2l-0.3,0c-0.1,0-11.5,0.8-16.6,6.9
	C127.3,444.8,126.4,447.8,126.8,450.8z"/>
<path class="st6" d="M451.6,460.2c0,0.4-0.4,0.8-0.8,0.8c0,0,0,0,0,0H47.6c-0.5,0-0.8-0.4-0.8-0.8s0.4-0.8,0.8-0.8h403.3
	C451.3,459.3,451.6,459.7,451.6,460.2C451.6,460.1,451.6,460.2,451.6,460.2z"/>
<rect x="170" y="388.5" transform="matrix(0.1053 -0.9944 0.9944 0.1053 -250.5077 532.7992)" class="st7" width="1.6" height="34.3"/>
<rect x="163.5" y="408.3" transform="matrix(0.4103 -0.9119 0.9119 0.4103 -289.1989 399.4886)" class="st7" width="1.6" height="30.1"/>
<polygon class="st7" points="191.6,395.2 159.2,384.5 159.9,383 192.2,393.7 "/>
<polygon class="st7" points="194.8,387.8 162.5,372.2 163.2,370.7 195.5,386.3 "/>
<rect x="158.4" y="424.5" transform="matrix(0.6495 -0.7603 0.7603 0.6495 -278.6102 275.1912)" class="st7" width="1.6" height="30.6"/>
<rect x="144.6" y="435.2" transform="matrix(0.9107 -0.413 0.413 0.9107 -171.4184 99.9068)" class="st7" width="1.6" height="22.7"/>
<path class="st0" d="M410.1,354.5c-16,1.7-30.7,11.5-39.3,25.2c-5.7,9.1-8.6,19.4-10.3,30V153h27.1c2.9,0,5.3-2.4,5.3-5.3V76.2
	c0-2.9-2.4-5.3-5.3-5.3h-27.1v-6.2c0-5,0.1-10.1,0-15.1c0-0.2,0-0.4,0-0.7c0-3.2-4.9-3.2-4.9,0v22h-26.8c-2.9,0-5.3,2.4-5.3,5.3
	v71.4c0,2.9,2.4,5.3,5.3,5.3h26.8v268.1c0,1.6,0,3.3,0,4.9c-4.5-6.2-12.9-9.5-20.5-7.9c-9.4,2-16.6,10.8-17.8,20.3
	c-0.9,7.4,1.6,15,6.2,20.9c0.4,0.6,0.9,1.1,1.4,1.6h36.5c0.2-0.5,0.5-1.1,0.7-1.6c3.1-7.3,6.6-14.6,10.4-21.6
	c8.1-14.9,17.7-29.1,28.5-42.2c10.8-13.1,22.9-25.1,36.1-35.9c0.1-0.1,0.2-0.2,0.3-0.2C429,355.2,419.5,353.5,410.1,354.5z"/>
</svg>
