<?xml version="1.0" encoding="utf-8"?>
<!-- Generator: Adobe Illustrator 24.0.1, SVG Export Plug-In . SVG Version: 6.00 Build 0)  -->
<svg version="1.1" id="Calque_1" xmlns="http://www.w3.org/2000/svg" xmlns:xlink="http://www.w3.org/1999/xlink" x="0px" y="0px"
	 viewBox="0 0 758.7 615.3" style="enable-background:new 0 0 758.7 615.3;" xml:space="preserve">
<style type="text/css">
	.st0{fill:#F2F2F2;}
	.st1{fill:#E6E6E6;}
	.st2{fill:#FFFFFF;}
	.st3{fill:#CCCCCC;}
	.st4{fill:#CE4500;}
	.st5{fill:#A0616A;}
	.st6{fill:#3F3D56;}
	.st7{fill:#111111;}
	.st8{fill:#FFB8B8;}
</style>
<path class="st0" d="M605.7,112.1c-3.9,43.4-15.2,89.2-32.8,133.4c-21.8,54.6-51.5,102.8-86,139.2l-1.9-1.7
	c34.3-36.2,64-84.1,85.6-138.5c19.6-49.2,31.3-100.3,33.7-147.9l2.4,0.4C606.5,101.9,606.1,107,605.7,112.1z"/>
<path class="st0" d="M621.4,364.3c-48.5,77.1-107.3,132.2-165.6,155.1l-1.2-2.2c57.9-22.8,116.4-77.6,164.6-154.4L621.4,364.3z"/>
<path class="st0" d="M604.5,166.1c-3.9,43.4-15.2,89.2-32.8,133.4c-21.8,54.6-51.5,102.8-86,139.2l-1.9-1.7
	c34.3-36.2,64-84.1,85.6-138.5c19.6-49.2,31.3-100.3,33.7-147.9l2.4,0.4C605.3,156,605,161,604.5,166.1z"/>
<path class="st1" d="M60.3,277.6H28.5c-1.4,0-2.7-0.6-3.5-1.7c-0.8-1.1-1.2-2.4-0.9-3.7c3-13.4,2.8-27.3-0.6-40.5
	c-0.4-1.8,0.3-3.7,1.7-4.7c16.4-11.8,29.2-11.4,38.3,1c0.4,0.6,0.7,1.2,0.8,1.9c2.4,14.5,2.6,29.4,0.4,43.9
	C64.5,276,62.6,277.6,60.3,277.6z"/>
<path class="st2" d="M50.5,245.8H39.5c-1.3,0-2.3-1-2.3-2.3c0-1.3,1-2.3,2.3-2.3h10.9c1.3,0,2.3,1,2.3,2.3
	C52.7,244.8,51.7,245.8,50.5,245.8L50.5,245.8z"/>
<path class="st2" d="M50.5,253.8H39.5c-1.3,0-2.3-1-2.3-2.3c0-1.3,1-2.3,2.3-2.3h10.9c1.3,0,2.3,1,2.3,2.3
	C52.7,252.8,51.7,253.8,50.5,253.8L50.5,253.8z"/>
<path class="st2" d="M50.5,261.8H39.5c-1.3,0-2.3-1-2.3-2.3c0-1.3,1-2.3,2.3-2.3h10.9c1.3,0,2.3,1,2.3,2.3
	C52.7,260.8,51.7,261.8,50.5,261.8L50.5,261.8z"/>
<path class="st1" d="M638.3,419.6h-31.8c-1.4,0-2.7-0.6-3.5-1.7c-0.8-1.1-1.2-2.4-0.9-3.7c3-13.4,2.8-27.3-0.6-40.5
	c-0.4-1.8,0.3-3.7,1.7-4.7c16.4-11.8,29.2-11.4,38.3,1c0.4,0.6,0.7,1.2,0.8,1.9c2.4,14.5,2.6,29.4,0.4,43.9
	C642.5,418,640.6,419.6,638.3,419.6z"/>
<path class="st2" d="M628.5,387.8h-10.9c-1.3,0-2.3-1-2.3-2.3c0-1.3,1-2.3,2.3-2.3h10.9c1.3,0,2.3,1,2.3,2.3
	C630.7,386.8,629.7,387.8,628.5,387.8L628.5,387.8z"/>
<path class="st2" d="M628.5,395.8h-10.9c-1.3,0-2.3-1-2.3-2.3c0-1.3,1-2.3,2.3-2.3h10.9c1.3,0,2.3,1,2.3,2.3
	C630.7,394.8,629.7,395.8,628.5,395.8L628.5,395.8z"/>
<path class="st2" d="M628.5,403.8h-10.9c-1.3,0-2.3-1-2.3-2.3c0-1.3,1-2.3,2.3-2.3h10.9c1.3,0,2.3,1,2.3,2.3
	C630.7,402.8,629.7,403.8,628.5,403.8L628.5,403.8z"/>
<path class="st3" d="M758.7,614.1c0,0.7-0.5,1.2-1.2,1.2c0,0,0,0,0,0H1.2c-0.7,0-1.2-0.5-1.2-1.2s0.5-1.2,1.2-1.2l0,0h756.3
	C758.1,612.9,758.7,613.5,758.7,614.1C758.7,614.1,758.7,614.1,758.7,614.1z"/>
<path class="st0" d="M199.5,541.3l-2-27.6c-13-6.5-27.4-9.7-41.9-9.4c20.4,15.8,18.8,47.4,32.9,69c9,13.6,23.8,22.3,40,23.7l17,9.8
	c3.9-26-3.7-52.5-20.9-72.3c-4.8-5.5-10.3-10.3-16.4-14.4C204.6,530.7,199.5,541.3,199.5,541.3z"/>
<path class="st0" d="M559.2,545.3l2-27.6c13-6.5,27.4-9.7,41.9-9.4c-20.4,15.8-18.8,47.4-32.9,69c-9,13.6-23.8,22.3-40,23.7l-17,9.8
	c-3.9-26,3.7-52.5,20.9-72.3c4.8-5.5,10.3-10.3,16.4-14.4C554.1,534.7,559.2,545.3,559.2,545.3z"/>
<circle class="st4" cx="370.3" cy="214.9" r="19"/>
<path class="st2" d="M380.1,207c-0.6-0.6-1.5-0.6-2.1,0c-4,3.2-7.7,6.9-10.8,11c-0.8-1.5-1.5-3-2.3-4.5c-0.9-1.7-3.5-0.2-2.6,1.5
	c1.1,2.2,2.2,4.3,3.4,6.5c0.4,0.7,1.4,0.9,2.1,0.5c0.2-0.1,0.4-0.3,0.5-0.5c3.3-4.7,7.3-8.9,11.8-12.5
	C380.7,208.6,380.7,207.6,380.1,207z"/>
<path class="st5" d="M285.3,268.8l-28.7-45l33.2-17.8l8.7,34.3l61.4,33.2c6.9-2.5,14.5,1.1,17,8c2.5,6.9-1.1,14.5-8,17
	c-6.5,2.3-13.6-0.7-16.5-6.9L285.3,268.8z"/>
<path class="st6" d="M235.7,169.9c-9,13.2,23,61.3,23,61.3c1.6-3.4,16.5,34.4,19,32.1c7.1-6.3,18.2-24,24.4-24.8
	c3.5-0.4-8.2-25.5-8.2-25.5s-5.4-14.8-12.6-33.7c-4-10.9-13.3-19.1-24.6-21.5C256.6,157.8,244.7,156.6,235.7,169.9z"/>
<polygon class="st5" points="236.2,600.5 249.8,600.5 256.3,548 236.2,548 "/>
<path class="st7" d="M232.7,596l3.8,0l15-6.1l8,6.1h0c9.4,0,17.1,7.6,17.1,17.1v0.6l-43.9,0L232.7,596z"/>
<polygon class="st5" points="299.4,600.5 313,600.5 319.5,548 299.4,548 "/>
<path class="st7" d="M295.9,596l3.8,0l15-6.1l8,6.1h0c9.4,0,17.1,7.6,17.1,17.1v0.6l-43.9,0L295.9,596z"/>
<path class="st7" d="M305.3,313.6l-88.5,2.2c-16.8,9.1-17.1,28.9-11.6,52.4c0,0-1.9,13.9,1.9,17.7s5.6,3.7,3.7,10.2s8,17.1,6.8,18.3
	s-4,7.7-4,7.7l9.3,53c0,0,6.5,92,8.4,93.9c1.9,1.9,3.7,0,1.9,4.6c-1.9,4.6-3.7,2.8-1.9,4.6c1.6,1.8,3.2,3.6,4.6,5.6h22.5
	c0,0,1.7-9.3,1.7-10.2c0-0.9,1.9-6.5,1.9-7.4s-1.6-2.6-1.6-2.6c-0.6-1.9-1-3.8-1.1-5.8c0-1.9-5.6-73.4-5.6-73.4l11.2-93l27,91.1
	c0,0,0,80,1.9,81.8c1.9,1.9,1.9,0.9,0.9,4.6s-4.6,2.8-1.9,5.6c2.8,2.8,3.7-1.9,2.8,2.8l-0.9,4.6l27.9,0.4c0,0,3.7-7.8,1.9-10.6
	c-1.9-2.8-1.7-2,0.5-6.6c2.3-4.6,3.2-5.5,2.3-6.4c-0.9-0.9-0.9-5.9-0.9-5.9l-4.6-89c0,0-0.9-93.9-0.9-96.7c-0.1-1.4,0.2-2.9,0.8-4.2
	v-3.8l-3.6-13.4L305.3,313.6z"/>
<circle class="st5" cx="252.1" cy="102" r="27.5"/>
<path class="st6" d="M265.9,147.7c5.9,3.5,9.5,10,11.5,16.6c3.8,12.2,6,24.8,6.8,37.5l2.1,38.1l26.6,81.2
	c-23.1,19.5-109.8,4.4-109.8,4.4s-2.7-0.9,0-3.5s5.3-0.3,2.6-3s-0.8,0.3,0.1-2.4s0-0.9-0.9-1.8s6.9-8.9,6.9-8.9l-7.1-46.6l-8.9-94
	c10.6-13.3,32.1-21.2,32.1-21.2l5.5-10l27.7,2.2L265.9,147.7z"/>
<path class="st7" d="M274.8,87.4c2.1,1.6,3.7,3.8,4.5,6.4c0.3-4.2,0.3-8.3,0.1-12.5c-0.3-2.9-2.4-3.6-4.8-4.3
	c-2.1-0.7-4.6-1.5-5.2-4.3c-8.6-8.4-23.7-8-34-5.1c-5.7,1.6-8.9,3.7-9.2,4.9l-0.1,0.3l-0.2,0.1c-4.4,2.2-5.2,9.1-5.2,14.5
	c0.1,10.2,3.6,21.7,5.6,22.7c0.1,0,0.1,0,0.2,0l0,0c3-2.4,6.6,0.2,8.2,1.6c1.9-13,12.5-23,25.6-24.3c2.1-0.2,4.1-0.5,6.2-1
	c1-0.3,2.1-0.4,3.2-0.4C271.5,85.8,273.3,86.4,274.8,87.4z"/>
<path class="st8" d="M445.5,335.5l52.9-53.7l13.9-43l-22.4-9.1c-11.1,11.2-22.5,45.5-22.5,45.5l-36.1,48.5c-0.3,0.1-0.6,0.2-0.9,0.4
	c-5.3,2.5-7.6,8.9-5.1,14.2c2.5,5.3,8.9,7.6,14.2,5.1C442.7,341.9,444.9,338.9,445.5,335.5z"/>
<path class="st4" d="M483.8,234.6l28.4,8.2l0.1,0c10.4-2,18.7-19.4,23.8-33.5c3.5-9.7-1.2-20.4-10.6-24.6l0,0
	c-6.9-2.9-14.8-1.7-20.5,3.1L490.8,200L483.8,234.6z"/>
<polygon class="st8" points="459.5,598.9 444.3,598.9 437,540.1 459.5,540.1 "/>
<path class="st7" d="M463.4,593.9l-4.3,0l-16.8-6.8l-9,6.8h0c-10.6,0-19.1,8.6-19.1,19.1v0.6l49.2,0L463.4,593.9z"/>
<polygon class="st8" points="527.2,598.9 512,598.9 504.7,540.1 527.2,540.1 "/>
<path class="st7" d="M531.1,593.9l-4.3,0l-16.8-6.8l-9,6.8h0c-10.6,0-19.1,8.6-19.1,19.1v0.6l49.2,0L531.1,593.9z"/>
<path class="st7" d="M550.5,345.5c0,0,1.8,21.4-2.7,41.9c-4.5,20.5-4.5,78.2-4.5,78.2l-9.8,112.4l-29.4-2.7l-8-187.9l-28.5,63.2
	l2.7,8.9l-3.6,2.2c0,0,2.7,17.4,0.9,17.4s-6.2,2.7-6.2,2.7l3.6,91.7l-30.3-0.9L424,443.4l11.6-73.9l0.9-14.2l4,0.2l2-6l3.7-10.2
	L550.5,345.5z"/>
<path class="st4" d="M552,350l0.2-0.2c8.5-11.9-4.3-40.4-6.2-44.5l8.1-2.6l-1.8-15.5l-0.9-6.9l6.2-6.2l0-0.2l3.6-31.2l5.2-20.7
	c4-15.9-1-32.8-12.9-44l-12-11.3l-14.5-21.5h-23.5l-8,15.2c-16.1,3.7-27.2,18.4-26.5,34.9l1.8,39.9l-7.1,49.6l0,9l-8,8.9l1.8,8.8
	l-6.1,2.6l-2.7,12.6c-1.1,1.5-8.5,11.3-8.5,14c0,0.4,0.3,0.8,0.9,1.2c5,3.4,32.8,10.3,45.1,5.4c13.1-5.2,65.1,2.6,65.7,2.7L552,350z
	"/>
<circle class="st8" cx="512.1" cy="107.1" r="31.1"/>
<path class="st7" d="M509.2,138.6c4.8,0,9.6-0.5,14.3-1.4c4.7-1.1,15-9.1,17.8-13.8l0,0c2.1-3.5,3.4-8.9,4-12.9
	c1.9-10.5-0.8-21.4-7.4-29.8c-1.3-1.7-3-3.1-4.9-4c-0.2-0.1-0.4-0.1-0.5-0.2c-2.9-0.7-5.4-2.2-7.4-4.3c-0.4-0.4-0.8-0.8-1.2-1.2
	c-2.2-1.8-4.9-3-7.7-3.6c-4.5-1.1-11,0.3-19.3,4.1c-4.1,1.9-8.7,1.4-12.3,0.7c-0.4-0.1-0.8,0.1-1.1,0.4c-1.5,1.4-3.4,2.3-5.5,2.3
	c-1.3,0.1-2.5,1.9-4.1,4.2c-0.3,0.5-0.8,1.1-1.1,1.5l-0.1-0.7l-0.7,0.8c-3.6,4.1-3.1,10.4,1,13.9c1.1,1,2.4,1.7,3.8,2
	c1.3,0.3,2.6,0.5,3.9,0.5c0.8,0.1,1.6,0.1,2.4,0.2c5.2,0.9,9.5,4.5,11.3,9.4c0.8,2,3,3,5,2.2c0.3-0.1,0.6-0.3,0.9-0.5
	c1.6-1.3,3.8-1.8,5.8-1.2c0.9,0.5,1.6,1.2,1.9,2.1c0.5,1,1.2,1.8,2.2,2.4c3.2,1.6,3.6,8.9,2.7,15c-1,5.9-3,10.2-5,10.4
	c-1.6,0.2-1.7,0.3-1.8,0.6l-0.1,0.2l0.2,0.2C507.3,138.6,508.3,138.7,509.2,138.6z"/>
<path class="st8" d="M483.4,237.9l-14.9-19c-15.2,4.2-42.2,28.3-42.2,28.3l-55.4,24.1c-5.8-1-11.3,2.9-12.3,8.8
	c-1,5.8,2.9,11.3,8.8,12.3c3.8,0.6,7.6-0.8,10-3.8l72.6-20.3L483.4,237.9z"/>
<path class="st4" d="M479.8,242.3l23.6-26.3l1.3-18.6c0.5-7.5-3.3-14.5-9.7-18.3l0,0c-9-5.1-20.3-2.4-26,6.2
	c-8.3,12.6-17.3,29.5-12.7,39.1l0,0.1L479.8,242.3z"/>
<path class="st1" d="M262.6,341l-61.3-31.4c-4.4-2.2-5.8-8.2-3.2-13.2l39.9-78c2.6-5,8.2-7.3,12.6-5.1l61.3,31.4
	c4.4,2.2,5.8,8.2,3.2,13.2l-39.9,78C272.6,341,266.9,343.3,262.6,341z"/>
<path class="st2" d="M252.1,326.6l-41.6-21.3c-4.1-2.1-5.4-7.6-3-12.4l33.2-64.8c2.4-4.7,7.7-6.9,11.8-4.8l50.3,25.7
	c4.1,2.1,5.4,7.6,3,12.4l-18,35.2C276.9,317.7,270.3,335.9,252.1,326.6z"/>
<path class="st4" d="M272.7,291.2l-36.9-18.9c-1-0.7-1.3-2.2-0.5-3.2c0.6-0.8,1.7-1.2,2.6-0.8l36.9,18.9c1,0.7,1.3,2.2,0.5,3.2
	C274.7,291.2,273.7,291.6,272.7,291.2z"/>
<path class="st4" d="M240.1,284.7l-8.4-4.3c-1-0.7-1.3-2.2-0.5-3.2c0.6-0.8,1.7-1.2,2.6-0.8l8.4,4.3c1,0.7,1.3,2.2,0.5,3.2
	C242.2,284.7,241.1,285,240.1,284.7z"/>
<path class="st4" d="M250.9,300.4l-23.3-11.9c-1-0.7-1.3-2.2-0.5-3.2c0.6-0.8,1.7-1.2,2.6-0.8l23.3,11.9c1,0.7,1.3,2.2,0.5,3.2
	C253,300.3,251.9,300.7,250.9,300.4L250.9,300.4z"/>
<path class="st4" d="M287.3,262.8l-36.9-18.9c-1-0.7-1.3-2.2-0.5-3.2c0.6-0.8,1.7-1.2,2.6-0.8l36.9,18.9c1,0.7,1.3,2.2,0.5,3.2
	C289.3,262.7,288.2,263.1,287.3,262.8z"/>
<path class="st4" d="M254.7,256.2l-8.4-4.3c-1-0.7-1.3-2.2-0.5-3.2c0.6-0.8,1.7-1.2,2.6-0.8l8.4,4.3c1,0.7,1.3,2.2,0.5,3.2
	C256.7,256.2,255.7,256.5,254.7,256.2z"/>
<path class="st4" d="M265.5,271.9l-23.3-11.9c-1-0.7-1.3-2.2-0.5-3.2c0.6-0.8,1.7-1.2,2.6-0.8l23.3,11.9c1,0.7,1.3,2.2,0.5,3.2
	C267.5,271.9,266.5,272.2,265.5,271.9L265.5,271.9z"/>
<path class="st5" d="M211.8,273.2L198,221.6l37-7l-2,35.4l48.6,50c7.3-0.3,13.5,5.4,13.8,12.7c0.3,7.3-5.4,13.5-12.7,13.8
	c-6.9,0.3-12.8-4.7-13.7-11.6L211.8,273.2z"/>
<path class="st6" d="M194.2,163.9c-12.6,9.9,3.6,65.3,3.6,65.3c2.5-2.7,5.4,37.7,8.4,36.3c8.7-3.9,24.5-17.4,30.7-16.3
	c3.5,0.6-0.2-26.8-0.2-26.8s-0.7-15.7-1.9-35.9c-0.5-11.6-6.9-22.2-17-27.9C217.7,158.7,206.8,154,194.2,163.9z"/>
<path class="st1" d="M403.1,387.5l-33.4-15.8c-1.4-0.7-2.5-2-2.9-3.5c-0.4-1.5,0-3.1,1-4.4c9.7-12.4,16.3-26.8,19.4-42.3
	c0.5-2.4,2.6-4.2,5.1-4.2c17,0.1,29.8,6.3,37.9,18.5c0.9,1.3,1.1,2.9,0.7,4.4c-4.7,16.1-11.8,31.4-21.1,45.4
	C408.2,387.8,405.4,388.6,403.1,387.5z"/>
<path class="st2" d="M412.9,365.4l-25.6-12.1c-1.3-0.6-1.9-2.2-1.3-3.5c0.6-1.3,2.2-1.9,3.5-1.3l0,0l25.6,12.1
	c1.3,0.6,1.9,2.2,1.3,3.5C415.8,365.4,414.2,366,412.9,365.4L412.9,365.4z"/>
<path class="st2" d="M416.9,357l-25.6-12.1c-1.3-0.6-1.9-2.2-1.3-3.5c0.6-1.3,2.2-1.9,3.5-1.3l0,0l25.6,12.1
	c1.3,0.6,1.9,2.2,1.3,3.5C419.8,357,418.2,357.6,416.9,357L416.9,357L416.9,357z"/>
<path class="st0" d="M382.7,93l-2.4,0.3c-10.6-41.7-31.2-70.6-59.5-83.5c-36-16.5-80.4-5.4-125.2,31.1
	c-45,36.7-84.9,94.7-112.2,163.3l-2.3-1.1C108.6,134.3,148.6,76,193.9,39.1C239.4,1.9,284.8-9.2,321.7,7.7
	C350.8,21,371.9,50.5,382.7,93z"/>
<path class="st0" d="M120.2,147.3c-6.2,13.1-12.1,26.7-17.6,40.4c-31.4,78.7-47.3,159-46,232.4l-2.5-0.3
	c-1.3-73.6,14.6-154.3,46.1-233.2c5.5-13.7,11.4-27.3,17.6-40.5L120.2,147.3z"/>
<path class="st0" d="M119.1,201.4c-6.2,13.1-12.1,26.7-17.6,40.4c-31.4,78.7-47.3,159-46,232.4l-2.5-0.3
	c-1.3-73.6,14.6-154.3,46.1-233.2c5.5-13.7,11.4-27.3,17.6-40.5L119.1,201.4z"/>
<ellipse transform="matrix(0.5539 -0.8326 0.8326 0.5539 -159.3855 133.2878)" class="st3" cx="44.7" cy="215.4" rx="8.9" ry="10.2"/>
<ellipse transform="matrix(0.5539 -0.8326 0.8326 0.5539 -24.4661 679.2395)" class="st3" cx="621.6" cy="362.5" rx="8.9" ry="10.2"/>
</svg>
