<?xml version="1.0" encoding="utf-8"?>
<!-- Generator: Adobe Illustrator 24.0.1, SVG Export Plug-In . SVG Version: 6.00 Build 0)  -->
<svg version="1.1" id="Calque_1" xmlns="http://www.w3.org/2000/svg" xmlns:xlink="http://www.w3.org/1999/xlink" x="0px" y="0px"
	 viewBox="0 0 743.7 416.5" style="enable-background:new 0 0 743.7 416.5;" xml:space="preserve">
<style type="text/css">
	.st0{fill:#E6E6E6;}
	.st1{fill:#CCCCCC;}
	.st2{fill:#CE4500;}
	.st3{fill:#FFB8B8;}
	.st4{fill:#111111;}
	.st5{fill:#555555;}
	.st6{fill:#FFFFFF;}
	.st7{fill:#A0616A;}
	.st8{fill:#2F2E41;}
	.st9{fill:#F2F2F2;}
</style>
<path class="st0" d="M515.8,132.2h-14.1c-0.9,0-1.7-0.7-1.8-1.6l-2.8-29h23.4l-2.8,29C517.5,131.4,516.7,132.2,515.8,132.2z"/>
<path class="st1" d="M520.4,105.2H497c-1,0-1.8-0.8-1.8-1.8V99c0-1,0.8-1.8,1.8-1.8h23.4c1,0,1.8,0.8,1.8,1.8v4.4
	C522.2,104.3,521.4,105.2,520.4,105.2z"/>
<path class="st2" d="M350.4,101h-56V84c17.7-12.3,33.4-11.2,54,1L350.4,101z"/>
<polygon class="st3" points="281.4,403 269.2,403 267.3,355.7 281.4,355.7 "/>
<path class="st4" d="M284.6,414.8l-39.5,0v-0.5c0-8.5,6.9-15.4,15.4-15.4c0,0,0,0,0,0h0l24.1,0L284.6,414.8z"/>
<polygon class="st3" points="350.5,403 362.7,403 364.6,355.7 350.5,355.7 "/>
<path class="st4" d="M347.4,399l24.1,0h0c8.5,0,15.4,6.9,15.4,15.4c0,0,0,0,0,0v0.5l-39.5,0L347.4,399z"/>
<path class="st4" d="M350.8,396.9c-2.1,0-3.9-1.5-4.4-3.5L316,260.8c-0.1-0.7-0.8-1.2-1.5-1.2h0c-0.7,0-1.3,0.5-1.5,1.2l-27.9,131.6
	c-0.4,2.1-2.3,3.6-4.4,3.6h-13.3c-2.5,0-4.5-2-4.5-4.5c0-0.1,0-0.2,0-0.3l9.9-166.9l4-1.2l0.1,0l78.3,0.7l16.7,166.7
	c0.2,2.5-1.6,4.7-4,4.9c0,0-0.1,0-0.1,0l-16.6,1.3C351,396.9,350.9,396.9,350.8,396.9z"/>
<circle class="st3" cx="318.5" cy="46" r="24.6"/>
<path class="st5" d="M303.4,242.7c-4.3,0.1-8.6-0.6-12.7-1.8c-7.4-2.2-13.6-7.4-17-14.4c-0.5-1-0.7-2.2-0.3-3.4
	c2.7-9.2,15.8-57.3,7.4-95.5c-2.4-10.7-0.3-22,5.8-31.1c5.9-9.1,15.3-15.4,25.9-17.4l0,0c1.4-0.3,2.8-0.5,4.1-0.7
	c11.8-1.5,23.6,2.4,32.3,10.6c8.9,8.3,13.6,20.2,12.8,32.4l-6.4,103c-0.1,1.6-1,3-2.4,3.7C345.5,232.1,323.3,242.7,303.4,242.7z"/>
<path class="st4" d="M346.2,27.9c-5.3-13.2-19-21-33.1-18.6l7.7,6.3c-9.6,0.3-19.7-0.4-26.6,6.4c2.2-0.1,5.1,4.6,7.2,4.6
	c-4.1,0.1-7.8,3-9.6,6.6c-1.7,3.8-2.1,8-1.1,12c0.8,4,7,13.4,8.6,17.1c-0.3-9.8,18.9-33.1,28.3-30.6c-4.8,1.8-8.9,4.9-11.9,9
	c6.4-3.2,13.6-4.4,20.7-3.4c1.6,0.4,3.3,0.5,4.9,0.3c3.3-0.6,5.4-3.8,4.7-7.1c-0.2-0.9-0.6-1.8-1.2-2.5L346.2,27.9z"/>
<path class="st2" d="M301.8,236.5c-0.6,0-1.2-0.1-1.8-0.4l-46.6-20.3c-2-0.9-3.1-3.1-2.6-5.3L281.6,94c2.4-9,11.6-14.4,20.6-12
	c0.1,0,0.2,0.1,0.3,0.1l12.3,3.5l-8.7,146.7c-0.1,1.5-0.9,2.8-2.1,3.6C303.4,236.3,302.6,236.5,301.8,236.5z"/>
<path class="st2" d="M388,210.5l-2.1-7.7l-3-11.2l-1.4-5.4l-3-11.2l-21.4-81c-2.4-9-11.6-14.4-20.6-12c-0.1,0-0.2,0.1-0.4,0.1
	l-12.3,3.5l6.1,103.2l0.6,10.8l0.4,6.8v0l0.6,10.7l0.9,15.2c0.2,2.4,2.1,4.2,4.5,4.2c0.6,0,1.2-0.1,1.8-0.4l46.6-20.3
	C387.5,215,388.6,212.7,388,210.5z"/>
<polygon class="st1" points="381.5,186.2 330.6,199.6 330,188.8 378.6,175 "/>
<polygon class="st1" points="386,202.8 331.7,217.1 331,206.4 331,206.4 383,191.6 "/>
<polygon class="st1" points="308.2,191.1 307.5,201.7 257.6,186.8 260.5,175.8 "/>
<polygon class="st1" points="307.1,208.6 256.2,192.2 253.2,203.3 306.5,219.2 "/>
<path class="st3" d="M257.1,219.7c5.7-1.5,9.2-7.4,7.7-13.1c-0.2-0.6-0.4-1.2-0.6-1.8l24-75.2l-17-3.6l-22,73.8
	c-5.2,2.8-7.2,9.4-4.3,14.6C247.2,218.8,252.2,221,257.1,219.7L257.1,219.7z"/>
<path class="st4" d="M288.7,92.6L288.7,92.6c4.9,0.5,7.6,6,6.4,12.8l-5.8,32.8c-0.4,2.5-2.5,4.4-4.1,4l-19.7-4.9
	c-1.5-0.4-2.1-2.5-1.2-4.7l11.8-29.7C278.7,96.5,284,92.1,288.7,92.6z"/>
<path class="st2" d="M318.4,0L318.4,0c17.3,0,31.4,13.7,32,31h6c1.1,0,2,0.9,2,2v8c0,1.1-0.9,2-2,2h-68c-1.1,0-2-0.9-2-2v-9
	C286.4,14.3,300.7,0,318.4,0C318.4,0,318.4,0,318.4,0z"/>
<path class="st0" d="M322.2,197.8h-14.1c-0.9,0-1.7-0.7-1.8-1.6l-2.8-29h23.4l-2.8,29C324,197.1,323.2,197.8,322.2,197.8z"/>
<path class="st1" d="M326.8,170.8h-23.4c-1,0-1.8-0.8-1.8-1.8v-4.4c0-1,0.8-1.8,1.8-1.8h23.4c1,0,1.8,0.8,1.8,1.8v4.4
	C328.7,170,327.8,170.8,326.8,170.8z"/>
<path class="st3" d="M315.5,182.3c0.5,0.1,1.1,0.2,1.6,0.3l37.6-32.3l-2.2-11.8l17.4-5.7l5.9,20.6c1,3.4-0.4,7.1-3.4,9l-47.7,30.2
	c0.1,5.8-4.5,10.6-10.3,10.7c-5.8,0.1-10.6-4.5-10.7-10.3c-0.1-5.8,4.5-10.6,10.3-10.7C314.6,182.2,315,182.2,315.5,182.3
	L315.5,182.3z"/>
<path class="st4" d="M354.8,95.3L354.8,95.3c5.2-1.5,10.4,2.5,12.2,9.3l8.4,32.4c0.6,2.4-0.6,5-2.5,5.3l-22.3,3.2
	c-1.7,0.2-3.2-1.5-3.3-3.8l-0.9-31.9C346.2,102.8,349.8,96.7,354.8,95.3z"/>
<path class="st1" d="M654.7,302.5c-10.3-13.7-18.4-28.8-24.1-44.9c-0.7-2,0.2-4.2,2-5.2l35.1-18.8c1.2-0.6,2.5-0.7,3.7-0.2
	c1.2,0.5,2.1,1.6,2.5,2.9c4.1,15.5,11.8,29.9,22.4,41.9c0.9,1,1.3,2.3,1,3.6c-0.2,1.3-1,2.4-2.2,3l-35.1,18.8
	C658.2,304.6,655.9,304.1,654.7,302.5z"/>
<path class="st6" d="M657.1,300.7c0.4,0.5,1.1,0.6,1.6,0.3l35.1-18.8c0.3-0.2,0.6-0.5,0.7-0.9c0.1-0.4,0-0.8-0.3-1.1
	c-11-12.4-18.9-27.1-23.1-43.1c-0.1-0.4-0.4-0.7-0.8-0.9c-0.4-0.2-0.8-0.1-1.1,0L634,255c-0.5,0.3-0.8,0.9-0.6,1.5
	C639,272.4,647,287.3,657.1,300.7L657.1,300.7z"/>
<path class="st1" d="M670.1,260.4l-19.1,8.4c-1.5,0.7-3.3,0-4-1.5l-0.5-1.1c-0.7-1.5,0-3.3,1.5-4l19.1-8.4c1.5-0.7,3.3,0,4,1.5
	l0.5,1.1C672.3,258,671.6,259.7,670.1,260.4z"/>
<path class="st1" d="M677.1,273.4l-19.1,8.4c-1.5,0.7-3.3,0-4-1.5l-0.5-1.1c-0.7-1.5,0-3.3,1.5-4l19.1-8.4c1.5-0.7,3.3,0,4,1.5
	l0.5,1.1C679.3,271,678.6,272.7,677.1,273.4z"/>
<path class="st7" d="M632.2,262.6c-5-3.2-6.4-9.9-3.2-14.8c0.3-0.5,0.7-1,1.2-1.5L622,131.7l23.3,2.3l0.6,112.2
	c4.1,4.3,3.9,11.2-0.4,15.3C641.9,264.8,636.4,265.3,632.2,262.6L632.2,262.6z"/>
<path class="st4" d="M627.3,170.2c-1.1-0.8-1.8-2-1.9-3.4l-1.7-30.9c-0.4-6.8,4.9-12.7,11.7-13.1c5.8-0.3,11.1,3.5,12.6,9.1
	l7.5,27.6c0.6,2.4-0.8,4.9-3.2,5.5l-21.3,5.8C629.8,171.2,628.4,171,627.3,170.2z"/>
<polygon class="st7" points="587.7,403.4 575.4,403.4 569.6,356.1 587.7,356.1 "/>
<path class="st8" d="M566.7,399.9h23.6l0,0v14.9l0,0h-38.5l0,0l0,0C551.8,406.6,558.4,399.9,566.7,399.9L566.7,399.9z"/>
<polygon class="st7" points="633.7,403.4 621.4,403.4 615.6,356.1 633.7,356.1 "/>
<path class="st8" d="M612.7,399.9h23.6l0,0v14.9l0,0h-38.5l0,0l0,0C597.8,406.6,604.4,399.9,612.7,399.9L612.7,399.9z"/>
<path class="st4" d="M587.1,379.6l-13.5-0.6c-2.4-0.1-4.3-2.1-4.3-4.5c-3.6-54.9-8.5-113.8-0.9-136.6c0-2.5,2-4.5,4.5-4.5
	c0.2,0,0.5,0,0.7,0l54,7.8c2.2,0.3,3.8,2.2,3.9,4.4c6.9,26.9,7.2,75.8,6.9,126.5c0,2.5-2,4.5-4.5,4.5c0,0,0,0,0,0h-14.5
	c-2.2,0-4.1-1.6-4.4-3.8l-9-57.1c-0.3-1.9-2.1-3.2-4-2.9c-1.5,0.2-2.7,1.5-2.9,3l-7.1,59.6c-0.3,2.3-2.2,4-4.5,4
	C587.2,379.6,587.2,379.6,587.1,379.6z"/>
<path class="st5" d="M596.6,245.7c-11.9-6.6-21.2-8.3-25.7-8.8c-1.2-0.1-2.3-0.7-3.1-1.7c-0.8-1-1.1-2.2-0.9-3.4l12.9-96.1
	c1.5-11.4,8.8-21.2,19.4-26c10.2-4.7,22.1-3.7,31.4,2.5c0.4,0.3,0.9,0.6,1.3,0.9c10.8,7.9,15.8,21.6,12.6,34.6
	c-7.9,32.5-10.7,85.7-11.1,96c-0.1,1.8-1.2,3.4-2.9,4c-4.9,1.8-10,2.7-15.2,2.7C608.8,250.5,602.3,248.9,596.6,245.7z"/>
<circle class="st7" cx="607.4" cy="72.2" r="24.6"/>
<path class="st4" d="M624.8,91.7c-4.6,4.9-13.1,2.3-13.7-4.4c0-0.5,0-1,0-1.6c0.3-3,2-5.6,1.6-8.8c-0.1-0.8-0.4-1.5-0.8-2.1
	c-3.7-4.9-12.2,2.2-15.7-2.2c-2.1-2.7,0.4-7-1.3-10c-2.1-4-8.5-2-12.5-4.2c-4.4-2.4-4.2-9.2-1.2-13.4c3.6-5,9.8-7.7,15.9-8.1
	s12.3,1.3,18,3.5c6.5,2.5,13,6.1,17,11.8c4.9,7,5.3,16.3,2.9,24.5C633.6,81.6,628.5,87.7,624.8,91.7z"/>
<path class="st2" d="M644.3,115.5c-0.4-2-4.1-4.8-9.4-7c-17.2-7-36.7-5.3-52.5,4.5c-1.1,0.1-2.1,0.9-2.3,2l-17.8,78.5l-2.3,10.2
	l-1.5,6.8l-2.3,10.2l-1.2,5.5c-0.3,1.4,0.5,2.7,1.9,3c0.1,0,0.2,0,0.3,0.1l76.7,6.6c0.1,0,0.1,0,0.2,0c1.3,0,2.4-1,2.5-2.3l0.7-11.1
	l0.8-11.9l0.3-5.1l0.8-11.9l5.1-77.8L644.3,115.5L644.3,115.5z"/>
<path class="st7" d="M518.4,120.5c0.1,0.5,0.2,1.1,0.2,1.6l43,24.8l10.4-6l11.1,14.6l-22.3,15.9l-49-38.7c-5.4,2-11.5-0.8-13.5-6.2
	c-2-5.4,0.8-11.5,6.2-13.5c5.4-2,11.5,0.8,13.5,6.2C518.2,119.6,518.3,120.1,518.4,120.5L518.4,120.5z"/>
<path class="st4" d="M563.1,144.8c-0.1-1.4,0.3-2.7,1.3-3.7l21.9-21.9c4.8-4.8,12.7-4.8,17.5,0c4.1,4.1,4.8,10.6,1.6,15.5l-15.6,24
	c-1.4,2.1-4.1,2.7-6.2,1.3l-18.5-12C564,147.4,563.3,146.1,563.1,144.8z"/>
<polygon class="st1" points="639.2,193.5 638.4,205.4 560,203.7 562.3,193.5 "/>
<polygon class="st1" points="638,210.5 637.3,222.4 556.2,220.7 558.5,210.5 "/>
<path class="st2" d="M607.9,24.5L607.9,24.5c-17.3,0-31.4,13.7-32,31h-6c-1.1,0-2,0.9-2,2v8c0,1.1,0.9,2,2,2h68c1.1,0,2-0.9,2-2v-9
	C639.9,38.8,625.6,24.5,607.9,24.5C607.9,24.5,607.9,24.5,607.9,24.5z"/>
<path class="st0" d="M108.1,343.1c-12.9,4.5-27.2,2-37.7-6.6c-13.2-11.1-17.4-29.4-20.7-46.3l-10-50l20.9,14.4
	c15,10.3,30.4,21,40.8,36s14.9,35.4,6.6,51.6"/>
<path class="st9" d="M106.3,403.6c2.1-15.4,4.3-31,2.8-46.5c-1.3-13.8-5.5-27.3-14.1-38.4c-4.6-5.9-10.1-10.9-16.4-14.8
	c-1.6-1-3.1,1.6-1.5,2.6c10.9,6.9,19.3,17,24,29c5.2,13.3,6.1,27.8,5.2,41.9c-0.5,8.5-1.7,17-2.9,25.5c-0.2,0.8,0.3,1.6,1,1.8
	C105.3,404.9,106.1,404.4,106.3,403.6L106.3,403.6z"/>
<path class="st0" d="M86,376.4c-5.5,8.4-15,13.3-25.1,12.9c-12.7-0.6-23.3-9.5-32.8-17.9L0,346.6l18.6-0.9
	c13.4-0.6,27.1-1.2,39.9,2.9s24.5,14.1,26.9,27.3"/>
<path class="st9" d="M112.3,412.5c-10.2-18-22-38-43-44.4c-5.9-1.8-12-2.4-18.1-1.9c-1.9,0.2-1.4,3.1,0.5,3
	c10.2-0.8,20.4,1.9,28.9,7.6c8.1,5.5,14.5,13.3,19.9,21.4c3.3,5,6.2,10.2,9.2,15.4C110.5,415.4,113.3,414.2,112.3,412.5L112.3,412.5
	z"/>
<path class="st1" d="M742.7,416.5h-712c-0.6,0-1-0.4-1-1s0.4-1,1-1h712c0.6,0,1,0.4,1,1S743.3,416.5,742.7,416.5z"/>
</svg>
