<?xml version="1.0" encoding="utf-8"?>
<!-- Generator: Adobe Illustrator 24.0.0, SVG Export Plug-In . SVG Version: 6.00 Build 0)  -->
<svg version="1.1" id="Calque_1" xmlns="http://www.w3.org/2000/svg" xmlns:xlink="http://www.w3.org/1999/xlink" x="0px" y="0px"
	 viewBox="0 0 400 400" style="enable-background:new 0 0 400 400;" xml:space="preserve">
<style type="text/css">
	.st0{opacity:0.1;fill:#CE4500;enable-background:new    ;}
	.st1{opacity:0.15;}
	.st2{fill:#65617D;}
	.st3{fill:#DCE0ED;}
	.st4{opacity:0.1;enable-background:new    ;}
	.st5{fill:#F0F0F4;}
	.st6{fill:#636780;}
	.st7{opacity:0.1;fill:#FFFFFF;enable-background:new    ;}
	.st8{fill:#CE4500;}
	.st9{opacity:0.15;enable-background:new    ;}
	.st10{fill:#A8A8A8;}
	.st11{opacity:0.2;enable-background:new    ;}
	.st12{opacity:0.5;}
	.st13{fill:none;stroke:#535461;stroke-width:0.6205;stroke-miterlimit:10;}
	.st14{fill:#8CD0F3;}
	.st15{opacity:0.1;fill:#8CD0F3;enable-background:new    ;}
	.st16{fill:#1C1C1C;}
	.st17{fill:#111111;}
	.st18{opacity:0.2;fill:#FFFFFF;enable-background:new    ;}
	.st19{fill:#232323;}
	.st20{opacity:0.2;fill:none;stroke:#FFFFFF;stroke-width:0.3103;stroke-miterlimit:10;enable-background:new    ;}
	.st21{opacity:5.000000e-02;enable-background:new    ;}
	.st22{opacity:5.000000e-02;}
	.st23{fill:none;}
</style>
<g>
	<g>
		<g>
			<path class="st0" d="M327.4,102.5l-29.7,1.6c-1.4,0-2.6-1.1-2.6-2.5c0-1.4,1-2.5,2.3-2.6l5.1-0.3c-1.4,0.1-2.6-1-2.7-2.4
				s1-2.6,2.4-2.7l-3.7,0.2c-1.4,0-2.6-1.1-2.6-2.5c0-1.4,1-2.5,2.3-2.6l15.5-0.8c-3.5-1.4-7.6-2.3-12.3-2.7
				c-42.5-3.2-57.4,1.2-62.5,5.2c-6.3,4.9-13.5,8.6-21.2,10.7c-25.8,6.7-74.1,15.8-119,4.2c-22.3-5.8-38,6.8-46.7,26.8l281.1-14.8
				c-0.7-5.7-2-10.8-4.3-15.3C328.6,102.2,328,102.5,327.4,102.5z"/>
			<path class="st0" d="M44.1,169.3c-0.5,11.5,0.5,23.1,3,34.4l260.9-4.2c6.8-8.7,12.4-18.3,16.6-28.5L44.1,169.3z M148.4,188.4
				l-5.1,0.3c1.4-0.1,2.7,0.9,2.8,2.3c0.1,1.4-0.9,2.7-2.3,2.8c-0.1,0-0.1,0-0.2,0l-29.7,1.6c-1.4,0-2.6-1.1-2.6-2.5
				c0-1.4,1-2.5,2.3-2.6l5.1-0.3c-1.4,0.1-2.6-1-2.7-2.4c-0.1-1.4,1-2.6,2.4-2.7l-3.7,0.2c-1.4,0-2.6-1.1-2.6-2.5
				c0-1.4,1-2.5,2.3-2.6l29.7-1.6c1.4,0,2.6,1.1,2.6,2.5c0,1.4-1,2.5-2.3,2.6l3.7-0.2c1.4-0.1,2.6,1,2.7,2.4
				C150.9,187.2,149.8,188.4,148.4,188.4L148.4,188.4z"/>
			<path class="st0" d="M333.3,117.3L49.4,139.2c-3,9.1-4.7,19.2-5.3,29.7l286.1-15.1c1.5-6.2,2.6-12.5,3.1-18.9
				C333.9,128.7,334,122.8,333.3,117.3z M101.1,152.3l-5.1,0.3c1.4-0.1,2.7,0.9,2.8,2.3c0.1,1.4-0.9,2.7-2.3,2.8c-0.1,0-0.1,0-0.2,0
				l-29.7,1.6c-1.4,0-2.6-1.1-2.6-2.5c0-1.4,1-2.5,2.3-2.6l5.1-0.3c-1.4,0.1-2.6-1-2.7-2.4c-0.1-1.4,1-2.6,2.4-2.7l-3.7,0.2
				c-1.4,0-2.6-1.1-2.6-2.5c0-1.4,1-2.5,2.3-2.6l29.7-1.6c1.4,0,2.6,1.1,2.6,2.5c0,1.4-1,2.5-2.3,2.6l3.7-0.2c1.4-0.1,2.6,1,2.7,2.4
				C103.6,151,102.6,152.2,101.1,152.3z"/>
		</g>
	</g>
	<g>
		<ellipse class="st1" cx="197.2" cy="261.5" rx="186" ry="58"/>
		<g>
			<path class="st2" d="M145.2,146.9c3.3,4.6,5.8,18,6.5,22l5.9-0.1c-0.3-3.5-7.1-17.6-9-21.4C147.5,147.2,146.3,147,145.2,146.9z"
				/>
			
				<rect x="71.5" y="144.4" transform="matrix(1.888322e-02 -0.9998 0.9998 1.888322e-02 -73.7841 216.2652)" class="st3" width="3.7" height="2.6"/>
			<path class="st4" d="M72,143.9l0,1.2c0.2,0.1,0.4,0.1,0.6,0.1l2,0l0-1.2L72,143.9z"/>
			<path class="st3" d="M75.9,134.6l-2.5,0c-1.2,0-2.3,0.7-2.8,1.8c-0.8,1.8-1.4,4.6,0.1,7.4c0.4,0.6,1,1,1.8,1.1l3.1,0L75.9,134.6z
				"/>
			
				<ellipse transform="matrix(1.888322e-02 -0.9998 0.9998 1.888322e-02 -65.3318 212.8924)" class="st5" cx="75.8" cy="139.7" rx="5.1" ry="2.6"/>
			
				<rect x="94.8" y="144.7" transform="matrix(1.888322e-02 -0.9998 0.9998 1.888322e-02 -51.4115 239.5666)" class="st3" width="3.2" height="2.6"/>
			<path class="st4" d="M95.1,144.4l0,1c0.2,0.1,0.4,0.1,0.6,0.1l2,0l0-1.1L95.1,144.4z"/>
			<path class="st3" d="M99,135.1l-2.5,0c-1.2,0-2.3,0.7-2.8,1.8c-0.8,1.8-1.4,4.6,0.1,7.4c0.4,0.6,1,1,1.8,1.1l3.1,0L99,135.1z"/>
			
				<ellipse transform="matrix(1.888003e-02 -0.9998 0.9998 1.888003e-02 -43.1911 236.4128)" class="st5" cx="98.9" cy="140.2" rx="5.1" ry="2.6"/>
			<path class="st3" d="M98.3,137c0,0,1,0.2,0.4,1.4c-0.3,0.6-0.5,1.3-0.6,1.9c0,0-1,0.5-0.9-1.2C97.3,137.5,98.3,137,98.3,137z"/>
			
				<ellipse transform="matrix(1.888322e-02 -0.9998 0.9998 1.888322e-02 -20.1586 402.9757)" class="st6" cx="195.2" cy="211.8" rx="16.8" ry="15.3"/>
			<path class="st4" d="M189.8,195.9c8,0.7,14.2,8.1,14,17c-0.1,7.2-4.4,13.2-10.2,15.5c-8-0.7-14.2-8.1-14-17
				C179.7,204.3,184,198.2,189.8,195.9z"/>
			
				<ellipse transform="matrix(1.888307e-02 -0.9998 0.9998 1.888307e-02 -98.1268 245.6311)" class="st6" cx="76.1" cy="172.8" rx="16.2" ry="12.4"/>
			<path class="st4" d="M79.9,157.4c5.1,2.1,8.8,8.4,8.6,15.7c-0.1,7.9-4.6,14.3-10.3,15.7c-5.1-2.1-8.8-8.4-8.6-15.7
				C69.7,165.2,74.1,158.7,79.9,157.4z"/>
			<path class="st2" d="M122.8,170.2l-0.1-5.9c0,0,1.2-2.5,2.4-2.7c1.2-0.2,3.8-0.3,3.8-0.3s1.9,8.5,0.5,11
				C128,174.8,122.8,170.2,122.8,170.2z"/>
			<path class="st4" d="M122.8,170.2l-0.1-5.9c0,0,1.2-2.5,2.4-2.7c1.2-0.2,3.8-0.3,3.8-0.3s1.9,8.5,0.5,11
				C128,174.8,122.8,170.2,122.8,170.2z"/>
			<path class="st2" d="M144.1,170c0,0,0.9-8.1-3.6-8.4c-0.6,0-1.2-0.1-1.7-0.1c-3.1-0.4-11.6-1.2-10.6,0.8c0,0,1.9,7.1,0.5,8.9
				L144.1,170z"/>
			<path class="st2" d="M80.3,183.9l-6,0.1c0,0-0.8-11.1-1.2-12c-0.3-0.9-0.4-5,0.7-5.6s4.9-1.2,4.9-1.2l2.6,6.4l0.1,5.7L80.3,183.9
				z"/>
			<path class="st4" d="M80.3,183.9l-6,0.1c0,0-0.8-11.1-1.2-12c-0.3-0.9-0.4-5,0.7-5.6s4.9-1.2,4.9-1.2l2.6,6.4l0.1,5.7L80.3,183.9
				z"/>
			<path class="st2" d="M95.2,165.8l0.1-1.2c0-0.4-0.3-0.7-0.7-0.7c0,0,0,0,0,0c-3,0.1-13.8,0.4-15.8,1.3c0,0,1.8,15.5-0.6,19.1
				l0.5,12.4l26.6-1.5L95.2,165.8z"/>
			<path class="st4" d="M97.7,146.4c-0.7-0.1-1.6-0.2-2.6-0.3l0,1.5l2.6,0L97.7,146.4z"/>
			<path class="st4" d="M72,147.3l0,0.2l2.6,0l0-1.1C73.7,146.6,72.8,146.9,72,147.3z"/>
			<polygon class="st3" points="58.3,183.9 62.2,184 70.6,169.5 72,167 71,160.8 70.2,162.3 			"/>
			<polygon class="st3" points="94.1,166.5 95.6,168.9 100.6,162.5 102.9,159.5 101.6,157.7 100.5,158.9 			"/>
			<path class="st4" d="M100.5,158.9c0,0.1,0,0.3,0,0.4l0.1,3.2l2.3-2.9l-1.3-1.8L100.5,158.9z"/>
			<polygon class="st4" points="70.2,162.3 70.6,169.5 72,167 71,160.8 			"/>
			<path class="st3" d="M105,163.6c0,0,2.2-14.4-4.8-16.7c-0.1,0-0.2,0-0.3-0.1c-1.6-0.2-16.7-2.3-24.6-0.3c0,0-5.4,0.7-5.4,3.6
				l1.7,35.3l3.9,0.1l-0.8-23.3c0,0-1.7-10.2,1.4-10.8c3.1-0.6,17-1.5,21.9,0c0,0,3.6-0.7,2.8,8.1l0.1,4.7L105,163.6z"/>
			<path class="st2" d="M93.2,167.7c-0.1-0.8,0.3-1.5,0.9-2c1.1-0.8,4.5-2.5,4.5-2.5l1.1,0.1l3.1,8.1l-0.5,17.1l-6,7.1L93.2,167.7z"
				/>
			<path class="st4" d="M93.2,167.7c-0.1-0.8,0.3-1.5,0.9-2c1.1-0.8,4.5-2.5,4.5-2.5l1.1,0.1l3.1,8.1l-0.5,17.1l-6,7.1L93.2,167.7z"
				/>
			<path class="st2" d="M116.1,186l0.2-17.5c0,0,0.6-6.8-3.4-7c0,0-9.6-0.1-13.8,1.2c-0.5,0.1-0.8,0.7-0.6,1.2c0,0.1,0,0.1,0.1,0.2
				c0.8,1.5,2.1,5.3,2.6,15.1l-0.2,10.5L116.1,186z"/>
			<polygon class="st2" points="95.7,196.9 113.2,196.8 113.2,196.8 121.8,196.7 121,185.3 116.2,185.3 101,188.4 96.2,195.6 			"/>
			<polygon class="st4" points="95.7,196.9 113.2,196.8 113.2,196.8 121.8,196.7 121,185.3 116.2,185.3 101,188.4 96.2,195.6 			"/>
			<polygon class="st2" points="95.7,196.9 113.2,196.8 113.6,189.1 101,188.4 96.2,195.6 			"/>
			<path class="st7" d="M113.2,196.8l8.6,0l-0.8-11.5c0,0-2.8,4.2-7.4,3.8L113.2,196.8z"/>
			<path class="st3" d="M51.5,204.9c0.3,3.3,2.6,2.8,2.6,2.8l0.4,0l4.3-0.3l-0.1-5.1c-1.5-0.1-2.9-0.1-4.4,0.2
				C52.8,202.7,51.3,203.4,51.5,204.9z"/>
			<path class="st4" d="M51.5,204.9c0.3,3.3,2.6,2.8,2.6,2.8l0.4,0c0.5-0.7,0.7-1.6,0.7-2.5c0.1-1-0.3-2-0.9-2.8
				C52.8,202.7,51.3,203.4,51.5,204.9z"/>
			<path class="st6" d="M111.8,172.6c-0.1,5.3,3,9.7,7,9.8c3.9,0.1,7.2-4.2,7.3-9.5c0.1-5.3-3-9.7-7-9.8
				C115.2,163,111.9,167.3,111.8,172.6z M114.5,173.3c0.1-3.9,2.6-7,5.6-6.9s5.4,3.2,5.3,7.1s-2.6,7-5.6,6.9
				C116.8,180.3,114.4,177.1,114.5,173.3L114.5,173.3z"/>
			<polygon class="st6" points="118.5,175.7 115.1,178.9 114,176 118.9,173.2 			"/>
			<polygon class="st8" points="114.2,143.1 111.3,143.4 110.2,144.6 111.7,152 114.9,164 117.1,172.2 118.6,177.1 119.5,183.7 
				120.4,188.2 123.4,191.4 129.8,184.1 130.9,181.7 133.4,176.7 127.2,173.6 120.2,172.9 117.1,164.4 114.6,154.6 			"/>
			<polyline class="st2" points="172.5,179.3 175.7,211.3 127.8,208.4 133.6,192.8 143,187 121.8,186.9 121.9,178.2 130.5,176.5 
				147.7,175.4 160.6,175.1 172.9,179.4 			"/>
			<polyline class="st4" points="172.5,179.3 175.7,211.3 127.8,208.4 133.6,192.8 143,187 121.8,186.9 121.9,178.2 130.5,176.5 
				147.7,175.4 160.6,175.1 172.9,179.4 			"/>
			<path class="st6" d="M106.4,209.9c-0.1,7.9,2.4,15.2,9.7,14.6c9.2,0,10.1-6.2,10.2-14.2c0.1-7.9-4.2-13.9-9.7-14
				C111.1,196.2,106.5,202,106.4,209.9z"/>
			<path class="st4" d="M106.3,209.9c0.1-6.1,2.9-11,6.7-12.9c4.8,1,8.4,6.6,8.3,13.9c-0.1,6.5-0.7,11.9-6,13.6
				C108.5,224.6,106.2,217.6,106.3,209.9z"/>
			<polygon class="st8" points="97.2,197.3 100,200.6 94.9,199.6 91.2,196 87.9,189.2 83.2,186.2 71.5,187.6 60.7,187.8 56.8,184.2 
				61.3,183.6 65.8,183.6 77.1,183.6 90.6,183.5 93.2,190.9 95.2,196 			"/>
			<path class="st2" d="M58.2,209.7c0.2,0.4,7.8,1.6,7.8,1.6l20.8,4.2l35.9,1.2l4.3-3.5l2.2,0.4l0.1,0l29.4,5.8l0.5-0.1l8.1-1
				l42.2-5.2l-0.4-6.1l-0.2-3.6l-0.4-7.5l-0.4-2l-3.7-0.4l-1.7-0.2l-27.2-3l-3.6-0.4l-2-0.2l-19.4-3l-28.4,0.2l0-8.8l-10.6-34.8
				c-2.5,0.4-2.5,2-2.5,2l9,32.8l-0.3,20c-19.9,1.6-20.5-2.7-23.7-1.3l-3.6-12.2l-33.5-0.5C55.5,185.8,58.2,209.7,58.2,209.7z"/>
			<polygon class="st2" points="141.6,193.1 130.5,215.7 126.9,216.8 126.1,213.1 130.4,200.5 134.6,193.2 			"/>
			<polygon class="st9" points="141.6,193.1 130.5,215.7 126.9,216.8 126.1,213.1 130.4,200.5 134.6,193.2 			"/>
			
				<ellipse transform="matrix(1.887955e-02 -0.9998 0.9998 1.887955e-02 -73.0619 362.1646)" class="st6" cx="148" cy="218.3" rx="21.8" ry="19.2"/>
			<path class="st4" d="M141.5,197.7c10,0.9,17.8,10.5,17.6,22.1c-0.2,9.3-5.5,17.2-12.8,20.2c-10-0.9-17.8-10.5-17.6-22.1
				C128.9,208.6,134.2,200.7,141.5,197.7z"/>
			<path class="st2" d="M200.2,181.2l0.9,4.5l2.7,13.8l12.5-1c0,0,0.8-2.3-1.2-3.2c0,0-0.5-7.8-2.8-10.3c-0.2-0.3-0.6-0.5-0.9-0.7
				L200.2,181.2z"/>
			<path class="st7" d="M201.1,185.7l2.7,13.8l12.5-1c0,0,0.8-2.3-1.2-3.2c0,0-0.5-7.8-2.8-10.3L201.1,185.7z"/>
			<path class="st2" d="M172,181.8c-1.7,2.7,1.8,27.7,1.8,27.7l30.8-4.5l-0.7-21.9c-0.6-3.9-2.9-4.4-2.9-4.4
				c-10.7-5.7-35.6-7.3-35.6-7.3c-22.7,0.4-43.6,6.7-43.6,6.7C147.8,174.7,172,181.8,172,181.8z"/>
			<path class="st4" d="M173.8,209.6l30.8-4.5l-0.7-21.9c-0.6-3.9-2.9-4.4-2.9-4.4s-22.4-2.6-29.1,3.1
				C170.3,184.5,173.8,209.6,173.8,209.6z"/>
			<path class="st2" d="M177.1,208.2l25.8-3.8l-0.6-18.7c-0.5-3.4-2.4-3.8-2.4-3.8s-18.7-2.2-24.3,2.6
				C174.2,186.8,177.1,208.2,177.1,208.2z"/>
			
				<ellipse transform="matrix(1.888322e-02 -0.9998 0.9998 1.888322e-02 -16.7578 368.6896)" class="st4" cx="179.5" cy="192.9" rx="6.4" ry="3.5"/>
			
				<ellipse transform="matrix(1.888322e-02 -0.9998 0.9998 1.888322e-02 -16.5816 368.5231)" class="st3" cx="179.5" cy="192.7" rx="6.4" ry="3.5"/>
			<path class="st5" d="M179.1,188c0,0,1.4,0.3,0.7,2.1c-0.4,0.9-0.7,1.9-0.9,2.9c0,0-1.5,0.7-1.4-1.8
				C177.6,188.8,179.1,188,179.1,188z"/>
			
				<ellipse transform="matrix(1.888322e-02 -0.9998 0.9998 1.888322e-02 3.974 385.4536)" class="st4" cx="198.4" cy="190.7" rx="6" ry="3.3"/>
			
				<ellipse transform="matrix(1.888322e-02 -0.9998 0.9998 1.888322e-02 4.1502 385.2871)" class="st3" cx="198.4" cy="190.5" rx="6" ry="3.3"/>
			<path class="st5" d="M198,185.8c0,0,1.4,0.3,0.7,2.1c-0.4,0.9-0.7,1.9-0.9,2.9c0,0-1.5,0.7-1.4-1.8
				C196.5,186.6,198,185.8,198,185.8z"/>
			<path class="st4" d="M183.6,187.5c0.2,2.4,1,19.9,1,19.9l2-0.3l1.1-0.2l1.5-0.2l0.2,0l5.7-0.8l-0.8-18.6
				c-0.1-1.2-1.1-2.2-2.3-2.2c-0.1,0-0.1,0-0.2,0c-0.4,0-0.8,0.1-1.3,0.1c-0.2,0-0.4,0-0.6,0.1c-0.5,0.1-1.1,0.1-1.7,0.2
				c-0.3,0-0.6,0.1-0.8,0.1c-0.5,0.1-0.9,0.2-1.3,0.3c-0.3,0.1-0.6,0.2-0.8,0.2C184.3,186.5,183.6,186.9,183.6,187.5z"/>
			<path class="st2" d="M192,185.1l0.7,20.9l0.6,0l-0.7-20.8C192.4,185.1,192.2,185.1,192,185.1z"/>
			<path class="st2" d="M189.9,185.2l0.6,21.1l1,0l-1.1-21.2C190.3,185.2,190.1,185.2,189.9,185.2z"/>
			<path class="st2" d="M187.4,185.6l1.3,21.2l0.6,0l0,0l-1-21.3C188,185.5,187.7,185.5,187.4,185.6z"/>
			<path class="st2" d="M185.3,186.1l1.3,21.1l0,0l1.1-0.1l0-0.1l-1.6-21.1C185.8,185.9,185.5,186,185.3,186.1z"/>
			<path class="st4" d="M208.4,202.8c0,0,2.3-10.9-2.5-11.6c-4.8-0.7-20.8,0.2-20.4,4.7c0.4,4.5,0.8,11.4,0.8,11.4l3.3-0.7
				c0,0-2.3-10.3,1.6-10.7s13.3-1.2,13.3-1.2s2.6-0.4,0.9,8.6L208.4,202.8z"/>
			<path class="st3" d="M208.4,203.9c0,0,2.3-11.6-2.5-12.2c-4.8-0.7-20.8,0.2-20.4,4.7c0.4,4.5,0.8,11.4,0.8,11.4l3.3-0.7
				c0,0-2.3-10.3,1.6-10.7c3.9-0.3,13.3-1.2,13.3-1.2s2.5,0.3,0.9,9.3L208.4,203.9z"/>
			<path class="st2" d="M122.7,216.7l4.3,0c3.4-13.7,8.7-22.1,8.7-22.1c1.7-0.9,20.7-0.4,20.7-0.4c2,0.4,2.4,6.6,2.4,6.6
				s-1.7,1.4-0.1,2.4c0.7,0.4,3.1,0.5,5.8,0.5c3.4-0.1,7.4-0.6,9.4-1.2c3.7-1.1,0.8-3.3,0.8-3.3s-0.5-0.7-0.8-4.5
				c-0.2-2.2-0.9-4.4-2-6.3c-0.2-0.3-0.3-0.4-0.3-0.4c-0.2-0.2-0.4-0.3-0.7-0.4c-4.9-2.1-28.9-0.6-28.9-0.6l-8.9,2.7
				c-0.2,0.1-0.6,0.7-1.1,1.7C129.1,197.3,122.7,216.7,122.7,216.7z"/>
			<path class="st4" d="M122.7,216.7l4.3,0c3.4-13.7,8.7-22.1,8.7-22.1c1.7-0.9,20.7-0.4,20.7-0.4c2,0.4,2.4,6.6,2.4,6.6
				s-1.7,1.4-0.1,2.4c0.7,0.4,3.1,0.5,5.8,0.5c3.4-0.1,7.4-0.6,9.4-1.2c3.7-1.1,0.8-3.3,0.8-3.3s-0.5-0.7-0.8-4.5
				c-0.2-2.2-0.9-4.4-2-6.3c-0.2-0.3-0.3-0.4-0.3-0.4c-0.2-0.2-0.4-0.3-0.7-0.4c-4.9-2.1-28.9-0.6-28.9-0.6l-8.9,2.7
				c-0.2,0.1-0.6,0.7-1.1,1.7C129.1,197.3,122.7,216.7,122.7,216.7z"/>
			<path class="st2" d="M132,191.3c8.3-3,30.8-0.9,30.8-0.9c2.4-2,7-2.1,9-2c-0.2-0.3-0.3-0.4-0.3-0.4c-0.2-0.2-0.4-0.3-0.7-0.4
				c-4.9-2.1-28.9-0.6-28.9-0.6l-8.9,2.7C132.9,189.7,132.5,190.3,132,191.3z"/>
			<path class="st2" d="M161.5,191.2c0.5,1.8,2.5,9,2.5,9c0.2,1.1,0.3,2.3,0.4,3.5c3.4-0.1,7.4-0.6,9.4-1.2c3.7-1.1,0.8-3.3,0.8-3.3
				s-0.5-0.7-0.8-4.5c-0.2-2.4-1-4.7-2.2-6.7c-0.2-0.2-0.4-0.3-0.7-0.4C167.7,188.3,161.1,189.9,161.5,191.2z"/>
			<path class="st7" d="M161.5,191.2c0.5,1.8,2.5,9,2.5,9c0.2,1.1,0.3,2.3,0.4,3.5c3.4-0.1,7.4-0.6,9.4-1.2c3.7-1.1,0.8-3.3,0.8-3.3
				s-0.5-0.7-0.8-4.5c-0.2-2.4-1-4.7-2.2-6.7c-0.2-0.2-0.4-0.3-0.7-0.4C167.7,188.3,161.1,189.9,161.5,191.2z"/>
			<path class="st2" d="M111.3,143.4l10.6,34.8l44.2-6.4l-5.8-20.9c0,0-0.9-4.8-3.2-5.2C157,145.7,121.7,138.9,111.3,143.4z
				 M116.2,148.8c-1.4-4.7,19.6-2.4,19.6-2.4c2.8-0.2,6.2,0,9.4,0.4c1.2,0.1,2.3,0.3,3.3,0.5c2.4,0.4,4.3,0.8,5.5,1
				c0.8,0.2,1.2,0.3,1.2,0.3c4.2,1.4,6.2,18.7,6.2,18.7c0.3,1.8-1.8,1.4-1.8,1.4l-0.1,0l-2,0l-5.9,0.1l-28.6,0.6
				c-1.7-0.2-1.9-2.2-1.9-2.2C120.3,165.8,116.2,148.8,116.2,148.8z"/>
			<path class="st2" d="M159.5,168.7l0.1,0c0,0,2.2,0.4,1.8-1.4c0,0-2.1-17.3-6.2-18.7c0,0-0.4-0.1-1.2-0.3
				C155.5,151.3,160.2,161.6,159.5,168.7z"/>
			<path class="st4" d="M159.5,168.7l0.1,0c0,0,2.2,0.4,1.8-1.4c0,0-2.1-17.3-6.2-18.7c0,0-0.4-0.1-1.2-0.3
				C155.5,151.3,160.2,161.6,159.5,168.7z"/>
			<path class="st4" d="M154.8,211.3c0.5,1,1.5,1.6,2.6,1.5l0.9,0l8.3-0.2l3-0.1l2.8-0.2l36.7-5.2l-0.2-3.6l-4.2,0.5l-1.7,0.2
				l-25.9,3.2l-3.4,0.4l-1.7,0.2l-7-0.2l-7.6-0.2c-0.4,0-0.8,0.1-1.1,0.2c-0.7,0.2-1.2,0.7-1.5,1.4
				C154.5,209.9,154.5,210.7,154.8,211.3z"/>
			<path class="st3" d="M154.8,211.7c0.5,1,1.5,1.6,2.6,1.5l12.2-0.3l2.8-0.2l39.1-5.6l3.1-0.4l1.7-0.2c3.3-0.6,2.4-3.9,2.4-3.9
				c-0.2-1.5-5.8-3-7.7-3c-1.2,0-1.5,1.9-1.5,3.2c0,0.6,0,1.1,0,1.1l-1.8,0.2l-35.8,4.4l-14.5-0.4c-1.1,0-2.1,0.6-2.6,1.6
				C154.5,210.3,154.5,211,154.8,211.7z"/>
			<path class="st4" d="M213.5,201.7c0,0-1.6,1.9-4,2.1C209.5,203.8,210.5,201.7,213.5,201.7z"/>
			<path class="st4" d="M213.8,207c0,0,5.1,0,5.1,2.8c-0.1,2.8-3.3,3.2-3.3,3.2l-46,8l-13,0c0,0-4.5-3.7,0.3-5.2l13.1,0.6l43.9-7.2
				C213.9,209.1,212.7,207.5,213.8,207z"/>
			<path class="st3" d="M156.6,221.2l13,0l40.9-7.1l3-0.5l2.1-0.4c0,0,3.2-0.4,3.3-3.2c0-2-2.6-2.5-4.1-2.7c-0.6-0.1-1-0.1-1-0.1
				c-1.1,0.4,0,2,0,2l-1.6,0.3l-42.3,6.9l-13.1-0.6C152.1,217.5,156.6,221.2,156.6,221.2z"/>
			<path class="st3" d="M210,204.7l-2.7-1.3l-1.4-0.1l-0.1,11.7l4.3-0.8l1.8-1.1l1-4.8c0,0-0.3-2-0.5-2.2S210,204.7,210,204.7z"/>
			<path class="st4" d="M210,204.7l-2.7-1.3l-1.4-0.1l-0.1,11.7l4.3-0.8l1.8-1.1l1-4.8c0,0-0.3-2-0.5-2.2S210,204.7,210,204.7z"/>
			<path class="st4" d="M210.5,214.2C210.5,214.2,210.5,214.2,210.5,214.2l3-0.5c0,0,0,0,0-0.1c1.6-2.5,1.8-4.6,1.3-6.2
				c-0.6-0.1-1-0.1-1-0.1c-1.1,0.4,0,2,0,2l-1.6,0.3C212.3,211.9,210.8,213.8,210.5,214.2z"/>
			<path class="st4" d="M206.3,203.4c0.5,0.2,1,0.4,1.4,0.6c1.9,1,3.1,2,3.8,3.1l3.1-0.4c-1.3-2.8-4.4-4.1-4.4-4.1l-0.6,0.1
				L206.3,203.4z"/>
			<path class="st3" d="M209.8,202.6c0,0,8.4,3.5,3.4,11.1l-3,0.5c0,0,6.1-6.7-4.2-10.9L209.8,202.6z"/>
			<polygon class="st3" points="189.6,205.9 186.5,205.8 186.8,218.3 191.8,217.5 194,216.5 195,214 195.7,211.5 194.1,209.3 
				192.2,208 			"/>
			<polygon class="st4" points="189.6,205.9 186.5,205.8 186.8,218.3 191.8,217.5 194,216.5 195,214 195.7,211.5 194.1,209.3 
				192.2,208 			"/>
			
				<ellipse transform="matrix(1.888322e-02 -0.9998 0.9998 1.888322e-02 -26.1111 398.2055)" class="st3" cx="189.8" cy="212.4" rx="2.5" ry="1.5"/>
			<path class="st6" d="M204.1,216.1c0.4,0.2,0.6,0.7,0.4,1.1c0,0,0,0.1,0,0.1c-0.4,0.6-0.8,1.4-0.7,1.7c0.1,0.4-0.8,0.1-0.9,0
				c-0.1-0.1-1.6,0-1.7-1c0-0.6,0.3-1.2,0.8-1.5l-0.3-2.2l2.1-0.1l-0.1,2L204.1,216.1z"/>
			<path class="st4" d="M204.1,216.1c0.4,0.2,0.6,0.7,0.4,1.1c0,0,0,0.1,0,0.1c-0.4,0.6-0.8,1.4-0.7,1.7c0.1,0.4-0.8,0.1-0.9,0
				c-0.1-0.1-1.6,0-1.7-1c0-0.6,0.3-1.2,0.8-1.5l-0.3-2.2l2.1-0.1l-0.1,2L204.1,216.1z"/>
			<path class="st4" d="M203.5,216.1c0,0-0.7,2.4-0.4,2.5C203.4,218.6,203.5,216.1,203.5,216.1z"/>
			<path class="st4" d="M202.8,215.5c0,0-0.7,2.4-0.4,2.5C202.6,218,202.8,215.5,202.8,215.5z"/>
			<path class="st6" d="M194.6,208.2l1,7.2c0,0,1.4-0.2,2.2-0.3c0.2,0,0.3-0.1,0.5-0.1c0,0,0.1,0,0.2,0l0,0c0.4,0.1,1.1,0.4,1.2,0.2
				c0,0,0,0,0-0.1l0,0c0.1-0.1,0.4,0,0.7,0c0.1,0,0.3,0,0.4,0c0.2-0.1,0.6,0.1,1,0.2c0.2,0.1,0.4,0,0.5-0.2c0.1-0.1,0.2-0.2,0.3-0.2
				l0,0c0.3-0.1,0.8,0,1.1-0.1c0.1,0,0.2-0.1,0.2-0.1c0.1-0.2,0.4-0.2,0.7-0.3c0.4-0.1,0.8-0.1,0.8-0.3c0-0.1,0-0.1,0.1-0.1
				c0.2,0,0.4,0.1,0.6,0.2l0,0c0.2,0,0.3,0.1,0.4-0.1c0-0.1,0.2-0.1,0.5-0.1c0.2,0,0.4,0.1,0.5,0.2c0.1,0,0.2,0,0.3,0
				c0.1-0.2,0.8,0.3,1-0.2c0.2-0.5,2.6-3.5-0.4-7.5c0,0-0.8,0-1.5,0.1c-0.2,0-0.4,0.1-0.6,0.2c0,0,0,0,0,0c-0.4,0.1-0.7,0.1-1.1,0.1
				c-0.2,0-0.4,0-0.6,0.1c-0.1,0-0.1,0.1-0.2,0.2c-0.1,0.2-0.3,0.3-0.6,0.2c-0.3,0-0.7-0.2-0.8-0.1c0,0,0,0,0,0
				c-0.2,0.1-1.1,0-1.3,0.1c0,0,0,0,0,0c-0.1,0.1-0.4,0-0.8-0.1l0,0c-0.2-0.1-0.5,0-0.7,0.1c-0.2,0.1-0.4,0.2-0.6,0.2
				c-0.2,0-0.5,0-0.7,0c-0.1,0-0.1,0-0.1,0.1c-0.2,0.2-0.5,0.1-0.8,0.2c-0.2,0-0.3,0-0.5,0.1c-0.1,0-0.1,0.1-0.2,0.1
				c-0.5,0-0.9,0-1.4-0.1L194.6,208.2z"/>
			<path class="st4" d="M207.1,213.9c0.2,0,0.4,0.1,0.5,0.2c2.4-3.6,0.5-6.4-0.6-7.5c-0.2,0-0.4,0.1-0.6,0.2
				C208.7,209.5,207.5,212.8,207.1,213.9z"/>
			<path class="st4" d="M205.6,213.9c0.2,0,0.4,0.1,0.6,0.2l0,0c2.1-3.5,0.1-6.2-1-7.2c-0.2,0-0.4,0-0.6,0.1
				C206.9,209.5,206.1,212.5,205.6,213.9z"/>
			<path class="st4" d="M203.8,214.7c0.1,0,0.2-0.1,0.2-0.1c0.1-0.2,0.4-0.2,0.7-0.3c1.8-3.2,0.3-5.7-0.8-6.9
				c-0.3,0-0.7-0.2-0.8-0.1c0,0,0,0,0,0C205.5,210.1,204.2,213.6,203.8,214.7z"/>
			<path class="st4" d="M201.9,215.1c0.2,0.1,0.4,0,0.5-0.2c0.1-0.1,0.2-0.2,0.3-0.2l0,0c2.1-3.5,0.1-6.3-0.9-7.3c0,0,0,0,0,0
				c-0.1,0.1-0.4,0-0.8-0.1C203.8,210.4,202.3,214.2,201.9,215.1z"/>
			<path class="st4" d="M199.8,215c0.1-0.1,0.4,0,0.7,0c2.2-3.5,0.3-6.2-0.8-7.3c-0.2,0-0.5,0-0.7,0
				C201.4,210.4,200.3,213.8,199.8,215z"/>
			<path class="st4" d="M197.8,215c0.2,0,0.3-0.1,0.5-0.1c0,0,0.1,0,0.2,0l0,0c2-3.2,0.5-5.7-0.6-7c-0.2,0-0.3,0-0.5,0.1
				c-0.1,0-0.1,0.1-0.2,0.1C199.4,210.8,198.3,214,197.8,215z"/>
			
				<ellipse transform="matrix(1.888322e-02 -0.9998 0.9998 1.888322e-02 -80.0439 356.8932)" class="st6" cx="141.8" cy="219.2" rx="13.8" ry="9.4"/>
			
				<ellipse transform="matrix(1.888322e-02 -0.9998 0.9998 1.888322e-02 -79.9443 357.4105)" class="st4" cx="142.1" cy="219.4" rx="11.2" ry="6.8"/>
			
				<ellipse transform="matrix(1.888322e-02 -0.9998 0.9998 1.888322e-02 -79.5919 357.0775)" class="st5" cx="142.1" cy="219.1" rx="11.2" ry="6.8"/>
			
				<ellipse transform="matrix(1.888322e-02 -0.9998 0.9998 1.888322e-02 -73.1203 348.5724)" class="st6" cx="141" cy="211.5" rx="1.4" ry="0.8"/>
			
				<ellipse transform="matrix(1.888322e-02 -0.9998 0.9998 1.888322e-02 -88.5622 356.9377)" class="st6" cx="137.6" cy="223.6" rx="1.4" ry="0.8"/>
			
				<ellipse transform="matrix(1.888322e-02 -0.9998 0.9998 1.888322e-02 -74.3088 360.2567)" class="st6" cx="146.4" cy="218" rx="1.4" ry="0.8"/>
			
				<ellipse transform="matrix(1.888322e-02 -0.9998 0.9998 1.888322e-02 -84.8069 365.6183)" class="st6" cx="143.9" cy="226" rx="1.4" ry="0.8"/>
			<path class="st2" d="M73.5,192.3c0,0-7.1,17.9-6.8,19c0,0-2.9,1.7-3.6,1.2c-0.7-0.4,0.1-8.4,0.1-8.4l1.4-7l1.5-4.1L73.5,192.3z"
				/>
			<path class="st9" d="M73.5,192.3c0,0-7.1,17.9-6.8,19c0,0-2.9,1.7-3.6,1.2c-0.7-0.4,0.1-8.4,0.1-8.4l1.4-7l1.5-4.1L73.5,192.3z"
				/>
			
				<ellipse transform="matrix(1.888322e-02 -0.9998 0.9998 1.888322e-02 -82.0368 348.5484)" class="st6" cx="136.6" cy="216.1" rx="1.4" ry="0.8"/>
			
				<ellipse transform="matrix(1.888322e-02 -0.9998 0.9998 1.888322e-02 -81.2256 356.231)" class="st6" cx="140.9" cy="219.5" rx="3.3" ry="2.4"/>
			<path class="st6" d="M65.5,216.2c-0.2,10.4,3.1,20,12.7,19.1c12.1,0,13.2-8.2,13.4-18.6c0.2-10.4-5.5-18.3-12.7-18.4
				S65.7,205.8,65.5,216.2z"/>
			<path class="st4" d="M65.4,216.2c0.2-8.1,3.8-14.5,8.8-16.9c6.3,1.3,11,8.7,10.9,18.2c-0.2,8.5-0.9,15.6-7.9,17.8
				C68.3,235.6,65.3,226.3,65.4,216.2z"/>
			<path class="st4" d="M60.5,211.7c0,0,1.7,1.5,2.7,0.5c0,0,2.7-18.6,5.6-18.7l10.1,0.1c0,0,1.2,0.5,1.7,2.8l6.2,18.8l35.9,1.2
				l2.8-5.7l-29.7-0.5l0,0c-0.2-0.6-4.8-18.4-8.1-20.6c0,0,0,0,0,0c-0.1-0.1-0.2-0.1-0.4-0.2c0,0-12.3-1.9-16.4-0.8
				c0,0-4.3,0.9-5.3,2.1c0,0,0,0,0,0c-0.1,0.1-1.8,1.9-2.4,7.1L60.5,211.7z"/>
			<path class="st2" d="M60.5,212.1c0,0,1.7,1.5,2.7,0.5c0,0,2.7-18.6,5.6-18.7l10.1,0.1c0,0,1.2,0.5,1.7,2.8l6.2,18.8l35.9,1.2
				l2.8-5.7l-29.7-0.5l0,0c-0.2-0.6-4.8-18.4-8.1-20.6c0,0,0,0,0,0c-0.1-0.1-0.2-0.1-0.4-0.2c0,0-12.3-1.9-16.4-0.8
				c0,0-4.3,0.9-5.3,2.1c0,0,0,0,0,0c-0.1,0.1-1.8,1.9-2.4,7.1L60.5,212.1z"/>
			<path class="st4" d="M60.5,212.1c0,0,1.7,1.5,2.7,0.5c0,0,2.7-18.6,5.6-18.7l10.1,0.1c0,0,1.2,0.5,1.7,2.8l6.2,18.8l35.9,1.2
				l2.8-5.7l-29.7-0.5l0,0c-0.2-0.6-4.8-18.4-8.1-20.6c0,0,0,0,0,0c-0.1-0.1-0.2-0.1-0.4-0.2c0,0-12.3-1.9-16.4-0.8
				c0,0-4.3,0.9-5.3,2.1c0,0,0,0,0,0c-0.1,0.1-1.8,1.9-2.4,7.1L60.5,212.1z"/>
			<path class="st2" d="M82.9,192.1c0.8,1.7,7.9,22,7.9,22l5.1-3.5l0,0c-0.2-0.6-4.8-18.4-8.1-20.6
				C85.6,190.2,82.3,190.9,82.9,192.1z"/>
			<path class="st2" d="M92.7,183l3.8,13.4l21.2-0.2l-0.2,2c0,0-16.7,2.1-23.7-1.3l-3.6-12.2l-33.5-0.5l6.4-1.4L92.7,183z"/>
			<path class="st7" d="M92.7,183l3.8,13.4l21.2-0.2l-0.2,2c0,0-16.7,2.1-23.7-1.3l-3.6-12.2l-33.5-0.5l6.4-1.4L92.7,183z"/>
			<path class="st4" d="M191.7,205.9c0,0,11.3,5.9,2.7,11.1l-2.3,0.5c0,0,8.4-5.8-5.3-11.7L191.7,205.9z"/>
			<path class="st3" d="M191.4,205.9c0,0,11.3,5.9,2.7,11.1l-2.3,0.5c0,0,8.4-5.8-5.3-11.7L191.4,205.9z"/>
			
				<ellipse transform="matrix(1.888322e-02 -0.9998 0.9998 1.888322e-02 -145.6643 287.2694)" class="st6" cx="73.5" cy="217.9" rx="10.8" ry="6.3"/>
			
				<ellipse transform="matrix(1.888322e-02 -0.9998 0.9998 1.888322e-02 -145.6969 287.711)" class="st4" cx="73.7" cy="218.1" rx="8.8" ry="4.6"/>
			
				<ellipse transform="matrix(1.888322e-02 -0.9998 0.9998 1.888322e-02 -145.3445 287.378)" class="st5" cx="73.8" cy="217.7" rx="8.8" ry="4.6"/>
			
				<ellipse transform="matrix(1.888322e-02 -0.9998 0.9998 1.888322e-02 -140.158 280.8716)" class="st6" cx="73" cy="211.9" rx="1.1" ry="0.5"/>
			
				<ellipse transform="matrix(1.888322e-02 -0.9998 0.9998 1.888322e-02 -151.8818 287.767)" class="st6" cx="70.7" cy="221.3" rx="1.1" ry="0.5"/>
			
				<ellipse transform="matrix(1.888322e-02 -0.9998 0.9998 1.888322e-02 -141.6637 289.3892)" class="st6" cx="76.6" cy="216.9" rx="1.1" ry="0.5"/>
			
				<ellipse transform="matrix(1.888322e-02 -0.9998 0.9998 1.888322e-02 -149.6162 293.8415)" class="st6" cx="74.9" cy="223.2" rx="1.1" ry="0.5"/>
			
				<ellipse transform="matrix(1.888322e-02 -0.9998 0.9998 1.888322e-02 -146.6623 281.3415)" class="st6" cx="70" cy="215.4" rx="1.1" ry="0.5"/>
			
				<ellipse transform="matrix(1.888322e-02 -0.9998 0.9998 1.888322e-02 -146.4902 286.8549)" class="st6" cx="72.9" cy="218.1" rx="2.6" ry="1.6"/>
			<path class="st4" d="M166.2,171.5c0,0-19.2,0.3-44.3,6.7L166.2,171.5z"/>
			<path class="st3" d="M75.2,136.1c0,0,1,0.2,0.5,1.6c-0.3,0.7-0.5,1.4-0.7,2.1c0,0-1.1,0.5-1-1.3
				C74.1,136.7,75.2,136.1,75.2,136.1z"/>
		</g>
		<g>
			<ellipse class="st0" cx="193.3" cy="260.5" rx="6.9" ry="1.2"/>
			<path class="st10" d="M188.7,255.1c0,0,3.9-0.1,5.1-1c1.2-0.8,6-1.8,6.3-0.5s5.9,6.7,1.5,6.8s-10.3-0.7-11.5-1.4
				C188.9,258.2,188.7,255.1,188.7,255.1z"/>
			<path class="st11" d="M201.7,259.9c-4.4,0-10.3-0.7-11.5-1.4c-0.9-0.5-1.3-2.5-1.4-3.4c-0.1,0-0.1,0-0.1,0s0.2,3.2,1.4,3.9
				c1.2,0.7,7,1.4,11.5,1.4c1.3,0,1.7-0.5,1.7-1.1C203.1,259.6,202.6,259.9,201.7,259.9z"/>
			<ellipse class="st0" cx="209.2" cy="303.5" rx="12.6" ry="2.1"/>
			<path class="st10" d="M200.7,293.6c0,0,7.2-0.2,9.4-1.8c2.2-1.5,11.1-3.4,11.6-0.9c0.5,2.5,10.8,12.3,2.7,12.4
				c-8.1,0.1-18.9-1.3-21.1-2.6C201.1,299.4,200.7,293.6,200.7,293.6z"/>
			<path class="st11" d="M224.5,302.4c-8.1,0.1-18.9-1.3-21.1-2.6c-1.7-1-2.3-4.6-2.5-6.3c-0.2,0-0.2,0-0.2,0s0.5,5.8,2.6,7.1
				c2.2,1.3,12.9,2.7,21.1,2.6c2.3,0,3.2-0.9,3.1-2.1C227.2,302,226.3,302.4,224.5,302.4z"/>
		</g>
		<g>
			<g class="st12">
				<path class="st13" d="M338.9,224.1c0,0-6.3,5-11.4-12.4"/>
				<path class="st13" d="M311.7,234.2c0,0,12.9-1.7,14-9.7"/>
			</g>
			<path class="st14" d="M219.1,224.5c0,0,24.1-22.8,49.2-22.8c0,0,27.3-4.6,60.2,3.4c32.9,8,46.6,16.7,55.7,13.7l-38.4,1.1
				L219.1,224.5z"/>
			<path class="st15" d="M205.2,223.5c0,0,38.7-21.8,63.8-21.8c0,0,27.9-4.2,60.9,3.7s45.1,16.4,54.3,13.4l-38.4,1.1L205.2,223.5z"
				/>
			<polygon class="st16" points="376.7,259 154.9,259 161,234.6 198.7,224.6 376.7,229.2 			"/>
			<path class="st17" d="M388.4,243.8v7.8c0,0-6.6,4.8-7.2,8.5c0,0-9.4,2.4-12.1,2.4c-0.2,0-0.5,0-0.8,0c0.4-1.1,0.7-2.3,1-3.5
				c2.5-12.4-5.6-24.4-18-26.9c-12.4-2.5-24.4,5.6-26.9,18c-0.6,2.9-0.6,6,0,8.9c0.3,1.6,0.8,3.2,1.5,4.7h-12.8c0,0-0.1,0-0.3,0.1
				c-0.7,0.3-2.3,1.1-2.5,2.4h-106l-2.2,0c0.5-0.8,0.9-1.6,1.2-2.4c0.7-1.5,1.2-3.1,1.5-4.8c2.5-12.4-5.5-24.5-17.9-26.9
				c-12.4-2.5-24.5,5.5-26.9,17.9c-0.3,1.5-0.5,3-0.4,4.5c0,1.5,0.1,3,0.4,4.5c0.5,2.5,1.4,4.9,2.7,7.1c-1.5-0.4-4.8-1.4-4.8-1.4
				s-14.1-1.5-17.7-4.7l0.5-0.4l2.3-1.6l-1-4c-0.1-0.2-0.2-0.4-0.3-0.6c-0.3-0.7-0.5-1.9,0.5-3.5c1.5-2.4,0.7-10.9,0.7-10.9
				s20.4-14.1,60.5-17.2c0,0,1,0.7,2.9,0.9c1.3,0.1,3.1-0.1,5.4-0.9c0,0,3.3,1.5,17.4-6.6c0,0,24-16.5,55.4-15
				c0,0,32.3-1.9,59.9,8.7c11.9,4.6,20.9,7,27.3,8.3c5.9,1.2,9.7,1.4,11.4,1.4h0c0.6,0,0.9,0,1,0h0c0,0,0,3.6,0.2,7.8v0
				c0.1,1.5,0.2,3,0.3,4.5v0.1c0.4,4.2,1,8,2.1,8.7L388.4,243.8z"/>
			<path class="st5" d="M146.1,238.8c0,0,9-7,20.2-5.5c0,0-10.2,8.1-14.8,7.6l-0.8-0.7l-4.7,0.3
				C146.1,240.4,145.4,239.3,146.1,238.8z"/>
			<path class="st18" d="M154.9,250.9v4.2c0,0-0.3,4-3.9,4.1l-10.2,0.5l2.3-1.6l-1-4c-0.1-0.2-0.2-0.4-0.3-0.5
				c0.9-0.9,3.1-2.3,7.6-2.6L154.9,250.9z"/>
			<path class="st18" d="M202.5,233.5l7.9-0.3c0,0-3.2,2.5-5.4,2.7C202.7,236.2,202.5,233.5,202.5,233.5z"/>
			<path class="st18" d="M219.1,257.4c0,0,71.1-9.9,88.2-6.7c0,0,5.1,0.3,7,2.4s0,0.7,0,0.7L219.1,257.4z"/>
			<path class="st10" d="M258.8,229.6c0,0,0.9-1.7,2.4-1.7l9.5-0.5c0,0-0.1,1.3-1.8,1.8L258.8,229.6z"/>
			<path class="st10" d="M313.6,226.8c0,0,0.9-1.7,2.4-1.7l9.5-0.5c0,0-0.1,1.3-1.8,1.8L313.6,226.8z"/>
			<path class="st14" d="M281.3,203.7l-7.3,19.1l-26.2,0h-6.7h-5.9h-5.1h-5.7c0,0,3.5-2.6,9.1-5.8c1.9-1.1,4-2.2,6.3-3.4
				c2.1-1.1,4.4-2.2,6.8-3.2c1.9-0.8,3.8-1.6,5.8-2.3C261.5,204.7,271.7,202.4,281.3,203.7z"/>
			<path class="st14" d="M322.5,217.6c0,0-10.9,1.6-21.4,2.8c-4,0.5-7.9,0.9-11.1,1.1l-0.4,0c-1.2,0.1-2.4,0.1-3.4,0.2
				c-1.6,0-2.7,0-3.3-0.2l3-18.2c0,0,3.7,0,9.2,0.3l1.2,0.1c1.1,0.1,2.4,0.1,3.6,0.2c1.8,0.1,3.7,0.3,5.6,0.5
				c9.4,0.9,20.1,2.4,26.9,5.2C346.9,215.5,322.5,217.6,322.5,217.6z"/>
			<circle class="st19" cx="182.4" cy="254.5" r="18.3"/>
			<path class="st10" d="M197,254.5c0,8.1-6.6,14.7-14.7,14.7c-8.1,0-14.7-6.6-14.7-14.7c0-8.1,6.6-14.7,14.7-14.7
				c7,0,13,4.9,14.4,11.7C196.9,252.5,197,253.5,197,254.5z"/>
			<ellipse class="st3" cx="182.4" cy="254.5" rx="12.6" ry="12.6"/>
			<path class="st10" d="M186.6,240.4v0.5l-4.2,13.9l-3.4-14.6C181.5,239.6,184.1,239.7,186.6,240.4L186.6,240.4z"/>
			<path class="st10" d="M186.6,268.6c-2.4,0.7-4.9,0.8-7.4,0.3l3.2-14L186.6,268.6z"/>
			<path class="st10" d="M197,254.5c0,1.5-0.2,3.1-0.7,4.5h-0.1l-13.9-4.2l14.4-3.3C197,252.5,197.1,253.5,197,254.5z"/>
			<path class="st10" d="M182.4,254.8l-13.9,4.2h-0.1c-0.8-2.4-0.9-5-0.4-7.5L182.4,254.8z"/>
			<circle class="st19" cx="182.4" cy="254.5" r="1.6"/>
			<circle class="st19" cx="346.7" cy="254.5" r="18.3"/>
			<path class="st10" d="M361.4,254.5c0,8.1-6.6,14.7-14.7,14.7c-8.1,0-14.7-6.6-14.7-14.7s6.6-14.7,14.7-14.7c7,0,13,4.9,14.4,11.7
				C361.3,252.5,361.4,253.5,361.4,254.5z"/>
			<ellipse class="st3" cx="346.7" cy="254.5" rx="12.6" ry="12.6"/>
			<path class="st10" d="M350.9,240.4v0.5l-4.2,13.9l-3.4-14.6C345.9,239.6,348.5,239.7,350.9,240.4z"/>
			<path class="st10" d="M350.9,268.6c-2.4,0.7-4.9,0.8-7.4,0.3l3.2-14L350.9,268.6z"/>
			<path class="st10" d="M361.4,254.5c0,1.5-0.2,3.1-0.7,4.5h-0.1l-13.9-4.2l14.4-3.3C361.3,252.5,361.4,253.5,361.4,254.5z"/>
			<path class="st10" d="M346.7,254.8l-13.9,4.2h-0.1c-0.8-2.4-0.9-5-0.4-7.5L346.7,254.8z"/>
			<circle class="st19" cx="346.7" cy="254.5" r="1.6"/>
			<path class="st18" d="M239.8,213.5l-4.6,9.2h-5.1l3.4-5.8C235.4,215.9,237.5,214.7,239.8,213.5z"/>
			<path class="st18" d="M252.4,208l-4.6,14.8h-6.7l5.5-12.5C248.5,209.5,250.4,208.7,252.4,208z"/>
			<path class="st18" d="M299.9,203.9l-10,17.7l-0.4,0c-1.2,0.1-2.4,0.1-3.4,0.2l9-18.1l1.2,0.1
				C297.4,203.7,298.6,203.8,299.9,203.9z"/>
			<polygon class="st20" points="224.6,222.7 218.9,261.9 266.4,260.8 274.2,222.9 			"/>
			<path class="st16" d="M312.8,263.8c-0.7,0.3-2.3,1.1-2.5,2.4h-106l-2.2,0c0.5-0.8,0.9-1.6,1.2-2.4L312.8,263.8z"/>
			<path class="st4" d="M268.4,247.3h-0.1C268.3,247.3,271.8,246.4,268.4,247.3z"/>
			<path class="st4" d="M297.9,265.3v0.5C297.8,265.6,297.8,265.5,297.9,265.3z"/>
			<path class="st21" d="M273,263c0,0,5.5,0.9,6.9,3.9"/>
			<g class="st22">
				<path d="M250.4,249.9c-0.1,0.2-0.1,0.4-0.2,0.6c0,0-2.1,12.5-3.3,17.1C248,263.8,250.2,251,250.4,249.9z"/>
			</g>
		</g>
		<g>
			<path class="st23" d="M158.6,265.6c-2.3,2.5-4,3.5-3.9,0.8c0.2-7.9-13.7-43.7-13.7-43.7l4.1-0.3
				C154.1,237.9,157.5,253.8,158.6,265.6z"/>
			<path class="st2" d="M178.2,282.9c0,10.9-8.9,19.8-19.8,19.8c-10.3,0-18.9-7.9-19.7-18.1c0-0.3-0.1-0.6-0.1-1v0
				c0-0.2,0-0.5,0-0.7c0-10.9,8.9-19.8,19.8-19.8C169.4,263.1,178.2,272,178.2,282.9L178.2,282.9z"/>
			<circle class="st3" cx="158.4" cy="282.9" r="10.8"/>
			<circle class="st2" cx="158.4" cy="282.9" r="6.5"/>
			<path class="st2" d="M106.4,245.3l-47.7,1v-7c0.4-5.7,6.2-7.6,11.5-8.3c4.1-0.5,8.3-0.2,12.3,0.9c10.1,2.7,16.6,3.2,19.7,3.2
				c1.4,0,2.7,1.1,2.9,2.5c0.2,0.8,0.3,1.7,0.4,2.5c0.1,0.7,0.2,1.3,0.3,2C106.2,243.9,106.4,245.3,106.4,245.3z"/>
			<path class="st8" d="M144.4,284.2H45.4c-1.6,0-3-0.9-3.6-2.3c-0.7-1.8,0.3-2.9,1.4-3.6c2.3-1.4,4-3.5,4.9-6
				c1.1-3.1,2.1-8,2.5-15.6c0.4-7.9,3.3-11.8,6.4-13.7h0c4-2.4,8.4-1.5,8.4-1.5l40.2,0.3c0.7,0.3,1.4,0.8,2,1.3
				c3.6,3.3-1.6,7.7-1.6,7.7c-11.2,11.8-2.7,23.8-2.7,23.8h20.6c3.8,0,7.6-1.1,10.8-3.3c2.8-1.9,3.9-3.8,4.3-4.9
				c0.3-0.9,0.6-1.7,1-2.5c5.4-11.7-1.1-30.7-3.9-37.8c-0.7-1.8-1.2-2.8-1.2-2.8l6.4-0.5l4.1-0.3l0,0c9,15.5,12.3,31.4,13.4,43.2
				c0.1,1.1,0.2,2.2,0.3,3.2c0.5,7.9-5.5,14.8-13.4,15.3C145.1,284.2,144.8,284.2,144.4,284.2z"/>
			<path class="st4" d="M106,242.1H58.7v-2h47C105.8,240.8,105.9,241.5,106,242.1z"/>
			<path class="st4" d="M107.4,243H57.3c-0.1,0-0.3,0-0.4-0.1c4-2.4,8.4-1.5,8.4-1.5l40.2,0.3C106.1,242.1,106.8,242.5,107.4,243z"
				/>
			<path class="st4" d="M158.6,265.6c-2.3,2.5-4,3.5-3.9,0.8c0.2-7.9-13.7-43.7-13.7-43.7l4.1-0.3
				C154.1,237.9,157.5,253.8,158.6,265.6z"/>
			<path class="st4" d="M178.1,280.7c-2.4,0.6-5.3,1.1-8.9,1.7c-1.3,0.2-2.8,0.4-4.3,0.6c-3.7,0.4-7.9,0.8-12.9,1.1
				c-1.4,0.1-2.8,0.2-4.3,0.2c-2.8,0.1-5.8,0.2-9,0.3l-0.1-1v0c4.5-1.8,11.5-6.6,12.7-19.2c10.2-3.9,21.7,1.2,25.6,11.4
				C177.5,277.4,177.9,279,178.1,280.7L178.1,280.7z"/>
			<path class="st8" d="M134.9,284.2c0,0,22.7-2.5,14.9-37.1c0,0,11.2,10.3,18.2,16c7,5.7,19.4,13.6,19.4,13.6
				S180,283.7,134.9,284.2z"/>
			<path class="st7" d="M134.9,284.2c0,0,22.7-2.5,14.9-37.1c0,0,11.2,10.3,18.2,16c7,5.7,19.4,13.6,19.4,13.6
				S180,283.7,134.9,284.2z"/>
			<circle class="st2" cx="74.1" cy="282.9" r="19.8"/>
			<circle class="st3" cx="74.1" cy="282.9" r="10.8"/>
			<circle class="st2" cx="74.1" cy="282.9" r="6.5"/>
			<path class="st4" d="M96.4,276.9c0-12.8-10.2-23.2-22.7-23.2S51,264.2,51,276.9c0,0.5,0,1.1,0.1,1.6h45.3
				C96.3,278,96.4,277.5,96.4,276.9z"/>
			<path class="st8" d="M95.5,276.5c0-12.3-9.8-22.3-21.8-22.3s-21.8,10-21.8,22.3c0,0.5,0,1,0.1,1.5h43.6
				C95.5,277.6,95.5,277.1,95.5,276.5z"/>
			<path class="st7" d="M95.5,276.5c0,0.4,0,0.7,0,1.1c0,0.2,0,0.3,0,0.5H51.9c0-0.2,0-0.3,0-0.5c0-0.4,0-0.7,0-1.1
				c0-12.3,9.8-22.3,21.8-22.3S95.5,264.2,95.5,276.5z"/>
			<path class="st4" d="M95.5,277.6c0,0.2,0,0.3,0,0.5H51.9c0-0.2,0-0.3,0-0.5H95.5z"/>
			
				<ellipse transform="matrix(0.9112 -0.412 0.412 0.9112 -84.6253 83.6503)" class="st4" cx="151.7" cy="238.1" rx="2.9" ry="7.2"/>
			<ellipse transform="matrix(0.9112 -0.412 0.412 0.9112 -84.505 83.7279)" class="st3" cx="151.9" cy="237.8" rx="2.9" ry="7.2"/>
			<path class="st4" d="M145.1,222.4v3.8h-7.3c-0.7,0-1.4-0.1-2-0.2c-0.7-1.8-1.2-2.8-1.2-2.8l6.4-0.5L145.1,222.4z"/>
			<path class="st8" d="M145.1,225.7h-7.3c-6.4,0-11.6-4.8-11.6-10.7v-1c0-5.9,5.2-10.7,11.6-10.7l7.3,0.7V225.7z"/>
			<path class="st8" d="M133,209.6c0,0,4.4,2.3,1.9,6.3c0,0-3.1,5.1-8,4.6l-1.8-10.9C125.2,209.6,131,209,133,209.6z"/>
			<path class="st4" d="M131.3,209.3c1.4,0.1,2.7,0.7,3.6,1.9c0.8,1.1,1.2,2.7,0,4.6c0,0-3.1,5.1-8,4.6l-1.8-10.9
				C127.2,209.4,129.3,209.3,131.3,209.3z"/>
			<path class="st4" d="M144.8,203.9L144.8,203.9c3.2,0,5.9,2.6,5.9,5.9l0,0v10.1c0,3.2-2.6,5.9-5.9,5.9h0l0,0l0,0V203.9
				L144.8,203.9z"/>
			<path class="st3" d="M145.1,203.9L145.1,203.9c3.2,0,5.9,2.6,5.9,5.9l0,0v10.1c0,3.2-2.6,5.9-5.9,5.9h0l0,0l0,0V203.9
				L145.1,203.9z"/>
			<ellipse class="st8" cx="124.7" cy="215.2" rx="4.9" ry="5.9"/>
		</g>
	</g>
</g>
</svg>
