<?xml version="1.0" encoding="utf-8"?>
<!-- Generator: Adobe Illustrator 24.0.0, SVG Export Plug-In . SVG Version: 6.00 Build 0)  -->
<svg version="1.1" id="bd204452-a587-44b3-9c3f-4688d15c4733"
	 xmlns="http://www.w3.org/2000/svg" xmlns:xlink="http://www.w3.org/1999/xlink" x="0px" y="0px" viewBox="0 0 850 718.4"
	 style="enable-background:new 0 0 850 718.4;" xml:space="preserve">
<style type="text/css">
	.st0{fill:#FFFFFF;}
	.st1{fill:#3F3D56;}
	.st2{fill:#E6E6E6;}
	.st3{fill:#F2F2F2;}
	.st4{fill:#CE4500;}
	.st5{opacity:0.2;enable-background:new    ;}
	.st6{fill:#FFB8B8;}
	.st7{fill:#2F2E41;}
</style>
<path class="st0" d="M630.2,636H283.4c-4.5,0-8.1-3.6-8.1-8.1V391.1c0-4.5,3.6-8.1,8.1-8.1h346.8c4.5,0,8.1,3.6,8.1,8.1v236.8
	C638.3,632.4,634.6,636,630.2,636z"/>
<path class="st1" d="M630.2,636H283.4c-4.5,0-8.1-3.6-8.1-8.1V391.1c0-4.5,3.6-8.1,8.1-8.1h346.8c4.5,0,8.1,3.6,8.1,8.1v236.8
	C638.3,632.4,634.6,636,630.2,636z M283.4,384.8c-3.5,0-6.3,2.8-6.3,6.3v236.8c0,3.5,2.8,6.3,6.3,6.3h346.8c3.5,0,6.3-2.8,6.3-6.3
	V391.1c0-3.5-2.8-6.3-6.3-6.3H283.4z"/>
<path class="st2" d="M496.9,634.6h-80.3V501.7c0-6.6,5.3-11.9,11.9-11.9H485c6.6,0,11.9,5.3,11.9,11.9V634.6z"/>
<path class="st0" d="M611.3,332.5h-45.8v-76.6c0-4.5,3.6-8.1,8.1-8.1h29.6c4.5,0,8.1,3.6,8.1,8.1V332.5z"/>
<path class="st1" d="M611.3,332.5h-45.8v-76.6c0-4.5,3.6-8.1,8.1-8.1h29.6c4.5,0,8.1,3.6,8.1,8.1V332.5z M567.2,330.7h42.2v-74.8
	c0-3.5-2.8-6.3-6.3-6.3h-29.6c-3.5,0-6.3,2.8-6.3,6.3V330.7z"/>
<circle class="st3" cx="352.8" cy="276.5" r="88.3"/>
<path class="st2" d="M589.7,234.3c-8-0.2-15-7.5-15.1-15.5c-0.1-8,6.9-15.3,14.9-15.7c17.7-0.8,32.2-19.8,28.3-37.1
	c-3.9-17.3-25.1-28.2-41.5-21.4c-12.5,5.3-25.2-11.3-22-24.5c3.2-13.2,15.2-22.1,26.3-29.9s23-17,25.7-30.3
	c2.7-13.3-11.1-29.3-23.2-23.1"/>
<path class="st2" d="M382.7,528.4h-67.8c-5.6,0-10.2-4.6-10.2-10.2v-55.9c0-5.6,4.6-10.2,10.2-10.2h67.8c5.6,0,10.2,4.6,10.2,10.2
	v55.9C392.9,523.8,388.4,528.4,382.7,528.4z"/>
<path class="st2" d="M600.2,528.4h-67.8c-5.6,0-10.2-4.6-10.2-10.2v-55.9c0-5.6,4.6-10.2,10.2-10.2h67.8c5.6,0,10.2,4.6,10.2,10.2
	v55.9C610.4,523.8,605.8,528.4,600.2,528.4z"/>
<path class="st4" d="M249.4,387.8v-36.4c0-5.7,3.1-11,8-13.8l202.4-115.7c5.1-2.9,11.4-2.8,16.4,0.4l180.6,115.2
	c4.6,2.9,7.3,8,7.3,13.4v36.9c0,8.8-7.1,15.9-15.9,15.9l0,0h-383C256.5,403.7,249.4,396.6,249.4,387.8z"/>
<path class="st5" d="M648.3,387.5h-383c-8.8,0-15.9-7.1-15.9-15.9V386c0,8.8,7.1,15.9,15.9,15.9h383c8.8,0,15.9-7.1,15.9-15.9v-14.4
	C664.2,380.4,657.1,387.5,648.3,387.5z"/>
<path class="st3" d="M679.4,512.2c0-27.9,22.6-94.2,50.6-94.2c27.9,0,50.6,66.3,50.6,94.2c0,27.9-22.6,50.6-50.6,50.6
	C702,562.8,679.4,540.1,679.4,512.2z"/>
<path class="st1" d="M730,634.9c-0.5,0-0.9-0.4-0.9-0.9V452.4c0-0.5,0.4-0.9,0.9-0.9c0.5,0,0.9,0.4,0.9,0.9V634
	C730.9,634.5,730.5,634.9,730,634.9z"/>
<path class="st1" d="M730,532.9c-0.5,0-0.9-0.4-0.9-0.9c0-0.2,0.1-0.5,0.2-0.6l25.7-27c0.3-0.4,0.9-0.4,1.3,0c0.4,0.3,0.4,0.9,0,1.3
	l-25.7,27C730.5,532.8,730.2,532.9,730,532.9z"/>
<path class="st1" d="M730,487.4c-0.2,0-0.4-0.1-0.6-0.2l-22.2-20.3c-0.4-0.3-0.4-0.9-0.1-1.3c0.3-0.4,0.9-0.4,1.3-0.1l0,0l22.2,20.3
	c0.4,0.3,0.4,0.9,0.1,1.3C730.5,487.3,730.2,487.4,730,487.4L730,487.4z"/>
<path class="st4" d="M61.9,456.6c0-41.1,33.3-138.6,74.4-138.6s74.4,97.5,74.4,138.6S177.4,531,136.4,531S61.9,497.7,61.9,456.6
	L61.9,456.6z"/>
<path class="st1" d="M136.4,636.7c-0.5,0-0.9-0.4-0.9-0.9V368.6c0-0.5,0.4-0.9,0.9-0.9c0.5,0,0.9,0.4,0.9,0.9v267.2
	C137.3,636.3,136.8,636.7,136.4,636.7z"/>
<path class="st1" d="M136.4,486.7c-0.5,0-0.9-0.4-0.9-0.9c0-0.2,0.1-0.5,0.2-0.6l37.8-39.7c0.3-0.4,0.9-0.4,1.3,0
	c0.4,0.3,0.4,0.9,0,1.3c0,0,0,0,0,0L137,486.4C136.8,486.6,136.6,486.7,136.4,486.7z"/>
<path class="st1" d="M136.4,419.7c-0.2,0-0.4-0.1-0.6-0.2l-32.7-29.9c-0.4-0.3-0.4-0.9-0.1-1.3s0.9-0.4,1.3-0.1l32.7,29.9
	c0.4,0.3,0.4,0.9,0.1,1.3C136.8,419.6,136.6,419.7,136.4,419.7L136.4,419.7z"/>
<path class="st2" d="M694.6,634.8c0.1,0.1,0.2,0.1,0.3,0.2h73.3c1.4-5.8,1.9-11.6-0.2-16.7c-3.1-7.2-12.1-11.7-19.3-8.6
	c-1.7,0.8-3.2,1.9-4.3,3.4c-2.8-5-7.8-8.8-13.7-8.8c-7.3,0-13.3,6-15.3,12.8c-3.2-5.4-9.5-9.1-15.6-7.5
	C689.5,612.3,686.2,628.3,694.6,634.8z"/>
<path class="st2" d="M65.3,636.4c0.2,0.1,0.4,0.3,0.5,0.4h147.9c2.9-11.7,3.9-23.5-0.4-33.7c-6.2-14.5-24.4-23.6-38.9-17.4
	c-3.4,1.5-6.4,3.9-8.7,6.9c-5.7-10.2-15.8-17.8-27.6-17.8c-14.7,0-26.9,12-30.9,25.9c-6.4-10.8-19.1-18.4-31.5-15.2
	C54.9,591,48.3,623.3,65.3,636.4z"/>
<rect x="42.1" y="634.9" transform="matrix(1 -1.892107e-03 1.892107e-03 1 -1.2023 0.8053)" class="st1" width="765.8" height="1.8"/>
<path class="st6" d="M300.5,597.5c0.7-2.7-0.9-5.4-3.6-6.1c-0.3-0.1-0.6-0.1-0.9-0.1l-28.6-35.8l-7.1,6.6l30.2,34.2
	c0,2.8,2.2,5.1,5,5.1C297.9,601.4,299.9,599.8,300.5,597.5L300.5,597.5z"/>
<path class="st1" d="M272.9,561.2l-9,6.9c-1,0.8-2.4,0.6-3.2-0.4c-0.1-0.1-0.1-0.2-0.2-0.3l-5.5-9.9c-2.1-2.8-1.5-6.7,1.2-8.8
	c2.7-2.1,6.7-1.5,8.7,1.2l8.1,7.9c0.9,0.9,0.9,2.3,0,3.2C273,561,273,561.1,272.9,561.2L272.9,561.2z"/>
<circle class="st6" cx="257.7" cy="528.1" r="11.5"/>
<polygon class="st6" points="282.2,677.2 288,677.2 287.4,666.5 279,666.5 "/>
<path class="st7" d="M280.8,675.3l11.3,0h0c4,0,7.2,3.2,7.2,7.2c0,0,0,0,0,0v0.2l-18.5,0L280.8,675.3z"/>
<polygon class="st6" points="221,669.1 225.9,672.1 231.1,662.7 225.2,659 "/>
<path class="st7" d="M220.8,666.7l9.6,5.9l0,0c3.4,2.1,4.4,6.5,2.3,9.9c0,0,0,0,0,0l-0.1,0.2l-15.7-9.7L220.8,666.7z"/>
<path class="st7" d="M281.8,674.1c-0.9,0-1.7-0.5-2-1.4l-20.8-49.6c-0.1-0.4-0.5-0.6-0.9-0.4c-0.1,0.1-0.3,0.1-0.3,0.3l-28.5,44.9
	c-0.6,0.9-1.7,1.2-2.6,0.7l-3.9-1.8c-1-0.5-1.5-1.7-1-2.8l23.4-52.1c-0.5-1.2-5.5-14,2.2-20.3l0.1,0l20.7-9.2l0.5,15.9l20.7,71.7
	c0.3,1.1-0.3,2.3-1.4,2.6c0,0,0,0,0,0l-5.4,1.4C282.2,674,282,674.1,281.8,674.1z"/>
<path class="st1" d="M268.4,559.1c-0.8-3.2-1.9-6.4-3.4-7.8c-0.6-0.5-1.1-1.1-1.6-1.7c-1-1.3-2.3-2.3-3.7-3.1c0.5-0.3,0.8-0.6,0.8-1
	c0-1-2.3-1.9-5.1-1.9c-2.8,0-5.1,0.8-5.1,1.9c0,0.2,0.1,0.5,0.3,0.6c-3.8,1.5-6.4,5.1-6.8,9.1c-0.7,7.1-0.9,16.2,1.5,22
	c2,4.8,2.1,10.1,0.4,14.9c-0.3,1,0.2,2,1.2,2.4c0.4,0.1,0.9,0.1,1.3,0l20.6-8.3c0.7-0.3,1.2-1,1.2-1.7v-12.6
	C269.9,567.6,269.4,563.3,268.4,559.1z"/>
<path class="st6" d="M229,610.9c2.7-0.6,4.4-3.3,3.8-6c-0.1-0.3-0.2-0.6-0.3-0.8l16.1-42.5l-8.2-2.1l-14.9,42
	c-2.5,1.3-3.5,4.3-2.2,6.8C224.4,610.4,226.8,611.5,229,610.9L229,610.9z"/>
<path class="st1" d="M248.5,569.7l-10.3-4.8c-1.1-0.5-1.6-1.9-1.1-3c0-0.1,0.1-0.2,0.2-0.3l6.3-9.5c1.5-3.1,5.2-4.4,8.3-3
	c3.1,1.5,4.4,5.2,3,8.3l-3.2,10.8c-0.4,1.2-1.6,1.9-2.8,1.5C248.7,569.8,248.6,569.7,248.5,569.7z"/>
<path class="st7" d="M268.3,525.2c0.5,0.1,1,0,1.5-0.3c0.8-0.6,0.8-1.8,0.5-2.8c-1.5-4.7-5.2-8.4-10-9.7c-1.6-0.4-3.7-0.4-4.6,1
	c-4.9-3.2-11.4-2.4-15.3,1.9c-1.9,2.2-3.1,4.8-3.6,7.7c-1,4.8-5.2,14.7-2.9,19.1c1.6,2.9,8.7,0.6,11.7,1.9c3.1,1.3,6.6,1,9.4-0.8
	c2.8-1.9,4-5.4,2.9-8.6c-0.5-1.1-1.1-2.3-1.8-3.3c-0.7-1.1-1-2.4-0.8-3.6C255.7,525.7,264.8,525.2,268.3,525.2z"/>
</svg>
