<?xml version="1.0" encoding="utf-8"?>
<!-- Generator: Adobe Illustrator 24.0.1, SVG Export Plug-In . SVG Version: 6.00 Build 0)  -->
<svg version="1.1" id="Calque_1" xmlns="http://www.w3.org/2000/svg" xmlns:xlink="http://www.w3.org/1999/xlink" x="0px" y="0px"
	 viewBox="0 0 819 697" style="enable-background:new 0 0 819 697;" xml:space="preserve">
<style type="text/css">
	.st0{fill:#FFB8B8;}
	.st1{fill:#2F2E41;}
	.st2{fill:#111111;}
	.st3{fill:#A0616A;}
	.st4{fill:#CE4500;}
	.st5{fill:#E6E6E6;}
	.st6{fill:#FFFFFF;}
	.st7{fill:#3F3D56;}
	.st8{fill:#CCCCCC;}
</style>
<polygon class="st0" points="632.1,673.5 620.5,677.4 600.1,634.3 617.3,628.6 "/>
<path class="st1" d="M611.1,676.8l22.4-7.4l0,0l4.7,14.1l0,0l-36.6,12.1l0,0l0,0C599,687.8,603.3,679.4,611.1,676.8z"/>
<polygon class="st0" points="555.4,684.2 543.1,684.2 537.3,636.9 555.4,636.9 "/>
<path class="st1" d="M534.3,680.7H558l0,0v14.9l0,0h-38.5l0,0l0,0C519.4,687.4,526.1,680.7,534.3,680.7z"/>
<path class="st2" d="M544,508.7l-0.6,2.8c-8.4,37.4-11.5,91.8-8.9,130.1l1.9,29.6c0.1,2.1,1.9,3.7,4,3.7h14.7c2,0,3.7-1.5,4-3.5
	l11.4-97c0.3-2.2,2.2-3.8,4.4-3.5c1.6,0.2,2.9,1.3,3.3,2.8l29.6,87.6c0.5,1.6,1.9,2.7,3.6,2.8l22.5,1.4c2.2,0.1,4.1-1.5,4.2-3.7
	c0-0.5,0-1-0.2-1.5l-13.5-37.2c-10.4-33.3-16.1-84-16.7-119l0,0c0-2.2-1.9-4-4.1-3.9c-0.1,0-0.2,0-0.3,0l-55.8,5.3
	C545.8,505.8,544.4,507,544,508.7z"/>
<circle class="st3" cx="576.7" cy="328.8" r="24.6"/>
<path class="st4" d="M560.6,516.7L560.6,516.7c-4.9,0-9.8-0.3-14.6-0.8c-3.3-0.4-5.6-3.2-5.3-6.5l8.4-80.9c2-22.9,5.1-45,20.9-63.7
	c1.1-1.3,2.7-2.1,4.3-2.1l0.6,0c6.2-0.3,9.1,0,9.9,0.8l4.3,4.3c26.5,19.6,27.6,143.7,21.1,141.2c-1.3-0.5-16.3,0-17.4,0.7
	C584.2,515.5,570.6,516.7,560.6,516.7z"/>
<path class="st3" d="M464.2,471.8c2.4-5,8.4-7.2,13.4-4.8c0.5,0.3,1,0.6,1.5,0.9l29.1-20.8l0.7,18.6l-27.7,16.9
	c-3.5,4.3-9.9,5-14.2,1.5C463.3,481.1,462.2,476,464.2,471.8z"/>
<path class="st4" d="M493.1,477.3l-9.8-17.3l89.7-64.7c8.1-5.9,19.5-4,25.3,4.1c5.9,8.1,4,19.5-4.1,25.3c-0.7,0.5-1.5,1-2.3,1.4
	L493.1,477.3z"/>
<path class="st2" d="M587.7,349.6c1.7,1.7,4.4,1.9,6.3,0.4c5.8-4.3,10.9-9.6,13.9-16.1c3.4-7.5,3.8-16.6-0.3-23.7
	c-3.5-6-9.7-9.9-15.9-13c-2.4-1.4-5-2.4-7.7-3c-2.7-0.6-5.6-0.1-8,1.3c-2.4,1.5-3.6,4.3-3.1,7.1c-3-3.4-6.8-5.9-11-7.4
	c-2.7-1-5.6-1.3-8.4-0.6c-3.9,1.1-6.8,4.6-8.4,8.4c-1.3,2.9-1.7,6-1.3,9.1c0.5,3.1,2.2,5.9,4.9,7.6c3.2,2,7.4,1.9,11.1,1
	s7.3-2.2,11.1-2.6s8,0.6,10.3,3.6c1.6,2.1,2,4.9,2.4,7.6l1.9,13.8c0.2,2,0.7,4,1.5,5.8C587.3,349.1,587.5,349.3,587.7,349.6z"/>
<path class="st3" d="M640.7,521.7c-4.5-3.3-5.5-9.5-2.3-14c0.3-0.5,0.7-0.9,1.2-1.3l-15-32.4l18.4,2.7l11.5,30.4
	c3.6,4.3,3.1,10.6-1.2,14.2C649.7,524.2,644.5,524.4,640.7,521.7L640.7,521.7z"/>
<path class="st4" d="M650.8,487.2l-17.3,9.8l-64.7-89.7c-5.9-8.1-4-19.5,4.1-25.3c8.1-5.9,19.5-4,25.3,4.1c0.5,0.7,1,1.5,1.4,2.3
	L650.8,487.2z"/>
<path id="af36087b-ebb7-4586-9a2a-879d85f262d7-194" class="st5" d="M493,165.3h-3.8V60.6C489.1,27.1,462,0,428.5,0H206.7
	c-33.5,0-60.6,27.1-60.6,60.6v574.3c0,33.5,27.1,60.6,60.6,60.6h221.8c33.5,0,60.6-27.1,60.6-60.6V239.8h3.8L493,165.3z"/>
<path id="bd8e308f-d5b9-490f-b905-e174e794b745-195" class="st6" d="M431,15.8h-29c4.5,11-0.8,23.5-11.8,28
	c-2.6,1.1-5.3,1.6-8.1,1.6H255.1c-11.9,0-21.5-9.6-21.5-21.5c0-2.8,0.5-5.5,1.6-8.1h-27c-25,0-45.3,20.3-45.3,45.3v573.5
	c0,25,20.3,45.3,45.3,45.3H431c25,0,45.3-20.3,45.3-45.3l0,0V61C476.2,36,456,15.8,431,15.8L431,15.8z"/>
<path class="st7" d="M319.5,355c-58,0-105-47-105-105s47-105,105-105s105,47,105,105l0,0C424.5,308,377.5,354.9,319.5,355z
	 M319.5,147c-56.9,0-103,46.1-103,103s46.1,103,103,103s103-46.1,103-103l0,0C422.5,193.1,376.4,147.1,319.5,147z"/>
<path class="st5" d="M358.1,219.5c9-7.6,14.5-19.6,13-31.3s-10.3-22.4-21.8-24.9s-24.6,4.4-28.1,15.6c-1.9-21.7-4.1-44.3-15.7-62.7
	c-10.4-16.7-28.5-28.7-48.1-30.8s-40.2,5.9-52.4,21.4s-15.2,37.9-6.7,55.7c6.3,13.1,17.9,22.8,30.1,30.7c38.8,25.3,87,33.8,132.8,27
	L358.1,219.5z"/>
<path class="st6" d="M224.4,91.8c16.2,13.2,31,27.9,44.3,44c20.8,25.1,37.6,53.2,49.9,83.3c0.9,2.2-2.7,3.2-3.6,1
	c-20.1-49-52.1-92.2-93.2-125.6C219.9,92.9,222.6,90.3,224.4,91.8L224.4,91.8z"/>
<circle class="st2" cx="229.9" cy="447" r="11"/>
<path class="st8" d="M412.2,455h-140c-4.4,0-8-3.6-8-8s3.6-8,8-8h140c4.4,0,8,3.6,8,8S416.6,455,412.2,455z"/>
<path class="st4" d="M368.8,455.1h-97.2c-4.5,0-8.1-3.6-8.1-8.1c0-4.5,3.6-8.1,8.1-8.1h97.2c4.5,0,8.1,3.6,8.1,8.1
	C376.9,451.5,373.3,455.1,368.8,455.1z"/>
<circle class="st2" cx="229.9" cy="495" r="11"/>
<path class="st8" d="M412.2,503h-140c-4.4,0-8-3.6-8-8s3.6-8,8-8h140c4.4,0,8,3.6,8,8S416.6,503,412.2,503z"/>
<circle class="st2" cx="229.9" cy="543" r="11"/>
<path class="st8" d="M412.2,551h-140c-4.4,0-8-3.6-8-8s3.6-8,8-8h140c4.4,0,8,3.6,8,8S416.6,551,412.2,551z"/>
<path class="st4" d="M336.8,503.1h-65.2c-4.5,0-8.1-3.6-8.1-8.1c0-4.5,3.6-8.1,8.1-8.1h65.2c4.5,0,8.1,3.6,8.1,8.1
	C344.9,499.5,341.3,503.1,336.8,503.1z"/>
<path class="st4" d="M394.8,551.1H271.6c-4.5,0-8.1-3.6-8.1-8.1c0-4.5,3.6-8.1,8.1-8.1h123.2c4.5,0,8.1,3.6,8.1,8.1
	C402.9,547.5,399.3,551.1,394.8,551.1z"/>
<path class="st2" d="M375.1,233.7h-13.7v-40.6c0-2.5,2-4.5,4.5-4.5h4.7c2.5,0,4.5,2,4.5,4.5V233.7z"/>
<path class="st2" d="M383.5,302.8H252.1l-0.5-74c0-2.3,0.9-4.5,2.6-6.1l33-32.1c1.6-1.5,3.7-2.4,5.9-2.4l55.2-0.5
	c2.5,0,4.9,1.1,6.6,3l0,0l26.2,32.2c1.5,1.9,2.4,4.2,2.4,6.6L383.5,302.8z"/>
<path class="st4" d="M383.5,302.8h-70.6v-66.4c0-2,0.7-4,2-5.5l30.7-36v0c1.6-1.9,4-3,6.5-3h0c2.5,0,4.9,1.1,6.5,3l22.9,27.3
	c1.3,1.5,2,3.5,2,5.5V302.8z"/>
<path class="st6" d="M353.5,277.3h-10.2c-1.4,0-2.5-1.1-2.5-2.5v-8.6c0-1.4,1.1-2.5,2.5-2.5h10.2c1.4,0,2.5,1.1,2.5,2.5v8.6
	C356,276.2,354.9,277.3,353.5,277.3z"/>
<path class="st6" d="M353.5,255.4h-10.2c-1.4,0-2.5-1.1-2.5-2.5v-8.4c0-1.4,1.1-2.5,2.5-2.5h10.2c1.4,0,2.5,1.1,2.5,2.5v8.4
	C356,254.2,354.9,255.3,353.5,255.4z"/>
<path class="st6" d="M290.4,274h-10.2c-1.4,0-2.5-1.1-2.5-2.5v-8.6c0-1.4,1.1-2.5,2.5-2.5h10.2c1.4,0,2.5,1.1,2.5,2.5v8.6
	C292.9,272.8,291.7,274,290.4,274z"/>
<path class="st6" d="M290.4,252h-10.2c-1.4,0-2.5-1.1-2.5-2.5v-8.4c0-1.4,1.1-2.5,2.5-2.5h10.2c1.4,0,2.5,1.1,2.5,2.5v8.4
	C292.9,250.9,291.7,252,290.4,252z"/>
<path class="st7" d="M408.9,303.7H230.2c-0.6,0-1-0.4-1-1s0.4-1,1-1h178.7c0.6,0,1,0.4,1,1S409.5,303.7,408.9,303.7z"/>
<path class="st7" d="M818,697H1c-0.6,0-1-0.4-1-1s0.4-1,1-1h817c0.6,0,1,0.4,1,1S818.6,697,818,697z"/>
</svg>
