<?xml version="1.0" encoding="utf-8"?>
<!-- Generator: Adobe Illustrator 24.0.1, SVG Export Plug-In . SVG Version: 6.00 Build 0)  -->
<svg version="1.1" id="Calque_1" xmlns="http://www.w3.org/2000/svg" xmlns:xlink="http://www.w3.org/1999/xlink" x="0px" y="0px"
	 viewBox="0 0 1077.3 784" style="enable-background:new 0 0 1077.3 784;" xml:space="preserve">
<style type="text/css">
	.st0{fill:#F2F2F2;}
	.st1{fill:#CACACA;}
	.st2{fill:#FFFFFF;}
	.st3{fill:#E4E4E4;}
	.st4{fill:#111111;}
	.st5{fill:#444444;}
	.st6{fill:#CE4500;}
	.st7{fill:#FFB8B8;}
	.st8{fill:#E6E6E6;}
</style>
<path class="st0" d="M1059.2,551.2c-18.8,38.9-51.5,68.6-88.8,91.2c-15.3,9.2-31.2,17.4-47.6,24.4c-10.7,4.7-21.6,8.9-32.7,12.7
	C835.4,698.6,777.5,708,719.4,708c-9.5,0-19-0.2-28.4-0.7c-2.7-0.1-5.4-0.3-8.2-0.5c-14.3-1-28.6-2.5-42.9-4.6
	c-0.3,0-0.6-0.1-0.9-0.1c-29.8-4.4-59.1-11.3-87.8-20.6c-5.5-1.8-11.1-3.7-16.5-5.7c-1.5-0.5-3-1.1-4.4-1.6
	c-6.2-2.3-12.3-4.7-18.4-7.2c-5.1-2.1-10.2-4.3-15.3-6.6c-5-2.3-9.9-4.6-14.8-7c-8-3.9-16-8.1-23.9-12.4c-6.1-3.4-12.1-6.8-18-10.5
	c-14.7-9-28.8-18.7-42.5-29.1c-4.8-3.7-9.6-7.5-14.3-11.3c-3.3-2.7-6.5-5.4-9.7-8.1c-6.9-5.6-14-10.9-21.9-14.9
	c-2.4-1.2-4.8-2.3-7.3-3.2c-9.3-3.5-19.2-5.4-29.2-5.7c-17-0.7-34.5,2.5-51,7.2c-7.8,2.2-15.5,4.8-23.3,7.3
	c-3.2,1.1-6.3,2.1-9.5,3.2c-6.5,2.2-13.1,4.4-19.7,6.4c-2.2,0.7-4.4,1.3-6.6,1.9c-8.8,2.5-17.8,4.5-26.9,5.7
	c-20.3,2.6-40.9,0.8-60.5-5.3l-1.7-0.5c-2.8-0.9-5.6-1.8-8.3-2.9l-1.7-0.6c-2.7-1-5.3-2.1-7.8-3.3l-1.7-0.8
	c-2.5-1.2-4.9-2.3-7.2-3.6c-0.2-0.1-0.4-0.2-0.6-0.3c-0.9-0.5-1.8-1-2.7-1.5c-14.5-8.1-27.7-18.4-39.2-30.5c-0.3-0.3-0.6-0.7-1-1
	c-1.6-1.7-3.2-3.5-4.7-5.3c-0.6-0.7-1.1-1.3-1.7-2c-1.8-2.2-3.5-4.4-5.2-6.7c-0.3-0.3-0.5-0.7-0.7-1c-6.8-9.5-12.5-19.7-16.9-30.5
	c-0.1-0.3-0.3-0.7-0.4-1c-1.3-3.4-2.5-6.9-3.6-10.5c-0.5-1.5-0.9-3-1.3-4.5c-0.1-0.4-0.3-0.9-0.4-1.3C5.6,455.3,5,432.7,5,410.3
	v-7.9c0.2-36.3,0.7-73.3,6.1-109.1c0-0.2,0.1-0.5,0.1-0.7c1.8-12.1,4.2-24,7.3-35.8c3.2-12.4,7.3-24.5,12.3-36.3
	c12.3-29,30.3-55.4,50.2-79.9C131.1,79.1,196.9,27.4,273.9,8.1c83-20.8,175.1-0.9,242,52.4c19.7,15.7,37.5,34.2,59.4,46.7
	c0.7,0.4,1.5,0.9,2.3,1.3c2.9,1.6,5.8,3,8.9,4.3c4,1.7,8.1,3.1,12.3,4.3c13.3,3.6,27.2,3.9,40.4-0.5c1.1-0.4,2.2-0.8,3.2-1.2
	c2.3-0.9,4.4-1.7,6.5-2.5c14.3-5.3,25.2-7.9,42.6-7c41.2,2.3,81.7,10.8,120.4,25.2c1.6,0.6,3.1,1.2,4.7,1.8
	c100.7,38.6,187.3,115.1,232.3,213.5c1.2,2.6,2.4,5.2,3.5,7.9C1079.1,416.6,1088.8,490.1,1059.2,551.2z"/>
<polygon class="st1" points="63.6,512.6 63.6,513 63.5,513.2 "/>
<path class="st2" d="M240.9,572.8c-3.2,1.1-6.3,2.1-9.5,3.2v-3.2H240.9z"/>
<rect x="575.3" y="58.8" class="st3" width="23.4" height="58.6"/>
<path class="st3" d="M639.1,112.7v589.4c-29.8-4.4-59.1-11.3-87.8-20.6c-5.5-1.8-11.1-3.7-16.5-5.7c-1.5-0.5-3-1.1-4.4-1.6
	c-6.2-2.3-12.3-4.7-18.4-7.2c-5.1-2.1-10.2-4.3-15.3-6.6c-5-2.3-9.9-4.6-14.8-7c-8-3.9-16-8.1-23.9-12.4c-6.1-3.4-12.1-6.8-18-10.5
	V112.7L639.1,112.7z"/>
<path class="st1" d="M719.4,112.7V708c-9.5,0-19-0.2-28.4-0.7c-2.7-0.1-5.4-0.3-8.2-0.5c-14.3-1-28.6-2.5-42.9-4.6
	c-0.3,0-0.6-0.1-0.9-0.1V112.7L719.4,112.7z"/>
<rect x="476" y="171.3" class="st2" width="30.1" height="30.1"/>
<rect x="524.5" y="171.3" class="st2" width="30.1" height="30.1"/>
<rect x="573.1" y="171.3" class="st2" width="30.1" height="30.1"/>
<rect x="476.9" y="239.9" class="st2" width="30.1" height="30.1"/>
<rect x="525.4" y="239.9" class="st2" width="30.1" height="30.1"/>
<rect x="573.9" y="239.9" class="st2" width="30.1" height="30.1"/>
<rect x="477.7" y="308.4" class="st2" width="30.1" height="30.1"/>
<rect x="526.2" y="308.4" class="st2" width="30.1" height="30.1"/>
<rect x="574.7" y="308.4" class="st2" width="30.1" height="30.1"/>
<rect x="478.5" y="377" class="st2" width="30.1" height="30.1"/>
<rect x="527.1" y="377" class="st2" width="30.1" height="30.1"/>
<rect x="575.6" y="377" class="st2" width="30.1" height="30.1"/>
<rect x="479.4" y="445.6" class="st2" width="30.1" height="30.1"/>
<rect x="527.9" y="445.6" class="st2" width="30.1" height="30.1"/>
<rect x="576.4" y="445.6" class="st2" width="30.1" height="30.1"/>
<rect x="480.2" y="514.2" class="st2" width="30.1" height="30.1"/>
<rect x="528.7" y="514.2" class="st2" width="30.1" height="30.1"/>
<rect x="577.2" y="514.2" class="st2" width="30.1" height="30.1"/>
<rect x="481" y="582.8" class="st2" width="30.1" height="30.1"/>
<rect x="529.6" y="582.8" class="st2" width="30.1" height="30.1"/>
<rect x="578.1" y="582.8" class="st2" width="30.1" height="30.1"/>
<path class="st2" d="M512,651.4V667c-5.1-2.1-10.2-4.3-15.3-6.6c-5-2.3-9.9-4.6-14.8-7v-2.1H512z"/>
<path class="st2" d="M560.5,651.4v30.1h-9.1c-5.5-1.8-11.1-3.7-16.5-5.7c-1.5-0.5-3-1.1-4.4-1.6v-22.8L560.5,651.4z"/>
<rect x="578.9" y="651.4" class="st2" width="30.1" height="30.1"/>
<rect x="848.3" y="357" class="st3" width="23.4" height="34.7"/>
<path class="st3" d="M890.1,388.7v290.8C835.4,698.6,777.5,708,719.4,708c-9.5,0-19-0.2-28.4-0.7V388.7L890.1,388.7z"/>
<path class="st1" d="M970.4,388.7v253.7c-15.3,9.2-31.2,17.4-47.6,24.4c-10.7,4.6-21.6,8.9-32.7,12.7V388.7L970.4,388.7z"/>
<rect x="730.3" y="445.6" class="st2" width="30.1" height="30.1"/>
<rect x="778.8" y="445.6" class="st2" width="30.1" height="30.1"/>
<rect x="827.4" y="445.6" class="st2" width="30.1" height="30.1"/>
<rect x="731.2" y="514.2" class="st2" width="30.1" height="30.1"/>
<rect x="779.7" y="514.2" class="st2" width="30.1" height="30.1"/>
<rect x="828.2" y="514.2" class="st2" width="30.1" height="30.1"/>
<rect x="732" y="582.8" class="st2" width="30.1" height="30.1"/>
<rect x="780.5" y="582.8" class="st2" width="30.1" height="30.1"/>
<rect x="829" y="582.8" class="st2" width="30.1" height="30.1"/>
<rect x="732.8" y="651.4" class="st2" width="30.1" height="30.1"/>
<rect x="781.4" y="651.4" class="st2" width="30.1" height="30.1"/>
<rect x="829.9" y="651.4" class="st2" width="30.1" height="30.1"/>
<path class="st4" d="M714.6,717.2c0,0,10.7,38.1,55.6,36.4s64.3-37.1,64.3-37.1L714.6,717.2z"/>
<polygon class="st5" points="96.3,568.6 83.5,592.1 85.6,636.1 392.8,727.4 526.5,743.8 500.4,584.3 408.9,568.1 271.6,572.1 
	155.2,550.6 "/>
<path class="st4" d="M139.1,723.1h-7.9c-15.7,0.1-29.9-9-36.5-23.2c-12.2-26.7-8.6-63.6-8.5-64.1c2.8-31.9,20.3-52.7,43.5-51.8
	c25.7,1,47.6,89.8,48.5,93.6c1.5,6.4,1.1,13.1-1.2,19.2C171.1,712.7,156,723.2,139.1,723.1z"/>
<path class="st4" d="M462.4,784c-1.4,0-2.7-0.2-4-0.4c-20.8-3.3-38.6-16.8-47.3-36c-3.2-7-6.3-14.1-9.2-21.3
	c-11.6-28.6-1.9-78.7,13.9-98c13.9-17.1,27.9-17,49.2-16.8c2.2,0,4.4,0,6.8,0c23.6,0,48.5,86.7,56.7,115.2c0.7,2.3,1.2,4.1,1.6,5.5
	c1.3,4.3,1.1,9.5-0.5,15.4c-5,18.6-21.5,32.3-41,34.2C474.5,783.3,465.7,784,462.4,784z"/>
<path class="st4" d="M85.6,636.1c0,0-9-40.2,4.5-67.5l13.6-32.9l51.4,47.8l11.7,74.8l201.3,30.5c0,0-12.5-122.6,65.8-127.5
	s115.4,127.5,115.4,127.5l39.1,28.4l272.2-20.1c0,0,4.8,13.2-2.1,20.1s-337.3,28.4-337.3,28.4s-16.6-164.2-82.4-148.9
	s-46.1,130.8-46.1,130.8L157.6,686c0,0-7.6-111.5-46.4-111.5S85.6,636.1,85.6,636.1z"/>
<polygon class="st4" points="132,496.5 176.3,426.9 365.4,415.9 575.3,418.6 673,509.4 371,526.7 127.8,513.5 "/>
<path class="st6" d="M132,496.5c0,0-37.7,0.8-41.9,72.1c0,0,40.2-72.7,74.8,89.4l206.8,33.6c0,0-7.6-135.1,70.7-124.7
	s97,134.4,97,134.4s15.2,30.5,99.1,25.6s209.2-12.5,222.4-29.8c0,0,30.5-103.2-64.4-169.7l-123.3-18l-279.2,5.5L132,496.5z"/>
<path class="st1" d="M226.6,545H203c-2.7,0-4.9-2.2-4.9-4.8c0-2.7,2.2-4.9,4.8-4.9c0,0,0,0,0,0h23.6c2.7,0,4.8,2.2,4.8,4.9
	C231.4,542.9,229.2,545,226.6,545z"/>
<circle class="st2" cx="585" cy="680.5" r="15.2"/>
<path class="st2" d="M577.5,605.7c-10.4,0-22.9-4.5-34-13c-19.7-15.2-27.9-37.5-18.4-49.9c9.5-12.4,33.3-10.1,52.9,5.1
	c9.5,7.3,16.7,16.5,20.2,25.9c3.5,9.4,2.9,18-1.7,24C592.3,603.1,585.5,605.7,577.5,605.7z"/>
<path class="st2" d="M848.3,586.3c-7.7,0-21.5-7.8-35.1-20.4c-8.2-7.6-15-15.7-19.1-22.8c-4.2-7.3-5.1-12.7-2.7-15.4s8-2.1,15.6,1.5
	c7.5,3.5,16.1,9.7,24.3,17.2c17.3,16,26.8,32.7,21.8,38.2C851.7,585.9,850,586.5,848.3,586.3z"/>
<path class="st2" d="M204.5,496.4c-0.2,0-0.3,0-0.5,0l-50.1-4.7c-3-0.3-5.1-2.9-4.9-5.9c0.1-0.8,0.3-1.6,0.8-2.3l28.2-45.5
	c0.9-1.5,2.6-2.5,4.3-2.5l37.4-1.6c3-0.1,5.5,2.2,5.6,5.1c0,0.6,0,1.2-0.2,1.8l-15.5,51.8C209,494.9,206.9,496.4,204.5,496.4z"/>
<path class="st2" d="M336.5,507.1c-0.5,0-1,0-1.5-0.1l-86.6-8.5c-8.3-0.8-14.4-8.2-13.6-16.5c0.1-0.8,0.2-1.7,0.5-2.5l12.5-45.7
	c1.7-6.4,7.4-10.9,14.1-11.1l69.9-2.4c7.9-0.2,14.6,5.6,15.5,13.4l5.8,49.7c0.2,1.7,0.1,3.3-0.2,5l-1.5,6.9
	C349.8,502.2,343.6,507.1,336.5,507.1z"/>
<path class="st2" d="M404.1,509.5c-5.2,0-9.7-3.6-10.9-8.7l-15.3-66c-1.4-6,2.4-12.1,8.4-13.5c0.8-0.2,1.7-0.3,2.5-0.3H570
	c3,0,5.9,1.2,8.1,3.4l59.2,61c4.3,4.4,4.2,11.6-0.2,15.9c-2,2-4.7,3.1-7.6,3.2l-225,5C404.3,509.5,404.2,509.5,404.1,509.5z"/>
<path class="st6" d="M174.8,429.4l1.5-2.4c0,0,9-24.9,133-29.1s239.7-2.1,266,20.8l-214-0.7l-180.8,12.5L174.8,429.4z"/>
<path class="st3" d="M116.1,607c-13,0-23.6,21.7-23.6,48.5c0,26.8,10.5,48.5,23.6,48.5s23.6-21.7,23.6-48.5
	C139.6,628.7,129.1,607,116.1,607z M117.1,617.4c2.9,0,5.2,5.6,5.2,12.5s-2.3,12.5-5.2,12.5s-5.2-5.6-5.2-12.5
	S114.2,617.4,117.1,617.4z M120.2,655.5c0,2.3-1.6,4.2-3.5,4.2s-3.5-1.9-3.5-4.2s1.6-4.2,3.5-4.2S120.2,653.2,120.2,655.5
	L120.2,655.5z M102.1,658.2c-4.5,0.3-8.2-0.9-8.3-2.7s3.4-3.6,7.8-4c4.5-0.3,8.2,0.9,8.3,2.7S106.6,657.9,102.1,658.2L102.1,658.2z
	 M117.1,693.6c-2.9,0-5.2-5.6-5.2-12.5s2.3-12.5,5.2-12.5s5.2,5.6,5.2,12.5S120,693.6,117.1,693.6L117.1,693.6z M130.5,658.2
	c-4.5,0.3-8.2-0.9-8.3-2.7s3.4-3.6,7.8-4c4.5-0.3,8.2,0.9,8.3,2.7S135,657.9,130.5,658.2L130.5,658.2z"/>
<path class="st3" d="M445.1,639.6c-20.7,0-37.4,27.8-37.4,62c0,34.2,16.7,62,37.4,62c20.7,0,37.4-27.8,37.4-62
	S465.8,639.6,445.1,639.6z M422.8,706.2c-6,0.5-11.1-1.2-11.3-3.7s4.5-4.9,10.6-5.4s11.1,1.2,11.3,3.7
	C433.5,703.4,428.8,705.8,422.8,706.2L422.8,706.2z M445.1,753.5c-3.9,0-7-7.6-7-16.9s3.2-16.9,7-16.9c3.9,0,7,7.6,7,16.9
	S449,753.5,445.1,753.5L445.1,753.5z M439.6,701.9c0-3.7,2.5-6.7,5.5-6.7s5.5,3,5.5,6.7s-2.5,6.7-5.5,6.7S439.6,705.6,439.6,701.9
	L439.6,701.9z M445.1,684.1c-3.9,0-7-7.6-7-16.9s3.2-16.9,7-16.9c3.9,0,7,7.6,7,16.9S449,684.1,445.1,684.1L445.1,684.1z
	 M468.9,704.9c-6,0.5-11.1-1.2-11.3-3.7s4.5-4.9,10.6-5.4s11.1,1.2,11.3,3.7S474.9,704.4,468.9,704.9z"/>
<path class="st1" d="M314.2,515.6l8.3,19.4c0,0,13.9,5.5,22.9-13.2l-18.2-18.2L314.2,515.6z"/>
<path class="st1" d="M302.8,520.1c-14.9,0-27-8.1-27-18c0-9.9,12.1-18,27-18s27,8.1,27,18C329.8,512,317.7,520.1,302.8,520.1z"/>
<path class="st4" d="M823.7,583.5L668.8,588c0,0-33.9,9.5-37.4,36.7c0,0,4.8,22.2,17.3,22.2s203.4-10,203.4-10s12.5-19,2.1-32.6
	S823.7,583.5,823.7,583.5z"/>
<rect x="655.4" y="595.1" transform="matrix(0.9995 -3.304389e-02 3.304389e-02 0.9995 -19.2927 24.9865)" class="st3" width="181.7" height="2.1"/>
<rect x="646.1" y="603.2" transform="matrix(0.999 -4.525995e-02 4.525995e-02 0.999 -26.5844 34.3366)" class="st3" width="197.7" height="2.1"/>
<rect x="638.7" y="613.4" transform="matrix(0.9986 -5.362220e-02 5.362220e-02 0.9986 -31.8738 40.8188)" class="st3" width="212.1" height="2.1"/>
<g id="fa69add6-ae6a-462f-9f4a-a8964149f7d7">
	<path id="f4e602e9-d2b5-4192-9853-189e5cc927ef-79" class="st7" d="M115,561.6c-3.2-4.1-2.5-10,1.6-13.2c0.4-0.3,0.9-0.6,1.4-0.9
		l-2-21.4l12.7-4.4l2.4,30.3c2.1,4.8,0,10.4-4.8,12.5C122.3,566.3,117.6,565.1,115,561.6L115,561.6z"/>
	<path id="e2d38235-adb3-41cf-b4a9-63352e01515a-80" class="st8" d="M128.6,438.6c0,0,8.7-18.3,16.5-11.9s-10.6,60.7-10.6,60.7
		l-2.8,52.7l-14.8-1.5l-4.2-51.3L128.6,438.6z"/>
	<path id="eea0d059-1974-4b26-aac7-8a2396c42a8e-81" class="st7" d="M11.4,710l11,8.9l39.4-38.1l-16.2-13.1L11.4,710z"/>
	<path id="a9703c69-ade6-4e5d-bca9-6a3d314fecef-82" class="st5" d="M11.5,704.1l21.6,17.5l0,0c7.6,6.1,8.8,17.3,2.6,24.9l-0.4,0.4
		L0,718.3L11.5,704.1z"/>
	<path id="fb949616-149f-4f99-b6d4-35f2ecdeae65-83" class="st7" d="M163.7,734.6h14.1l6.7-54.4h-20.8L163.7,734.6z"/>
	<path id="b920e865-38ed-4b06-94ca-a4364bcce1a4-84" class="st5" d="M160.1,730h27.8c9.8,0,17.7,7.9,17.7,17.7v0.6h-45.5L160.1,730z
		"/>
	<path id="e64f2ddc-8714-4699-9f4e-cfc1a70d06b3-85" class="st5" d="M188.4,479.7c0,0,26.5,32.2,20.7,64.4s-10.4,56.4-10.4,56.4
		l-9.2,72.4c0,0,3.4,19.7-1.1,24.8c0,0,6.9,12-5.8,16.6s-19.5-1.6-19.5-1.6s-9.3-13.4-3.5-16.8l2.4-142.2L70,674
		c0,0-1.7,14.6-13.5,14.8l-14.1,10.5l-16.1-9.2l8.1-10.3c0,0-4.6-11.5,5.8-13.8l59.8-78.2l15-40.3c0,0,8.1-31.1,29.9-43.7v-13.5
		L188.4,479.7z"/>
	<path id="bce97f6a-e88b-4fe5-bf4a-3ce22a01c084-86" class="st8" d="M143,423.9L143,423.9c7.2-8.5,19.7-10.3,28.9-4.1l1,0.6l0,0
		c10.2,11.6,17.1,25.7,19.8,40.9l4.3,23.5L143,496.5l-12.7-43.7C127,441.4,132.3,429.2,143,423.9L143,423.9z"/>
	<path id="b697c87b-19ec-4b06-9e7e-37987317631c-87" class="st7" d="M231.8,566.6c-5.7-1.9-8.7-7.9-6.9-13.6
		c0.2-0.6,0.4-1.2,0.7-1.7l-15.6-19.1l9.3-12.3l21.6,27.3c5.1,3.2,6.6,9.9,3.4,14.9C241.8,566.3,236.6,568.2,231.8,566.6
		L231.8,566.6z"/>
	<path id="ff802918-ea99-4deb-b868-19882644d1b6-88" class="st8" d="M166,441.1c0,0-3.4-23,8.1-21.9s28.8,64.4,28.8,64.4l31.1,51.8
		l-15,8l-36.8-46L166,441.1z"/>
	<path id="b2ad01c3-7822-402f-83d4-81805929538c-89" class="st4" d="M187.1,407.5h-54.8c-2.3,0-4.2-1.9-4.2-4.2v-23.6
		c0-17.5,14.2-31.6,31.6-31.6s31.6,14.2,31.6,31.6l0,0v23.6C191.3,405.6,189.4,407.5,187.1,407.5z"/>
	<circle id="fe1c8106-5903-484b-8252-f0483d4636a1" class="st7" cx="166.2" cy="383.8" r="23.2"/>
	<path id="e2d5a9f4-7ffc-4596-9574-3d578968164c-90" class="st4" d="M198.8,382h-29.2l-0.3-4.8l-1.5,4.8h-4.5l-0.6-9.5l-3,9.5h-8.7
		v-0.5c0-13.8,9.8-25,21.8-25h4.1c12,0,21.8,11.2,21.8,25L198.8,382z"/>
	<path id="aa8282a4-b0b8-48ea-8496-97297549be2f-91" class="st4" d="M170.8,411.9c-0.4,0-0.7,0-1.1-0.1l-34.7-5.4v-36.2
		c0-7.7,6.2-13.9,13.9-13.9c0,0,0,0,0,0h24.3l-0.9,1c-13.2,13.4-3.2,35.2,3.8,46.9c1.1,1.7,0.9,4-0.5,5.5
		C174.5,411.2,172.7,411.9,170.8,411.9L170.8,411.9z"/>
</g>
</svg>
