<?xml version="1.0" encoding="utf-8"?>
<!-- Generator: Adobe Illustrator 24.0.1, SVG Export Plug-In . SVG Version: 6.00 Build 0)  -->
<svg version="1.1" id="Calque_1" xmlns="http://www.w3.org/2000/svg" xmlns:xlink="http://www.w3.org/1999/xlink" x="0px" y="0px"
	 viewBox="0 0 1140.7 705.6" style="enable-background:new 0 0 1140.7 705.6;" xml:space="preserve">
<style type="text/css">
	.st0{fill:#111111;}
	.st1{fill:#CCCCCC;}
	.st2{fill:#F2F2F2;}
	.st3{fill:#3F3D56;}
	.st4{fill:#CE4500;}
	.st5{opacity:0.1;enable-background:new    ;}
	.st6{fill:#2F2E41;}
	.st7{fill:#FFB8B8;}
	.st8{fill:#575A88;}
	.st9{fill:#8985A8;}
	.st10{fill:none;stroke:#2F2E41;stroke-miterlimit:10;}
	.st11{fill:#A0616A;}
</style>
<polygon class="st0" points="423.6,117.9 409,106.2 490.8,33.2 698.2,33.2 698.2,97.5 563.8,188 "/>
<polygon class="st1" points="736,74.2 736,34.7 708.5,34.7 708.5,44.3 698.2,33.2 631,106.2 604.7,123.8 563.9,421.6 625.4,483.1 
	768.3,483.1 768.3,109.2 "/>
<rect x="409" y="106.2" class="st2" width="222" height="376.9"/>
<rect x="495.2" y="391.1" class="st1" width="40.9" height="92"/>
<polygon class="st0" points="451.3,417.4 451.3,402.8 433.8,402.8 433.8,417.4 449.9,417.4 "/>
<polygon class="st0" points="449.9,429.1 433.8,429.1 433.8,443.7 451.3,443.7 451.3,429.1 "/>
<rect x="463" y="402.8" class="st0" width="17.5" height="14.6"/>
<rect x="463" y="429.1" class="st0" width="17.5" height="14.6"/>
<polygon class="st0" points="571.1,417.4 571.1,402.8 553.6,402.8 553.6,417.4 569.7,417.4 "/>
<polygon class="st0" points="569.7,429.1 553.6,429.1 553.6,443.7 571.1,443.7 571.1,429.1 "/>
<rect x="582.8" y="402.8" class="st0" width="17.5" height="14.6"/>
<rect x="582.8" y="429.1" class="st0" width="17.5" height="14.6"/>
<polygon class="st0" points="693.8,125.2 693.8,110.6 676.3,110.6 676.3,125.2 692.4,125.2 "/>
<polygon class="st0" points="692.4,136.9 676.3,136.9 676.3,151.5 693.8,151.5 693.8,136.9 "/>
<rect x="705.5" y="110.6" class="st0" width="17.5" height="14.6"/>
<rect x="705.5" y="136.9" class="st0" width="17.5" height="14.6"/>
<polygon class="st0" points="693.8,207 693.8,192.4 676.3,192.4 676.3,207 692.4,207 "/>
<polygon class="st0" points="692.4,218.7 676.3,218.7 676.3,233.3 693.8,233.3 693.8,218.7 "/>
<rect x="705.5" y="192.4" class="st0" width="17.5" height="14.6"/>
<rect x="705.5" y="218.7" class="st0" width="17.5" height="14.6"/>
<polygon class="st0" points="693.8,288.8 693.8,274.2 676.3,274.2 676.3,288.8 692.4,288.8 "/>
<polygon class="st0" points="692.4,300.5 676.3,300.5 676.3,315.1 693.8,315.1 693.8,300.5 "/>
<rect x="705.5" y="274.2" class="st0" width="17.5" height="14.6"/>
<rect x="705.5" y="300.5" class="st0" width="17.5" height="14.6"/>
<polygon class="st0" points="693.8,370.6 693.8,356 676.3,356 676.3,370.6 692.4,370.6 "/>
<polygon class="st0" points="692.4,382.3 676.3,382.3 676.3,396.9 693.8,396.9 693.8,382.3 "/>
<rect x="705.5" y="356" class="st0" width="17.5" height="14.6"/>
<rect x="705.5" y="382.3" class="st0" width="17.5" height="14.6"/>
<rect x="433.8" y="125.2" class="st0" width="169.5" height="35.1"/>
<rect x="433.8" y="195.3" class="st0" width="169.5" height="35.1"/>
<rect x="433.8" y="265.5" class="st0" width="169.5" height="35.1"/>
<rect x="433.8" y="335.6" class="st0" width="169.5" height="35.1"/>
<title>suburbs</title>
<path class="st3" d="M24.2,464.9c7.2,13.4,22.5,19.1,22.5,19.1s3.6-15.9-3.6-29.3s-22.5-19.1-22.5-19.1S16.9,451.5,24.2,464.9z"/>
<path class="st4" d="M29.1,460.5c13,7.8,18,23.4,18,23.4s-16.1,2.9-29.1-5S0,455.5,0,455.5S16.1,452.6,29.1,460.5z"/>
<path class="st2" d="M1107.7,243c0,106.9-63.6,144.3-142,144.3s-142-37.3-142-144.3s142-243,142-243S1107.7,136,1107.7,243z"/>
<polygon class="st0" points="960.5,370.9 962,281.4 1022.5,170.7 962.2,267.4 962.9,227.1 1004.6,147 963.1,216.5 963.1,216.5 
	964.2,144.1 1008.9,80.3 964.4,132.7 965.1,0 960.5,175.7 960.9,168.4 915.5,98.9 960.2,182.3 956,263.2 955.8,261 903.5,187.9 
	955.7,268.6 955.1,278.7 955,278.9 955.1,279.7 944.4,484.8 958.7,484.8 960.4,378.8 1012.5,298.3 "/>
<circle class="st4" cx="114.5" cy="269.2" r="59.6"/>
<polygon class="st0" points="40.3,376.6 32.3,363.3 106.7,299.6 298.1,299.6 298.1,318.2 229,392.6 149.3,408.5 "/>
<polygon class="st1" points="331,337 331,295.4 306,295.4 306,308.5 298.1,299.6 234.3,363.3 223.7,374 210.4,427.1 234.3,485.6 
	356.6,485.6 356.6,366 "/>
<rect x="32.3" y="363.3" class="st2" width="202" height="122.3"/>
<rect x="163.9" y="401.9" class="st0" width="42.5" height="37.2"/>
<rect x="109.4" y="400.6" class="st1" width="37.2" height="85"/>
<polygon class="st0" points="66.9,413.8 66.9,400.6 50.9,400.6 50.9,413.8 65.6,413.8 "/>
<polygon class="st0" points="65.6,424.5 50.9,424.5 50.9,437.8 66.9,437.8 66.9,424.5 "/>
<rect x="77.5" y="400.6" class="st0" width="15.9" height="13.3"/>
<rect x="77.5" y="424.5" class="st0" width="15.9" height="13.3"/>
<polygon class="st0" points="291.5,415.2 291.5,401.9 275.5,401.9 275.5,415.2 290.1,415.2 "/>
<polygon class="st3" points="290.1,425.8 275.5,425.8 275.5,439.1 291.5,439.1 291.5,425.8 "/>
<rect x="302.1" y="401.9" class="st0" width="15.9" height="13.3"/>
<rect x="302.1" y="425.8" class="st0" width="15.9" height="13.3"/>
<polygon class="st0" points="795.8,376.6 787.8,363.3 862.3,299.5 1053.6,299.5 1053.6,318.1 984.5,392.5 904.8,408.5 "/>
<polygon class="st1" points="1086.6,336.9 1086.6,295.3 1061.5,295.3 1061.5,308.5 1053.6,299.5 989.8,363.3 979.2,373.9 
	965.9,427.1 989.8,485.5 1112.1,485.5 1112.1,365.9 "/>
<rect x="787.8" y="363.3" class="st2" width="202" height="122.3"/>
<rect x="919.4" y="401.8" class="st0" width="42.5" height="37.2"/>
<rect x="864.9" y="400.5" class="st1" width="37.2" height="85"/>
<polygon class="st0" points="822.4,413.8 822.4,400.5 806.4,400.5 806.4,413.8 821.1,413.8 "/>
<polygon class="st0" points="821.1,424.4 806.4,424.4 806.4,437.7 822.4,437.7 822.4,424.4 "/>
<rect x="833" y="400.5" class="st0" width="15.9" height="13.3"/>
<rect x="833" y="424.4" class="st0" width="15.9" height="13.3"/>
<polygon class="st0" points="1047,415.1 1047,401.8 1031,401.8 1031,415.1 1045.6,415.1 "/>
<polygon class="st0" points="1045.6,425.7 1031,425.7 1031,439 1047,439 1047,425.7 "/>
<rect x="1057.6" y="401.8" class="st0" width="15.9" height="13.3"/>
<rect x="1057.6" y="425.7" class="st0" width="15.9" height="13.3"/>
<rect x="759.1" y="406.6" class="st3" width="2" height="79"/>
<path class="st4" d="M779.5,416.7c0.1,27.6-19.3,50.1-19.3,50.1s-19.6-22.3-19.8-49.9s19.3-50.1,19.3-50.1S779.4,389,779.5,416.7z"
	/>
<rect x="395.1" y="404.6" class="st3" width="2" height="79"/>
<path class="st4" d="M415.5,414.7c0.1,27.6-19.3,50.1-19.3,50.1s-19.6-22.3-19.8-49.9s19.3-50.1,19.3-50.1S415.4,387,415.5,414.7z"
	/>
<path class="st5" d="M415.5,414.7c0.1,27.6-19.3,50.1-19.3,50.1s-19.6-22.3-19.8-49.9s19.3-50.1,19.3-50.1S415.4,387,415.5,414.7z"
	/>
<rect x="369.1" y="404.6" class="st3" width="2" height="79"/>
<path class="st4" d="M389.5,414.7c0.1,27.6-19.3,50.1-19.3,50.1s-19.6-22.3-19.8-49.9s19.3-50.1,19.3-50.1S389.4,387,389.5,414.7z"
	/>
<rect x="3.7" y="483.6" class="st3" width="1137" height="2"/>
<path class="st6" d="M261.1,423.8c0,0,1,1.2-0.7,3.4s-0.3,7.2,3,7.3s5,1.5,4.1,3.4s-1.8,6.2,1.9,5.5s4.8,0.8,4.1,1.9
	s1.6-2.2,1.6-2.2s2,3,4.5,0.9s3.5-21.2-1.6-21.6S261.1,423.8,261.1,423.8z"/>
<polygon class="st7" points="286.8,514.7 288,522.8 293.1,522.8 291.4,513.6 "/>
<path class="st2" d="M293.7,517.9c0,0,6.9,6.3,5.2,6.9s-8.1,7.5-9.2,8.1c-1,0.5-12.1,4-10.4,0c1.3-2.6,3.3-4.8,5.8-6.3l1.2-6.9
	L293.7,517.9z"/>
<path class="st5" d="M293.7,517.9c0,0,6.9,6.3,5.2,6.9s-8.1,7.5-9.2,8.1c-1,0.5-12.1,4-10.4,0c1.3-2.6,3.3-4.8,5.8-6.3l1.2-6.9
	L293.7,517.9z"/>
<polygon class="st7" points="293.7,508.7 294.9,516.8 300.1,516.8 298.3,507.5 "/>
<path class="st7" d="M272,487.2l7.6-25c0,0-12.7-11.5-4-15s11,13.8,11,13.8l-2.9,30h-11.5L272,487.2z"/>
<path class="st4" d="M289.7,468.9c0,0-14.9,19.1-12.6,22s6.3,20.1,6.3,20.1s-0.6,6.9,1.7,6.9s8.1-1.2,8.1-2.9s-5.2-23.7-5.2-23.7
	l15-19.6L289.7,468.9z"/>
<path class="st4" d="M290.8,470l15-8.1c0,0,10.4,5.2,7.5,9.8s-16.2,16.7-16.2,16.7s4,19.6,3.5,20.2s-6.9,2.9-8.7,2.3
	s-11-23.1-8.7-24.2s9.8-13.3,9.8-13.3L290.8,470z"/>
<path class="st6" d="M249.9,690.8c0,0,10.4,6.3,11.5,6.3s16.7,4,9.8,6.9s-33.5-1.2-32.9-2.9s0-12.1,1.2-12.1
	S249.9,690.8,249.9,690.8z"/>
<path class="st6" d="M261.4,689.8c0,0,10.4,6.3,11.5,6.3s16.7,4,9.8,6.9s-33.5-1.2-32.9-2.9s0-12.1,1.2-12.1
	S261.4,689.8,261.4,689.8z"/>
<path class="st8" d="M249.5,569.5c0,0,2.7,15.7,5.6,22c2.9,6.3-0.6,36.3-2.3,41s-18.5,59.4-13.3,60s15.6,0,15.6,0l16.7-52.5
	l-2.9-70.4L249.5,569.5z"/>
<path class="st5" d="M249.5,569.5c0,0,2.7,15.7,5.6,22c2.9,6.3-0.6,36.3-2.3,41s-18.5,59.4-13.3,60s15.6,0,15.6,0l16.7-52.5
	l-2.9-70.4L249.5,569.5z"/>
<path class="st8" d="M253.9,568.1c0,0,2.3,15.6,7.5,19s3.5,6.9,3.5,6.9l-2.3,30.6c0,0-22.5,55.4-15.6,62.3s13.3,4,16.2,3.5
	s8.1-12.7,5.2-16.2s5.8-24.2,8.1-27.7s0-8.1,2.9-9.2s9.2-8.7,9.2-13.8s8.1-60.6,2.9-64s-38.5,7.1-38.5,7.1L253.9,568.1z"/>
<circle class="st7" cx="243" cy="474.6" r="12.7"/>
<circle class="st7" cx="271.8" cy="428.5" r="10.4"/>
<path class="st7" d="M251.6,474.6c0,0,6.9,12.7,10.4,12.7s-13.8,13.3-13.8,13.3s-5.8-16.7-6.9-17.3S251.6,474.6,251.6,474.6z"/>
<path class="st9" d="M253.9,486.2c0,0-15,5.2-14.4,6.9s-4,5.8-4,7.5s-1.2,17.3,5.8,30s17.9,21.9,12.7,27.7s-13.3,15.6-4.6,15.6
	c8.7,0,22.5-12.7,35.2-8.1s9.8-12.7,9.8-12.7s1.7-13.3-1.7-17.3S277,502.9,277,499.4s-11.5-16.7-14.4-16.7S253.9,486.2,253.9,486.2z
	"/>
<path class="st10" d="M271.8,434.8"/>
<path class="st7" d="M274.7,434.8c0,0,4.7,8.9,4.9,10.5s8.3-10.5,8.3-10.5l-9.2-6.3L274.7,434.8z"/>
<path class="st2" d="M276.4,441.8l9.8-10.4l11.5,5.2c0,0,10.8,23.7,11.4,25.4s-17.2,9.8-18.9,9.8s-13.8-17.9-13.8-17.9
	S273.5,445.2,276.4,441.8z"/>
<polygon class="st7" points="271.8,455.6 271.8,466 278.7,466 276.4,455.6 "/>
<path class="st7" d="M275.7,463.4c-1.8,0-3.4,1.1-4.1,2.7c-0.5,1.2-0.3,2.5,1.8,3c4.6,1.2,5.2,0,5.2,0s8-1.2,6.3-3.5
	s-6.3-2.3-6.3-2.3L275.7,463.4L275.7,463.4z"/>
<path class="st2" d="M300.6,513.3c0,0,6.9,6.3,5.2,6.9s-8.1,7.5-9.2,8.1c-1,0.5-12.1,4-10.4,0c1.3-2.6,3.3-4.8,5.8-6.3l1.2-6.9
	L300.6,513.3z"/>
<path class="st6" d="M238.4,464.9c0.8-0.5,1.7-1,1.8-2c0-0.7-0.5-1.3-1.1-1.5s-1.3-0.3-2-0.3c-0.3,0-0.5,0-0.8,0.1
	c-0.7,0.2-1,0.9-1.6,1.3c-0.8,0.6-1.8,1-2.8,1.1c-1.6,0.4-3.2,1.1-4.6,1.9c-0.3,0.1-0.5,0.3-0.7,0.6c-0.2,0.5-0.3,1-0.3,1.5
	c-0.1,2-1.3,3.7-2.2,5.4c-0.9,1.8-1.5,3.9-0.4,5.6c0.4,0.5,0.8,1.1,1.1,1.6c0.7,1.5-0.2,3.4,0.3,5c0.2,0.6,0.6,1.2,1.1,1.7
	c1,1,2.3,1.8,3.6,2.2c1.3,0.4,2.9,0.7,3.5,1.9c0.1,0.6,0.3,1.1,0.5,1.7c0.5,0.6,1.2,0.9,1.9,1c0.8,0.2,1.6,0.2,2.5,0.2
	c0.8-0.1,1.6-0.5,2.1-1.1c0.2-0.5,0.5-0.9,0.9-1.3c0.8-0.7,2.1-0.1,3.2-0.3c0.9-0.2,1.6-0.8,1.8-1.7c0-0.5,0.2-0.9,0.4-1.3
	c0.7-0.9,2.4-0.3,2.9-1.2c0.3-0.6-0.3-1.3-0.9-1.7c-1-0.6-1.9-1.2-2.8-1.9c-0.9-0.7-1.4-1.9-1.2-3c0.4-1.7,2.6-2.6,2.7-4.3
	c-0.1-1-0.6-1.9-1.5-2.4c-0.8-0.5-1.6-1.1-2.4-1.7c-0.5-0.5-0.9-1.1-1.5-1.6c-1.1-0.7-2.4-1.1-3.7-1c-0.7-0.1-3.5-0.4-3.4-1.5
	C234.8,466.8,237.7,465.3,238.4,464.9z"/>
<path class="st2" d="M276.4,441.2c0,0-6.3,2.3-6.3,5.2s-2.9,12.1,0,12.1s8.7-2.2,8.7-2.2L276.4,441.2z"/>
<path class="st7" d="M274.7,482.7c0,0,16.7-5.8,17.3-5.8s8.7-4.6,8.1-6.3l-2.3-14.4c0,0-9.2-19-2.9-19s9.8,15,9.8,15
	s13.8,26,6.3,31.7s-38.7,16.2-40.4,14.4S274.7,482.7,274.7,482.7z"/>
<path class="st7" d="M290.8,445.2l3.9,3.8l-5,4.9c0,0-6.9-2.9-6.3-1.2s4,6.9,6.3,6.9s14.3-7.5,14.4-9.8s-7.4-10.4-9.2-11
	S290.8,445.2,290.8,445.2z"/>
<path class="st2" d="M283.5,441.2c0,0,8.5,7.5,9.6,7.5s3.3-11.2,3.3-11.2s-6.8-4.5-9.4-3.2S283.5,441.2,283.5,441.2z"/>
<path class="st9" d="M253.9,489.6c0,0,0-8.1,17.3-8.1h7.5l-3.5,19l-11.5,3.5L253.9,489.6z"/>
<path class="st6" d="M291.7,424.3c-1.7,0-3.4-0.1-5.1-0.3c-1.3-3.2-3-5.9-4.8-6.9c-1.5-1.1-3.1-2-4.9-2.7
	c-3.8-1.6-10.2-0.6-10.6,1.2c-7.6,3.6-5.7,10-5.7,10c1.2,2.5,3.8,1.4,6,0.3c0.4,1.8,2,3.2,3.9,3.4c3.7,0.1,5.5,1.7,4.6,3.7
	s-2,6.9,2.1,6.1s5.3,0.9,4.6,2.1s1.8-2.4,1.8-2.4s2.2,3.3,5,1c0.3-0.3,0.5-0.6,0.6-1c0.9,0.5,1.9,0.7,2.9,0.5
	c3.3-1.5,1.2-4.9,1.2-4.9s4.4-0.7,3-0.6s-2.3-1.7,0.1-5S293.9,424.4,291.7,424.3z"/>
<rect x="265.1" y="423" transform="matrix(0.3158 -0.9488 0.9488 0.3158 -218.9682 544.0395)" class="st4" width="5.2" height="1.7"/>
<rect x="104.7" y="703.6" class="st3" width="287" height="2"/>
<rect x="721.7" y="609.6" class="st3" width="287" height="2"/>
<path class="st11" d="M933.4,430l16.1-3.1c0,0,3.9-13.4,8.7-11.8s-3.1,14.9-3.1,14.9l-22.4,10.2L933.4,430z"/>
<path class="st11" d="M835.5,443.4l-7.1,9c0,0-10.2-0.4-7.1,5.1s10.2,2.4,10.6,1.2s11.8-11.4,11.8-11.4L835.5,443.4z"/>
<path class="st4" d="M864.4,432.9l5.9-3.1c0,0,25.2-2,34.6,4.3s-39.7,7.1-39.7,7.1L864.4,432.9z"/>
<path class="st3" d="M875.6,427.2c0,0-3.1-7.5,1.2-8.3c2.5-0.5,5-0.5,7.5,0l-4.7,3.9L875.6,427.2z"/>
<path class="st5" d="M875.6,427.2c0,0-3.1-7.5,1.2-8.3c2.5-0.5,5-0.5,7.5,0l-4.7,3.9L875.6,427.2z"/>
<path class="st6" d="M854,472.5l-11.4-0.8l2,3.5c0,0-15.7,4.7-10.6,18.1c3.6,9,7.9,17.7,13,26l5.1,9.8c0,0,10.6,1.6,11-1.6
	s0-4.7-2-6.3c-1.8-1.6-2.9-3.9-3.1-6.3c0-1.6,0.4-3.1-0.8-3.9s-1.6-2-1.6-4.3s-4.3-11-4.3-11s13.8-0.4,18.1,3.1s18.5,16.9,18.5,16.9
	c0.8,0.8,1.4,1.7,2,2.8c0.8,1.6,0.8,2.4,2.4,3.1s0.4,3.9,0,4.3S888,542,888,542s-4.3,7.5,0.4,7.9s9,0.8,9.4,0c0.4-1.1,1-2.1,1.6-3.1
	c1.2-2,0-6.3,0-6.3s11.4-14.6,7.9-23.6s-11-29.5-11-29.5l-11.4-4.7l-20.8-7.5L854,472.5z"/>
<path class="st6" d="M853.2,527.2c0,0-2.4,9-3.1,9.4s-9.4,7.9-3.5,9s10.2,0.8,11.4-0.4s0.8-2.4,2.8-2.8s5.5-1.6,5.1-4.3
	s-2.4-10.2-3.5-11S853.2,527.2,853.2,527.2z"/>
<path class="st6" d="M887.4,547.2c0,0-3.5,2.8-1.6,7.9s4.7,10.6,4.7,10.6s3.1,9.8,8.3,8.3c1.9-0.7,3.3-2.3,3.6-4.2
	c0.7-2.8,0.2-5.8-1.4-8.2l-3-4.5l-3.1-8.3L887.4,547.2z"/>
<path class="st11" d="M877.6,431.6c0,0-4.7-0.4-5.5,0.8s-4.3,16.9,0,18.5s17.3,4.3,19.3,2.4s2.8-19.3,2.8-19.3L877.6,431.6z"/>
<path class="st5" d="M877.6,431.6c0,0-4.7-0.4-5.5,0.8s-4.3,16.9,0,18.5s17.3,4.3,19.3,2.4s2.8-19.3,2.8-19.3L877.6,431.6z"/>
<path class="st2" d="M870.5,444.5c0,0,5.5,5.5,9,4.7s11.8-4.3,12.6-5.9s10.6-2,10.6-2l-10.6,29.5l7.5,24.8c0,0,4.3-5.1-7.5-5.5
	s-27.5-6.3-30.3-14.2c0,0-17.3-2.4-18.1-2.8s2-2.8,2-2.8l11.4-3.1l8.3-10.6L870.5,444.5z"/>
<path class="st4" d="M874,432.4c0,0,2-2.8,0-2.8c-3.2-0.1-6.3,0.1-9.4,0.4c-2,0.4-9.4-1.6-10.2,0.8s-0.8,16.9,0.8,18.1
	s2.4,1.2,0.4,3.5s-6.7,10.2-5.5,13s-12.6,3.5-10.6,6.7c1.1,1.8,3,3,5.1,3.1c0,0,0.8-6.3,5.5-3.1s11,11,16.1,5.9s7.1-9.8,7.5-16.5
	c0.4-5,0.1-10-0.8-14.9C872.1,442.6,874,432.4,874,432.4z"/>
<path class="st4" d="M894.5,439.8c0,0,3.1,2.8,0,9.4s-11.4,22.4-4.7,32.6s9.4,13,7.9,14.9c-1,1.2-1.5,2.8-1.6,4.3l4.3-1.6
	c0.5-3.2,1.3-6.4,2.4-9.4c1.6-3.9-3.1-15.7-3.1-15.7l1.6-15.3c0,0,6.3-9.8,7.1-10.2s-1.6-17.3-1.6-17.3s-3.9-1.2-5.9,0
	S894.5,439.8,894.5,439.8z"/>
<path class="st4" d="M856.7,431.2h-2.4l-16.1,8.3c0,0-1.2-5.1-2-3.9s-0.4,4.3-2.4,5.1s-3.1,2,0,3.5s3.5,0.4,3.5,3.1s2.4,3.1,4.3,2.4
	s2.4-1.2,4.3-0.4s0.8,2,3.5,0.8s9.8-0.8,9.8-0.8L856.7,431.2z"/>
<path class="st4" d="M903.9,432.4l2.8-0.8c0,0,8.3,0.8,10.2,0.8s3.9-0.4,5.1-0.4s7.1-0.8,7.9-1.6s4.3-2.8,4.7-1.6s4.7,8.7,0.8,12.2
	s-4.7,2-7.1,3.5s-21.2,4.7-21.6,4.3S903.9,432.4,903.9,432.4z"/>
<circle class="st11" cx="887.8" cy="435.5" r="11.8"/>
<path class="st6" d="M879.1,436c0.1,0.3,0.2,0.5,0.2,0.8c0.3,1.4,1.5,2.4,3,2.4c-0.2,1,0.4,2,1.4,2.2c0.1,0,0.1,0,0.2,0
	c0.8-1,1.4-2.2,1.8-3.4c0.1-0.5,0.3-1,0.6-1.3c0.5-0.4,1.1-0.6,1.7-0.6c3.1-0.4,6.3-0.6,9.5-0.7c0.4,0,0.9-0.1,1.2-0.3
	c0.9-0.6,0.6-2,0-2.9c-1.1-1.8-2.8-3.1-4.8-3.7c-1.4-0.4-2.9-0.6-4.4-0.7c-2-0.3-3.9-0.5-5.9-0.6s-4,0.4-5.7,1.5
	c-1.2,0.8-3.1,3.2-2.2,4.6c0.2,0.2,0.6,0.4,0.8,0.6c0.3,0.3,0.3,0.8,0.6,1.1C877.7,435.5,878.7,435.4,879.1,436z"/>
<path class="st3" d="M887.8,415.8c0,0-13.4,4.7-12.2,11.4s4.7,14.6,12.2,14.2s11.4-8.5,11.4-8.5l-2-11.1
	C897.2,421.7,889.8,415.8,887.8,415.8z"/>
<path class="st6" d="M886.1,439.4c0,0,5.3-5.7,7.9-2.4C894,437,893.9,436.9,886.1,439.4z"/>
<path class="st6" d="M896,585.3c-7.1,0-15.8-2.3-24.3-10.8c-20.8-20.7-40.6-22.7-40.8-22.8l0.1-0.8c0.2,0,20.3,2.1,41.3,23
	c10.8,10.7,21.9,11.4,29.4,10c4.9-0.9,9.6-2.8,13.8-5.5l0.5,0.6c-4.3,2.8-9,4.8-14.1,5.7C899.9,585.1,898,585.3,896,585.3z"/>
<circle class="st6" cx="841.6" cy="563.5" r="4.7"/>
<circle class="st6" cx="875" cy="585.6" r="4.7"/>
</svg>
