<?xml version="1.0" encoding="utf-8"?>
<!-- Generator: Adobe Illustrator 24.0.0, SVG Export Plug-In . SVG Version: 6.00 Build 0)  -->
<svg version="1.1" id="Calque_1" xmlns="http://www.w3.org/2000/svg" xmlns:xlink="http://www.w3.org/1999/xlink" x="0px" y="0px"
	 viewBox="0 0 300 300" style="enable-background:new 0 0 300 300;" xml:space="preserve">
<style type="text/css">
	.st0{fill:#F2F2F2;}
	.st1{fill:#CE4500;}
</style>
<g>
	<path class="st0" d="M116.6,228.9c0,0.8-0.1,1.2-0.4,1.2c-3.6,0-6.3-0.1-8.2-0.2l-11.7-0.2l-12.6,0.2c-2.2,0.1-5.2,0.2-9,0.2
		c-0.4,0-0.5-0.4-0.5-1.2s0.2-1.2,0.5-1.2c4.6,0,8-0.3,10.1-1s3.5-2,4.3-3.9s1.2-5,1.4-9.2l2.6-92.4l11.2,17.6l-1.9,74.8
		c-0.3,4.1,0,7.1,0.6,9s2,3.2,4,4c2,0.7,5.1,1.1,9.2,1.1C116.5,227.6,116.6,228,116.6,228.9z"/>
	<path class="st0" d="M194.4,89.9L150,163.2l-44.6-73.3V93l-1,37.2l-11.2-17.5L94,85.8c0.1-5.5-1.1-9.2-3.7-11.2
		c-2.3-1.7-5.8-2.7-10.5-2.9c-0.8,0-1.7-0.1-2.5-0.1c-0.3,0-0.5-0.3-0.5-1V69h28.7v0.4l44.5,75.3l44.5-75.3V69h28.7v1.7
		c0,0.6-0.2,1-0.5,1c-0.9,0-1.7,0-2.6,0.1c-4.8,0.2-8.3,1.2-10.5,2.9c-2.6,2-3.9,5.7-3.8,11.2l0.8,26.5l-11.1,17.5l-1-36.8v-3.2
		H194.4z"/>
	<path class="st0" d="M225.7,228.9c0,0.8-0.2,1.2-0.5,1.2c-3.8,0-6.8-0.1-9-0.2l-12.6-0.2l-11.7,0.2c-1.9,0.1-4.7,0.2-8.2,0.2
		c-0.2,0-0.4-0.4-0.4-1.2s0.1-1.2,0.4-1.2c4.2,0,7.2-0.4,9.3-1.1c2-0.8,3.4-2.1,4-4c0.7-1.9,0.9-4.9,0.6-9l-1.9-74.7l0,0l11.2-17.9
		l2.6,92.6c0.1,4.2,0.6,7.3,1.4,9.2c0.8,1.9,2.2,3.2,4.3,3.9s5.4,1,10.1,1C225.5,227.6,225.7,228,225.7,228.9z"/>
	<path class="st1" d="M245.9,211.2c-3.4,0-5.9-0.3-7.4-0.8s-2.6-1.5-3.2-2.9c-0.6-1.4-0.9-3.7-1-6.8l-2.7-93.9
		c-0.1-4,0.8-6.8,2.8-8.2c1.7-1.2,4.2-2,7.7-2.1c0.6,0,1.2,0,1.9,0c0.2,0,0.4-0.2,0.4-0.7v-1.2h-10.1l0,0h-11.1l-72.8,116.7
		L76.3,94.6H65.2h-10v1.2c0,0.5,0.1,0.7,0.4,0.7c0.6,0,1.3,0,1.9,0c3.5,0.2,6.1,0.9,7.7,2.1c1.9,1.4,2.8,4.2,2.8,8.2l-2.7,93.9
		c-0.1,3.1-0.4,5.4-1,6.8c-0.6,1.4-1.6,2.3-3.2,2.9c-1.5,0.5-4,0.8-7.4,0.8c-0.3,0-0.4,0.3-0.4,0.9c0,0.6,0.1,0.9,0.4,0.9
		c2.8,0,5-0.1,6.6-0.2l9.3-0.2l8.6,0.2c1.4,0.1,3.4,0.2,6.1,0.2c0.2,0,0.3-0.3,0.3-0.9c0-0.6-0.1-0.9-0.3-0.9
		c-3.1,0-5.3-0.3-6.8-0.8c-1.5-0.6-2.5-1.5-3-2.9s-0.7-3.6-0.5-6.6l2.3-88.6l0,0l68.3,108.4l5.8,9.4l5.8-9.4l67.1-108.3l2.3,88.5
		c0.2,3,0,5.2-0.5,6.6c-0.5,1.4-1.5,2.4-3,2.9s-3.7,0.8-6.8,0.8c-0.2,0-0.3,0.3-0.3,0.9c0,0.6,0.1,0.9,0.3,0.9
		c2.6,0,4.6-0.1,6.1-0.2l8.6-0.2l9.3,0.2c1.6,0.1,3.8,0.2,6.6,0.2c0.3,0,0.4-0.3,0.4-0.9C246.3,211.5,246.1,211.2,245.9,211.2z"/>
	<path class="st0" d="M251.4,48C224.3,20.9,188.3,6,149.9,6C111.6,6,75.5,20.9,48.4,48s-42,63.2-42,101.5s14.9,74.4,42,101.5
		s63.2,42,101.5,42s74.4-14.9,101.5-42s42-63.2,42-101.5C293.5,111.2,278.5,75.1,251.4,48z M291.1,149.5
		c0,77.8-63.3,141.2-141.2,141.2S8.7,227.4,8.7,149.5S72.1,8.4,149.9,8.4S291.1,71.7,291.1,149.5z"/>
	<path class="st0" d="M244.2,55.2C219,30,185.5,16.1,149.9,16.1h-0.7v3.5h0.7c71.6,0,129.8,58.2,129.8,129.8
		s-58.2,129.8-129.8,129.8h-0.7v3.5h0.7c35.6,0,69.1-13.9,94.3-39.1s39.1-58.7,39.1-94.3C283.2,113.9,269.4,80.4,244.2,55.2z"/>
	<circle class="st0" cx="150.3" cy="253.9" r="7.2"/>
</g>
</svg>
