<?xml version="1.0" encoding="utf-8"?>
<!-- Generator: Adobe Illustrator 24.0.0, SVG Export Plug-In . SVG Version: 6.00 Build 0)  -->
<svg version="1.1" id="Calque_1" xmlns="http://www.w3.org/2000/svg" xmlns:xlink="http://www.w3.org/1999/xlink" x="0px" y="0px"
	 viewBox="0 0 400 400" style="enable-background:new 0 0 400 400;" xml:space="preserve">
<style type="text/css">
	.st0{fill:#C1272D;}
</style>
<image style="display:none;overflow:visible;" width="512" height="512" xlink:href="../../../../../../Users/jangux/Downloads/architect.png"  transform="matrix(0.3521 0 0 0.3521 109.6364 110)">
</image>
<g>
	<path class="st0" d="M296.4,242.6c-0.7-0.3-1.6-0.7-2.8-1.2c-2-0.8-4.7-1.7-8-2.7c-14.3-4.5-39.8-11.1-67.1-14.8V206
		c12.5-9.5,21.2-23.7,23.5-39.9h1c8,0,14.6-6.5,14.6-14.6v-6.8c0-2.2-0.5-4.2-1.4-6.1h0.3c3.7,0,7.1-1.4,9.7-4c2.6-2.6,4-6,4-9.7
		c0-7.3-5.7-13.3-13-13.7c0.2-2.1,0.3-4.3,0.3-6.4c0-28.7-16.2-53.8-40.1-66.7c-3.4-1.8-6.9-3.4-10.6-4.7
		c-6.7-2.4-13.8-3.9-21.1-4.4h-10.6c-7.4,0.5-14.4,2-21.1,4.4c-3.7,1.3-7.2,2.9-10.6,4.7c-23.9,12.9-40.1,38-40.1,66.7
		c0,2.1,0.1,4.2,0.3,6.4c-3.4,0.2-6.5,1.6-8.9,4c-2.6,2.6-4,6-4,9.7c0,7.6,6.2,13.7,13.7,13.7h0.3c-0.9,1.9-1.4,4-1.4,6.1v6.8
		c0,8,6.5,14.6,14.6,14.6h1c2.4,17.1,12,31.9,25.6,41.4v16.2c-27.6,3.9-53.5,11-68.1,15.3c-1.9,0.6-3.6,1.1-5.1,1.5
		c-1.2,0.3-2.2,0.6-3.1,0.9c-1.3,0.4-2.2,0.7-2.9,0.8c-10.5,2.6-28.6,22.3-28.6,37.9v61.3c0,16.3,13.3,29.6,29.6,29.6h228.1
		c16.3,0,29.6-13.3,29.6-29.6v-61.3C324.1,264.4,306.3,247.6,296.4,242.6z M143.5,47.9v7.3c0,2.9,2.4,5.3,5.3,5.3s5.3-2.4,5.3-5.3
		V42.5c6.6-2.7,13.7-4.4,21.1-5v26.2c0,2.9,2.4,5.3,5.3,5.3s5.3-2.4,5.3-5.3V37.4c7.4,0.6,14.5,2.3,21.1,5v12.8
		c0,2.9,2.4,5.3,5.3,5.3s5.3-2.4,5.3-5.3v-7.3c19.1,12,31.7,33,31.7,56.9c0,2.1-0.1,4.2-0.3,6.3H112.1c-0.2-2.1-0.3-4.2-0.3-6.3
		C111.8,81,124.4,59.9,143.5,47.9z M104.4,130.2c-2.9,0-5.3-2.4-5.3-5.3c0-1.4,0.5-2.7,1.6-3.7c1-1,2.3-1.5,3.7-1.5h152.1
		c2.9,0,5.3,2.4,5.3,5.3c0,1.4-0.5,2.7-1.6,3.7c-1,1-2.3,1.5-3.7,1.5H104.4z M126.9,161.6l-0.3-3.9h-8.7c-3.4,0-6.1-2.7-6.1-6.1
		v-6.8c0-2.5,1.6-4.8,4-5.7c0.7-0.3,1.4-0.4,2.1-0.4h125c0.7,0,1.4,0.1,2.1,0.4c2.4,0.9,4,3.2,4,5.7v6.8c0,3.4-2.7,6.1-6.1,6.1h-8.7
		l-0.3,3.9c-1,13-6.7,24.6-15.5,33.2c-2.6,2.6-5.4,4.9-8.4,6.8c-8.5,5.6-18.7,8.8-29.6,8.8c-10,0-19.4-2.7-27.5-7.5
		c-3-1.8-5.9-3.8-8.4-6.1C134.6,188,128,175.6,126.9,161.6z M82.9,362.6H66.4c-11.6,0-21.1-9.5-21.1-21.1v-61.3
		c0-11.8,15.4-28,22.1-29.7c0.8-0.2,1.9-0.5,3.4-1c4.8,15.4,10.3,36.2,11.4,53.1C83.4,320.2,83.2,344.6,82.9,362.6z M177.3,362.6
		H91.3c0.4-18.1,0.5-42.7-0.7-60.5c-1.2-17.8-6.8-39.2-11.7-54.9c10.1-2.9,25.5-7.2,42.9-10.8l55.4,80V362.6z M152.2,265.4
		l-7.7-11.1l-13.6-19.7c4.5-0.8,9-1.6,13.6-2.2c2.8-0.4,5.6-0.8,8.4-1.1v-18.7c8.3,4.1,17.7,6.4,27.5,6.4c10.6,0,20.7-2.7,29.6-7.5
		v19.8c2.8,0.3,5.7,0.7,8.4,1.1c4.9,0.7,9.8,1.4,14.5,2.3l-14.5,20.6l-7.2,10.2l-29.8,42.3L152.2,265.4z M270.5,362.6h-84.7v-46.2
		l56.4-80.1c16.9,3.4,31.6,7.3,40.9,10.3c-4.9,15.8-10.6,37.5-11.8,55.4C270,319.9,270.1,344.4,270.5,362.6z M315.6,341.4
		c0,11.6-9.5,21.1-21.1,21.1h-15.6c-0.3-18-0.5-42.4,0.7-59.9c1.1-16.9,6.7-37.8,11.4-53.2c0.7,0.3,1.2,0.5,1.6,0.7
		c8.1,4.1,23,18.5,23,30V341.4z"/>
	<path class="st0" d="M144.9,344.6h-32.4c-3.9,0-7-3.2-7-7v-11.3c0-3.9,3.2-7,7-7h32.4c3.9,0,7,3.2,7,7v11.3
		C151.9,341.4,148.8,344.6,144.9,344.6z M112.5,325.6c-0.4,0-0.7,0.3-0.7,0.7v11.3c0,0.4,0.3,0.7,0.7,0.7h32.4
		c0.4,0,0.7-0.3,0.7-0.7v-11.3c0-0.4-0.3-0.7-0.7-0.7H112.5z"/>
	<path class="st0" d="M361.5,152.3c-2.8-3.4-7.6-3.9-11.1-1.3l-0.1,0.1l-36.9,30l-13.4-15.7c-2.8-3.3-7.8-3.8-11.1-0.9
		c-3.3,2.8-3.8,7.8-0.9,11.1l0.1,0.1l18.3,21.5c0.1,0.2,0.2,0.2,0.2,0.3c0.1,0.1,0.2,0.2,0.3,0.3c0.1,0.1,0.2,0.2,0.3,0.3
		c0.1,0.1,0.2,0.2,0.3,0.2c0.1,0.1,0.2,0.2,0.4,0.2c0.2,0.1,0.2,0.2,0.3,0.2c0.2,0.1,0.2,0.2,0.4,0.2c0.1,0.1,0.2,0.2,0.3,0.2
		c0.2,0.1,0.3,0.2,0.5,0.2c0.1,0.1,0.2,0.1,0.3,0.2c0.2,0.1,0.3,0.1,0.5,0.2c0.1,0,0.2,0.1,0.3,0.1c0.2,0,0.3,0.1,0.5,0.1
		c0.1,0,0.2,0.1,0.3,0.1c0.2,0,0.4,0,0.6,0c0.1,0,0.2,0,0.2,0c0.2,0,0.5,0,0.7,0c0.1,0,0.1,0,0.2,0c0.2,0,0.4-0.1,0.6-0.1
		c0.1,0,0.2,0,0.2-0.1c0.2,0,0.3-0.1,0.5-0.1c0.1,0,0.2-0.1,0.2-0.1c0.2,0,0.2-0.1,0.4-0.2c0.1,0,0.2-0.1,0.3-0.1
		c0.1-0.1,0.2-0.1,0.3-0.2s0.2-0.1,0.3-0.2c0.1-0.1,0.2-0.1,0.3-0.2c0.1-0.1,0.2-0.2,0.3-0.2s0.2-0.2,0.3-0.2
		c0.1-0.1,0.2-0.2,0.3-0.2c0.1-0.1,0.2-0.1,0.2-0.2l42.8-34.8C363.6,160.6,364.2,155.7,361.5,152.3z"/>
</g>
</svg>
