<?xml version="1.0" encoding="utf-8"?>
<!-- Generator: Adobe Illustrator 24.0.0, SVG Export Plug-In . SVG Version: 6.00 Build 0)  -->
<svg version="1.1" id="Calque_1" xmlns="http://www.w3.org/2000/svg" xmlns:xlink="http://www.w3.org/1999/xlink" x="0px" y="0px"
	 viewBox="0 0 60 60" style="enable-background:new 0 0 60 60;" xml:space="preserve">
<style type="text/css">
	.st0{fill:#FFFFFF;}
</style>
<g id="Snapchat-8">
	<path class="st0" d="M30.3,53.8h-0.6c-3,0-4.9-1.4-6.8-2.7c-1.1-1-2.5-1.6-3.9-2c-0.7-0.1-1.4-0.2-2.1-0.2c-1,0-1.9,0.1-2.9,0.3
		c-0.4,0.1-0.7,0.1-1.1,0.2c-0.3,0-0.7-0.2-0.7-0.5c-0.1-0.4-0.2-0.8-0.3-1.2c-0.2-1-0.4-1.6-0.8-1.6c-4.8-0.7-6.1-1.7-6.4-2.4
		c0-0.1-0.1-0.2-0.1-0.3c0-0.3,0.2-0.5,0.5-0.6c7.3-1.2,10.6-8.7,10.7-9l0,0c0.4-0.7,0.5-1.6,0.3-2.3c-0.5-1.2-2.2-1.7-3.3-2
		l-0.7-0.2c-2.2-0.9-2.3-1.7-2.3-2.2c0.3-0.8,1.1-1.3,2-1.3c0.2,0,0.4,0,0.6,0.1c0.8,0.4,1.7,0.6,2.6,0.7c0.6,0.1,1.1-0.1,1.6-0.5
		c0-0.5-0.1-1-0.1-1.5c-0.2-3.5-0.5-7.8,0.6-10.2c2.1-4.9,7-8,12.3-7.9h1.1c5.3-0.1,10.2,3.1,12.3,7.9c1.1,2.5,0.8,6.8,0.6,10.2v0.2
		c0,0.5-0.1,0.9-0.1,1.4c0.4,0.3,0.9,0.5,1.4,0.5l0,0c0.9-0.1,1.7-0.3,2.5-0.7c0.2-0.1,0.5-0.2,0.8-0.2c0.3,0,0.6,0.1,0.9,0.2l0,0
		c0.6,0.1,1.1,0.6,1.2,1.3c0,0.5-0.4,1.3-2.3,2l-0.7,0.2c-1.1,0.3-2.7,0.9-3.3,2c-0.3,0.8-0.2,1.6,0.3,2.3l0,0
		c0.1,0.3,3.4,7.8,10.7,9c0.3,0,0.5,0.3,0.5,0.6c0,0.1,0,0.2-0.1,0.3c-0.3,0.7-1.7,1.7-6.4,2.4c-0.4,0.1-0.5,0.6-0.8,1.6
		c-0.1,0.4-0.2,0.8-0.3,1.2c-0.1,0.3-0.4,0.5-0.7,0.5H47c-0.4,0-0.7-0.1-1.1-0.1C45,49,44,48.9,43.1,48.9c-0.7,0-1.4,0.1-2.1,0.2
		c-1.4,0.4-2.8,1-3.9,2C35.3,52.4,33.4,53.8,30.3,53.8z"/>
</g>
</svg>
