<?xml version="1.0" encoding="utf-8"?>
<!-- Generator: Adobe Illustrator 24.0.0, SVG Export Plug-In . SVG Version: 6.00 Build 0)  -->
<svg version="1.1" id="Calque_1" xmlns="http://www.w3.org/2000/svg" xmlns:xlink="http://www.w3.org/1999/xlink" x="0px" y="0px"
	 viewBox="0 0 60 60" style="enable-background:new 0 0 60 60;" xml:space="preserve">
<style type="text/css">
	.st0{fill:#FFFFFF;}
</style>
<g id="Facebook-7">
	<path id="Facebook-8" class="st0" d="M54.9,2H5.1C3.4,2,2,3.4,2,5.1v49.8C2,56.6,3.4,58,5.1,58h26.8V36.3h-7.3v-8.4h7.3v-6.2
		c0-7.2,4.4-11.2,10.8-11.2c2.2,0,4.3,0.1,6.5,0.3v7.5h-4.5c-3.5,0-4.2,1.7-4.2,4.1v5.4h8.4l-1.1,8.4h-7.2V58h14.3
		c1.7,0,3.1-1.4,3.1-3.1V5.1C58,3.4,56.6,2,54.9,2z"/>
</g>
</svg>
