<?xml version="1.0" encoding="utf-8"?>
<!-- Generator: Adobe Illustrator 24.0.0, SVG Export Plug-In . SVG Version: 6.00 Build 0)  -->
<svg version="1.1" id="Calque_1" xmlns="http://www.w3.org/2000/svg" xmlns:xlink="http://www.w3.org/1999/xlink" x="0px" y="0px"
	 viewBox="0 0 60 60" style="enable-background:new 0 0 60 60;" xml:space="preserve">
<style type="text/css">
	.st0{fill:#FFFFFF;}
</style>
<g id="Instagram-4">
	<path class="st0" d="M29.9,7.1c7.4,0,8.3,0,11.3,0.2c1.8,0,3.5,0.3,5.2,1c2.4,0.9,4.3,2.9,5.3,5.3c0.6,1.7,0.9,3.4,1,5.2
		c0.1,2.9,0.2,3.8,0.2,11.3s0,8.3-0.2,11.3c0,1.8-0.3,3.5-1,5.2c-0.9,2.4-2.9,4.3-5.3,5.3c-1.7,0.6-3.4,0.9-5.2,1
		c-2.9,0.1-3.8,0.2-11.3,0.2s-8.3,0-11.3-0.2c-1.8,0-3.5-0.3-5.2-1c-2.4-1-4.3-2.9-5.2-5.3c-0.6-1.7-0.9-3.4-1-5.2
		C7.1,38.3,7.1,37.4,7.1,30s0-8.3,0.2-11.3c0-1.8,0.3-3.5,1-5.2c0.9-2.4,2.8-4.3,5.2-5.2c1.7-0.6,3.4-0.9,5.2-1
		C21.6,7.2,22.5,7.2,29.9,7.1 M29.9,2.1c-7.6,0-8.5,0-11.5,0.2c-2.3,0-4.6,0.5-6.8,1.3C7.9,5,4.9,8,3.4,11.8
		c-0.8,2.2-1.3,4.5-1.3,6.8C2,21.6,2,22.5,2,30.1s0,8.5,0.2,11.5c0.1,2.3,0.6,4.5,1.4,6.7c1.4,3.8,4.4,6.8,8.2,8.2
		c2.2,0.8,4.5,1.3,6.8,1.3c3,0.1,3.9,0.2,11.5,0.2s8.5,0,11.5-0.2c2.3,0,4.6-0.5,6.8-1.3c3.8-1.4,6.8-4.4,8.2-8.2
		c0.8-2.2,1.3-4.5,1.3-6.8C58,38.5,58,37.6,58,30s0-8.5-0.2-11.5c0-2.3-0.5-4.6-1.3-6.8c-1.4-3.8-4.4-6.8-8.2-8.2
		c-2.2-0.8-4.5-1.3-6.8-1.3C38.6,2.1,37.6,2,30.1,2L29.9,2.1z"/>
	<path class="st0" d="M29.9,15.7c-7.9,0-14.3,6.4-14.3,14.3c0,7.9,6.4,14.3,14.3,14.3S44.3,37.9,44.3,30l0,0
		C44.3,22.1,37.9,15.7,29.9,15.7z M29.9,39.3c-5.1,0-9.3-4.2-9.3-9.3s4.2-9.3,9.3-9.3c5.1,0,9.3,4.2,9.3,9.3l0,0
		C39.3,35.1,35.1,39.3,29.9,39.3L29.9,39.3z"/>
	<circle class="st0" cx="44.8" cy="15.1" r="3.4"/>
</g>
</svg>
